SplineFontDB: 3.0
FontName: ShofarRegularOblique
FullName: Shofar Regular Oblique
FamilyName: Shofar
Weight: Regular
Copyright: Copyright 2011-2012 by Yoram Gnat (yoram.gnat@gmail.com)\nDistributed under the terms of GNU General Public License version 2(http://www.gnu.org/licenses/gpl.html).\n\nLatin glyphs and punctuation Copyright (URW)++,Copyright 1999 by (URW)++ Design & Development;\n\nHebrew Cantillation marks GSUB and GPOS OpenType positioning rules copyright (c) 2010 by Yoram Gnat (yoram.gnat@gmail.com)\nDistributed under the terms of GNU General Public License version 2(http://www.gnu.org/licenses/gpl.html).\nInspired by the Hebrew OpenType Layout logic copyright (c) 2003 & 2007, Ralph Hancock & John Hudson published under the MIT License.\n\nAs a special exception, if you create a document which uses this font, and embed this font or unaltered portions of this font into the document, this font does not by itself cause the resulting document to be covered by the GNU General Public License. This exception does not however invalidate any other reasons why the document might be covered by the GNU General Public License. If you modify this font, you may extend this exception to your version of the font, but you are not obligated to do so. If you do not wish to do so, delete this exception statement from your version.
UComments: "The average width of a character (not including narrow chars) is 945.4" 
Version: 0.150yg
ItalicAngle: 13
UnderlinePosition: -170
UnderlineWidth: 70
Ascent: 1638
Descent: 410
LayerCount: 2
Layer: 0 0 "Back"  1
Layer: 1 0 "Fore"  0
XUID: [1021 594 1227166039 12540753]
FSType: 0
OS2Version: 0
OS2_WeightWidthSlopeOnly: 0
OS2_UseTypoMetrics: 1
CreationTime: 1244295734
ModificationTime: 1336910941
PfmFamily: 17
TTFWeight: 500
TTFWidth: 5
LineGap: 184
VLineGap: 0
Panose: 2 0 0 0 0 0 0 0 0 0
OS2TypoAscent: 0
OS2TypoAOffset: 1
OS2TypoDescent: 0
OS2TypoDOffset: 1
OS2TypoLinegap: 184
OS2WinAscent: 0
OS2WinAOffset: 1
OS2WinDescent: 150

StartChar: .null
Encoding: 0 -1 0
AltUni2: 000000.ffffffff.0 000000.ffffffff.0 000000.ffffffff.0 000000.ffffffff.0 000000.ffffffff.0 000000.ffffffff.0 000000.ffffffff.0 000000.ffffffff.0 000000.ffffffff.0 000000.ffffffff.0 000000.ffffffff.0 000000.ffffffff.0 000000.ffffffff.0 000000.ffffffff.0 000000.ffffffff.0 000000.ffffffff.0 000000.ffffffff.0 000000.ffffffff.0 000000.ffffffff.0 000000.ffffffff.0 000000.ffffffff.0 000000.ffffffff.0 000000.ffffffff.0 000000.ffffffff.0 000000.ffffffff.0 000000.ffffffff.0 000000.ffffffff.0 000000.ffffffff.0 000000.ffffffff.0 000000.ffffffff.0 000000.ffffffff.0 000000.ffffffff.0 000000.ffffffff.0 000000.ffffffff.0 000000.ffffffff.0 000000.ffffffff.0 000000.ffffffff.0 000000.ffffffff.0 000000.ffffffff.0 000000.ffffffff.0 000000.ffffffff.0 000000.ffffffff.0 000000.ffffffff.0 000000.ffffffff.0 000000.ffffffff.0 000000.ffffffff.0 000000.ffffffff.0
Width: 1008
VWidth: 2273
GlyphClass: 2
Flags: W
HStem: -64 78<123 879> 154 132<354.538 469.834> 898 47<186.363 334.355> 1095 94<-127 629>
VStem: 101 71<814.1 887.662> 339 50<372.727 531.665> 344 136<165.432 275.38> 348 54<371 456.919> 411 113<611.701 845.438>
LayerCount: 2
Fore
SplineSet
191 709 m 0xfc80
 143 709 101 758 101 821 c 0
 101 894 169 945 274 945 c 0
 394 945 493 872 518 762 c 0
 522 745 524 730 524 716 c 0
 524 669 500 632 437 561 c 0
 403 524 389 497 389 458 c 0xfc80
 389 435 394 408 402 371 c 1
 356 371 l 1
 348 406 l 2xf9
 340 442 339 466 339 488 c 0
 339 496 339 504 339 512 c 1
 344 549 344 548 398 655 c 0
 407 673 411 695 411 719 c 0
 411 826 345 898 257 898 c 0
 210 898 172 875 172 850 c 0
 172 837 174 836 195 823 c 1
 220 804 240 784 240 753 c 0
 240 727 220 709 191 709 c 0xfc80
427 154 m 0
 389 154 344 189 344 235 c 0
 344 264 365 286 397 286 c 0
 437 286 480 251 480 205 c 0xfa
 480 176 459 154 427 154 c 0
-127 1095 m 1
 123 14 l 1
 879 14 l 1
 629 1095 l 1
 -127 1095 l 1
-235 1189 m 1
 694 1189 l 1
 984 -64 l 1
 55 -64 l 1
 -235 1189 l 1
EndSplineSet
Validated: 1
Substitution2: "L1ccmpZWJbuginLinuxoverride subtable" zerojoin
EndChar

StartChar: exclam
Encoding: 2 33 2
Width: 422
VWidth: 1755
GlyphClass: 2
Flags: W
HStem: -25 220<117.674 263.676>
VStem: -168 246<1018.46 1205.92> 78 225<13.75 156.375>
LayerCount: 2
Fore
SplineSet
167 335 m 1xa0
 99 335 l 1
 23 649 -2 732 -73 897 c 0
 -106 974 -168 1111 -168 1201 c 0xc0
 -168 1254 -147 1291 -87 1291 c 0
 54 1291 78 1093 78 897 c 0
 78 732 98 643 167 335 c 1xa0
215 -25 m 0
 151 -25 78 33 78 111 c 0
 78 159 113 195 166 195 c 0
 231 195 303 137 303 60 c 0xa0
 303 11 268 -25 215 -25 c 0
EndSplineSet
Validated: 1
EndChar

StartChar: quotedbl
Encoding: 3 34 3
Width: 772
VWidth: 1755
GlyphClass: 2
Flags: W
HStem: 1083 208<-133.083 31.1743 183.917 348.174>
VStem: 34 85<912.41 1082.61> 351 85<912.41 1082.59>
LayerCount: 2
Fore
SplineSet
245 1291 m 0
 351 1291 436 1187 436 1051 c 0
 436 1001 424 953 403 911 c 0
 385 878 362 856 301 799 c 1
 294 796 284 785 276 780 c 1
 225 829 l 1
 308 891 351 960 351 1029 c 0
 351 1047 349 1083 331 1083 c 2
 326 1083 l 1
 319 1081 312 1083 303 1083 c 0
 222 1083 152 1126 152 1208 c 0
 152 1257 189 1291 245 1291 c 0
-72 1291 m 0
 34 1291 119 1187 119 1051 c 0
 119 1001 107 953 86 911 c 0
 68 878 45 856 -16 799 c 1
 -23 796 -33 785 -41 780 c 1
 -92 829 l 1
 -9 891 34 960 34 1029 c 0
 34 1047 32 1083 14 1083 c 2
 9 1083 l 1
 2 1081 -5 1083 -14 1083 c 0
 -95 1083 -165 1126 -165 1208 c 0
 -165 1257 -128 1291 -72 1291 c 0
EndSplineSet
Validated: 1
EndChar

StartChar: numbersign
Encoding: 4 35 4
Width: 975
VWidth: 1755
GlyphClass: 2
Flags: W
HStem: 0 21G<168.3 284 498.3 614> 400 99<-43 127 250 457 580 748> 730 99<-73 98 220 428 550 719>
LayerCount: 2
Fore
SplineSet
136 400 m 1
 -43 400 l 1
 -66 499 l 1
 127 499 l 1
 107 730 l 1
 -73 730 l 1
 -95 829 l 1
 98 829 l 1
 66 1204 l 1
 180 1204 l 1
 212 829 l 1
 428 829 l 1
 396 1204 l 1
 510 1204 l 1
 542 829 l 1
 719 829 l 1
 741 730 l 1
 550 730 l 1
 571 499 l 1
 748 499 l 1
 771 400 l 1
 580 400 l 1
 614 0 l 1
 500 0 l 1
 466 400 l 1
 250 400 l 1
 284 0 l 1
 170 0 l 1
 136 400 l 1
220 730 m 1
 241 499 l 1
 457 499 l 1
 436 730 l 1
 220 730 l 1
EndSplineSet
Validated: 1
EndChar

StartChar: dollar
Encoding: 5 36 5
Width: 960
VWidth: 1755
GlyphClass: 2
Flags: W
HStem: -20 77<252.962 424 524 615.709> 1141 80<58.2804 155 256 411.314>
VStem: -116 116<862.61 1094.07> 404 217<874.216 1035.1> 700 123<126.377 377.391>
LayerCount: 2
Fore
SplineSet
106 410 m 0
 173 410 241 352 241 271 c 0
 241 238 224 215 184 188 c 0
 175 183 172 178 174 169 c 0
 186 115 298 57 424 57 c 1
 311 546 l 1
 211 574 154 594 103 621 c 0
 -6 679 -80 775 -106 889 c 0
 -113 917 -116 944 -116 970 c 0
 -116 1108 -20 1198 155 1221 c 1
 113 1405 l 1
 196 1405 l 1
 238 1223 l 1
 429 1223 584 1106 616 965 c 0
 620 950 621 937 621 925 c 0
 621 872 591 842 537 842 c 0
 470 842 404 891 404 969 c 0
 404 994 416 1012 449 1040 c 1
 453 1045 456 1053 455 1058 c 0
 446 1095 351 1144 256 1144 c 1
 356 710 l 1
 367 707 372 705 399 698 c 0
 538 659 610 628 676 576 c 1
 761 507 823 398 823 252 c 0
 823 88 717 -17 524 -17 c 1
 573 -228 l 1
 490 -228 l 1
 442 -20 l 1
 222 -20 52 104 16 260 c 0
 12 276 11 290 11 304 c 0
 11 367 47 410 106 410 c 0
267 737 m 1
 174 1141 l 1
 66 1141 0 1073 0 987 c 0
 0 974 3 960 7 946 c 0
 30 844 101 788 267 737 c 1
507 58 m 1
 622 71 700 135 700 244 c 0
 700 259 698 275 695 291 c 0
 673 386 598 458 478 500 c 0
 452 509 453 509 399 523 c 1
 507 58 l 1
EndSplineSet
Validated: 1
EndChar

StartChar: percent
Encoding: 6 37 6
Width: 1450
VWidth: 1755
GlyphClass: 2
Flags: W
HStem: 0 21G<318 412.851> 27 68<919.655 1091.33> 563 67<94.9445 269.07> 633 71<987.613 1137.04> 1057 65<424.238 649.842> 1223 20G<98 228>
VStem: -117 164<696.756 986.361> 386 66<779.935 1075.32> 708 163<158.751 451.385> 1212 65<245.662 545.99>
LayerCount: 2
Fore
SplineSet
-117 855 m 0
 -117 1041 3 1243 193 1243 c 0
 263 1243 313 1220 372 1160 c 1
 431 1130 465 1122 509 1122 c 0
 621 1122 711 1172 759 1267 c 1
 840 1267 l 1
 406 0 l 1
 318 0 l 1
 694 1107 l 1
 638 1068 598 1057 538 1057 c 0
 501 1057 471 1062 423 1077 c 1
 441 1025 452 989 452 926 c 0
 452 845 430 761 391 697 c 0
 335 606 264 563 165 563 c 0
 13 563 -117 682 -117 855 c 0
47 789 m 0
 47 697 99 630 177 630 c 0
 296 630 386 785 386 940 c 0
 386 996 374 1053 347 1102 c 1
 294 1119 264 1137 223 1174 c 1
 157 1149 139 1128 99 1011 c 0
 63 906 47 841 47 789 c 0
995 27 m 0
 832 27 708 147 708 326 c 0
 708 403 729 484 767 551 c 1
 825 650 909 704 1013 704 c 0
 1163 704 1277 580 1277 405 c 0
 1277 321 1254 229 1212 156 c 1
 1166 74 1086 27 995 27 c 0
871 250 m 0
 871 161 923 95 998 95 c 0
 1117 95 1212 241 1212 402 c 0
 1212 431 1209 461 1202 491 c 0
 1183 570 1120 633 1060 633 c 0
 1006 633 969 595 935 506 c 0
 891 391 871 312 871 250 c 0
EndSplineSet
Validated: 1
EndChar

StartChar: ampersand
Encoding: 7 38 7
Width: 1387
VWidth: 1755
GlyphClass: 2
Flags: W
HStem: -27 120<372.014 635.229> -20 139<934.327 1153.65> 633 76<649 815.963 1006.91 1125> 1218 75<231.31 404.295>
VStem: -29 169<330.821 562.525> 51 153<947.348 1199.84> 492 140<870.501 1136.95> 1183 82<149.649 286>
LayerCount: 2
Fore
SplineSet
848 499 m 0xb7
 848 600 796 633 666 633 c 2
 649 633 l 1
 631 709 l 1
 1125 709 l 1
 1143 633 l 1
 1125 633 l 2
 1068 633 1023 616 998 586 c 1
 975 554 976 554 927 395 c 1
 904 325 903 317 850 226 c 1
 937 151 1003 119 1068 119 c 0
 1141 119 1183 179 1183 280 c 0
 1183 285 1183 291 1183 296 c 1
 1262 286 l 1
 1262 265 1265 246 1265 228 c 0
 1265 186 1259 150 1243 114 c 0
 1202 21 1138 -20 1026 -20 c 0x77
 929 -20 853 13 749 99 c 1
 655 12 567 -27 441 -27 c 0
 324 -27 219 11 138 81 c 0
 61 148 0 246 -20 332 c 0
 -26 358 -29 383 -29 408 c 0xbb
 -29 534 49 643 194 722 c 1
 114 838 79 906 61 983 c 0
 54 1013 51 1042 51 1068 c 0
 51 1206 141 1293 295 1293 c 0
 458 1293 592 1198 625 1057 c 0
 630 1037 632 1017 632 998 c 0
 632 925 601 856 548 811 c 0
 510 779 483 764 397 722 c 1
 547 529 671 388 781 286 c 1
 824 354 848 433 848 499 c 0xb7
492 992 m 0
 492 1120 404 1218 308 1218 c 0
 244 1218 204 1171 204 1099 c 0
 204 1082 206 1064 211 1045 c 0
 226 980 269 900 344 795 c 1
 376 812 378 812 389 821 c 1
 458 864 492 921 492 992 c 0
245 650 m 1
 174 601 140 551 140 485 c 0
 140 467 143 448 147 427 c 0
 188 251 365 93 519 93 c 0xbb
 577 93 615 109 681 158 c 1
 491 332 414 422 245 650 c 1
EndSplineSet
Validated: 1
EndChar

StartChar: quotesingle
Encoding: 8 39 8
Width: 456
VWidth: 1755
GlyphClass: 2
Flags: W
HStem: 1093 208<-134.905 29.7319>
VStem: 33 85<922.41 1092.61>
LayerCount: 2
Fore
SplineSet
-73 1301 m 0
 32 1301 118 1197 118 1061 c 0
 118 1011 106 963 84 921 c 0
 67 888 44 866 -18 809 c 1
 -24 806 -35 795 -42 790 c 1
 -94 839 l 1
 -10 901 33 970 33 1039 c 0
 33 1057 31 1093 13 1093 c 2
 8 1093 l 1
 1 1091 -6 1093 -15 1093 c 0
 -96 1093 -167 1136 -167 1218 c 0
 -167 1267 -130 1301 -73 1301 c 0
EndSplineSet
Validated: 1
EndChar

StartChar: parenleft
Encoding: 9 40 9
Width: 551
VWidth: 1755
GlyphClass: 2
Flags: W
HStem: 1380 20G<147 196.444>
VStem: -85 161<649.03 1111.9>
LayerCount: 2
Fore
SplineSet
192 1400 m 1
 206 1337 l 1
 118 1240 76 1127 76 973 c 0
 76 881 91 775 120 649 c 0
 198 312 313 113 524 -41 c 1
 539 -106 l 1
 403 -32 332 21 246 105 c 1
 93 261 -15 449 -61 649 c 0
 -77 720 -85 790 -85 857 c 0
 -85 991 -53 1116 12 1221 c 0
 56 1291 102 1335 192 1400 c 1
EndSplineSet
Validated: 1
EndChar

StartChar: parenright
Encoding: 10 41 10
Width: 557
VWidth: 1755
GlyphClass: 2
Flags: W
HStem: 1380 20G<-280.455 -217.5>
VStem: 178 162<184.595 645.97>
LayerCount: 2
Fore
SplineSet
63 -109 m 1
 48 -44 l 1
 136 52 178 166 178 320 c 0
 178 413 163 520 134 646 c 0
 56 983 -58 1180 -270 1334 c 1
 -285 1400 l 1
 -150 1328 -78 1274 9 1188 c 1
 161 1034 269 846 315 646 c 0
 331 575 340 504 340 437 c 0
 340 302 307 178 242 74 c 1
 199 2 153 -44 63 -109 c 1
EndSplineSet
Validated: 1
EndChar

StartChar: asterisk
Encoding: 11 42 11
Width: 885
VWidth: 1755
GlyphClass: 2
Flags: W
HStem: 445 153<-13.1105 129.507 513.473 638.097> 747 152<-81.1429 43.8996 429.009 571.328>
VStem: 132 152<903 1034.12> 291 133<295.745 523.5>
LayerCount: 2
Fore
SplineSet
13 747 m 0
 -48 747 -99 787 -99 845 c 0
 -99 876 -75 899 -41 899 c 0
 -9 899 12 887 49 850 c 1
 110 785 137 763 189 736 c 1
 252 705 l 1
 238 768 l 2
 225 825 218 838 162 924 c 1
 143 951 132 965 132 991 c 0
 132 1024 157 1053 190 1053 c 0
 229 1053 284 1010 284 960 c 0
 284 948 266 863 266 831 c 0
 266 811 269 790 274 768 c 2
 288 705 l 1
 337 736 l 1
 377 764 394 785 425 850 c 1
 444 887 459 899 491 899 c 0
 538 899 584 863 584 810 c 0
 584 774 558 753 509 747 c 0
 431 738 406 731 363 703 c 1
 316 671 l 1
 377 640 l 1
 433 613 457 607 543 598 c 0
 605 591 656 559 656 499 c 0
 656 468 631 445 596 445 c 0
 564 445 543 457 507 494 c 1
 446 559 419 580 367 608 c 1
 303 640 l 1
 318 576 l 2
 331 519 341 502 396 418 c 1
 412 392 424 376 424 351 c 0
 424 318 398 288 367 288 c 0
 329 288 284 327 275 366 c 0
 272 378 271 397 276 418 c 0
 286 465 291 491 291 514 c 0
 291 533 288 550 282 576 c 2
 267 640 l 1
 219 608 l 1
 176 578 163 559 132 492 c 1
 112 457 96 445 64 445 c 0
 18 445 -26 483 -26 536 c 0
 -26 572 -2 592 47 598 c 0
 127 607 149 613 193 641 c 2
 240 671 l 1
 179 703 l 2
 124 731 93 747 13 747 c 0
EndSplineSet
Validated: 1
EndChar

StartChar: plus
Encoding: 12 43 12
Width: 1001
VWidth: 1755
GlyphClass: 2
Flags: W
HStem: 568 140<-73 268 440 780>
LayerCount: 2
Fore
SplineSet
268 708 m 1
 182 1080 l 1
 322 1080 l 1
 408 708 l 1
 780 708 l 1
 812 568 l 1
 440 568 l 1
 526 194 l 1
 386 194 l 1
 300 568 l 1
 -73 568 l 1
 -105 708 l 1
 268 708 l 1
EndSplineSet
Validated: 1
EndChar

StartChar: comma
Encoding: 13 44 13
Width: 466
VWidth: 1755
GlyphClass: 2
Flags: W
HStem: -20 209<108.621 273.697>
VStem: 274 85<-182.196 -19.6672>
LayerCount: 2
Fore
SplineSet
168 189 m 0
 271 189 359 86 359 -51 c 0
 359 -147 307 -234 200 -321 c 1
 148 -272 l 1
 232 -202 274 -131 274 -66 c 0
 274 -48 273 -17 255 -17 c 2
 249 -17 l 1
 246 -19 229 -20 222 -20 c 0
 146 -20 75 28 75 107 c 0
 75 155 112 189 168 189 c 0
EndSplineSet
Validated: 1
EndChar

StartChar: hyphen
Encoding: 14 45 14
Width: 674
VWidth: 1755
GlyphClass: 2
Flags: W
HStem: 556 146<-9 394>
VStem: -43 471
LayerCount: 2
Fore
SplineSet
-43 702 m 1
 394 702 l 1
 428 556 l 1
 -9 556 l 1
 -43 702 l 1
EndSplineSet
Validated: 1
EndChar

StartChar: period
Encoding: 15 46 15
Width: 427
VWidth: 1755
GlyphClass: 2
Flags: W
HStem: -25 220<112.128 258.676>
VStem: 72 226<15.0114 156.375>
LayerCount: 2
Fore
SplineSet
210 -25 m 0
 146 -25 72 33 72 110 c 0
 72 159 108 195 161 195 c 0
 226 195 298 137 298 60 c 0
 298 11 263 -25 210 -25 c 0
EndSplineSet
Validated: 1
EndChar

StartChar: slash
Encoding: 16 47 16
Width: 638
VWidth: 1755
GlyphClass: 2
Flags: W
VStem: 45 266
LayerCount: 2
Fore
SplineSet
209 1291 m 1
 311 1291 l 1
 147 -25 l 1
 45 -25 l 1
 209 1291 l 1
EndSplineSet
Validated: 1
EndChar

StartChar: zero
Encoding: 17 48 17
Width: 975
VWidth: 1755
GlyphClass: 2
Flags: W
HStem: -27 76<375.89 560.639> 1160 76<135.213 322.288>
VStem: -92 165<651.079 1058.28> 621 171<139.125 553.537>
LayerCount: 2
Fore
SplineSet
214 1236 m 0
 325 1236 451 1168 546 1057 c 0
 648 936 722 781 765 595 c 0
 783 514 792 438 792 370 c 0
 792 129 682 -27 490 -27 c 0
 253 -27 19 238 -65 600 c 0
 -83 680 -92 756 -92 825 c 0
 -92 1072 21 1236 214 1236 c 0
477 49 m 0
 563 49 621 140 621 257 c 0
 621 334 603 444 560 626 c 0
 505 867 466 970 400 1051 c 1
 342 1121 276 1160 218 1160 c 0
 129 1160 73 1065 73 944 c 0
 73 874 88 780 121 637 c 0
 187 351 228 240 296 158 c 0
 354 88 419 49 477 49 c 0
EndSplineSet
Validated: 1
EndChar

StartChar: one
Encoding: 18 49 18
Width: 975
VWidth: 1755
GlyphClass: 2
Flags: W
HStem: 0 82<176 413.905 603.861 852> 1030 75<-55 141.598> 1216 20G<258 352.5>
LayerCount: 2
Fore
SplineSet
280 1236 m 1
 343 1236 l 1
 362 1112 379 1027 399 941 c 2
 566 216 l 2
 589 119 589 119 603 107 c 1
 621 90 662 82 755 82 c 2
 852 82 l 1
 871 0 l 1
 176 0 l 1
 157 82 l 1
 271 82 l 2
 382 82 414 88 414 126 c 0
 414 137 412 149 408 165 c 0
 350 416 292 668 234 919 c 0
 210 1023 201 1030 99 1030 c 2
 -55 1030 l 1
 -72 1105 l 1
 88 1105 236 1164 280 1236 c 1
EndSplineSet
Validated: 1
EndChar

StartChar: two
Encoding: 19 50 19
Width: 975
VWidth: 1755
GlyphClass: 2
Flags: W
HStem: 0 165<215 720.165> 720 206<-15.736 121.82> 1160 76<48.7541 323.897>
VStem: -128 107<958.967 1103.11> 478 205<652.384 982.556> 722 77<278.383 379>
LayerCount: 2
Fore
SplineSet
64 720 m 0
 -34 720 -128 831 -128 972 c 0
 -128 1125 3 1236 199 1236 c 0
 427 1236 627 1091 673 893 c 0
 679 864 683 837 683 809 c 0
 683 756 670 704 644 653 c 1
 616 601 561 539 430 416 c 0
 338 329 307 291 215 165 c 1
 608 165 l 2
 708 165 725 176 725 264 c 0
 725 272 722 281 722 290 c 2
 722 379 l 1
 799 379 l 1
 853 0 l 1
 62 0 l 1
 51 49 l 1
 104 151 126 191 172 265 c 1
 232 351 292 437 354 521 c 1
 439 640 478 737 478 835 c 0
 478 1032 349 1160 181 1160 c 0
 74 1160 -21 1104 -21 999 c 0
 -21 992 -20 985 -19 979 c 0
 -14 956 -9 954 62 926 c 1
 110 909 150 860 150 799 c 0
 150 751 119 720 64 720 c 0
EndSplineSet
Validated: 1
EndChar

StartChar: three
Encoding: 20 51 20
Width: 975
VWidth: 1755
GlyphClass: 2
Flags: W
HStem: -27 76<256.844 549.818> 598 90<150.983 426.506> 1160 76<59.7897 324.324>
VStem: -106 124<958 1124.34> 8 235<206.911 375.766> 456 178<731.099 1018.76> 615 193<102.618 424.671>
LayerCount: 2
Fore
SplineSet
217 598 m 0xea
 178 598 150 615 150 655 c 0
 150 677 166 688 197 688 c 0
 226 688 284 683 307 683 c 0
 405 683 456 734 456 834 c 0
 456 862 451 895 443 931 c 0
 409 1080 323 1160 197 1160 c 0
 104 1160 18 1113 18 1066 c 0
 18 1048 26 1041 49 1027 c 0
 102 995 127 967 127 908 c 0
 127 861 97 832 45 832 c 0
 -39 832 -106 907 -106 1009 c 0
 -106 1141 14 1236 197 1236 c 0
 415 1236 583 1117 625 934 c 0
 631 910 634 887 634 866 c 0xf4
 634 774 586 701 496 660 c 0
 485 655 482 655 459 646 c 1
 652 595 760 495 798 330 c 0
 805 300 808 272 808 245 c 0
 808 78 678 -27 460 -27 c 0
 235 -27 53 90 14 261 c 0
 10 279 8 295 8 310 c 0
 8 374 42 416 102 416 c 0
 172 416 243 358 243 277 c 0
 243 248 229 225 196 202 c 1
 166 182 163 178 166 163 c 0
 179 109 312 49 423 49 c 0
 548 49 615 115 615 235 c 0
 615 265 611 297 603 333 c 0
 560 518 454 604 307 604 c 0
 284 604 232 598 217 598 c 0xea
EndSplineSet
Validated: 1
EndChar

StartChar: four
Encoding: 21 52 21
Width: 975
VWidth: 1755
GlyphClass: 2
Flags: W
HStem: 0 82<365 509.905 687.841 859> 307 98<62 448 641 831> 1216 20G<351.229 447.5>
LayerCount: 2
Fore
SplineSet
361 1236 m 1
 437 1236 l 1
 458 1104 457 1105 507 886 c 2
 618 405 l 1
 831 405 l 1
 854 307 l 1
 641 307 l 1
 652 260 663 212 674 165 c 0
 691 91 710 82 852 82 c 2
 859 82 l 1
 878 0 l 1
 365 0 l 1
 346 82 l 1
 366 82 l 2
 478 82 510 88 510 126 c 0
 510 137 508 149 504 165 c 0
 493 212 482 260 471 307 c 1
 -22 307 l 1
 -45 405 l 1
 361 1236 l 1
448 405 m 1
 326 937 l 1
 62 405 l 1
 448 405 l 1
EndSplineSet
Validated: 1
EndChar

StartChar: five
Encoding: 22 53 22
Width: 975
VWidth: 1755
GlyphClass: 2
Flags: W
HStem: -27 76<256.808 553.002> 704 88<126.908 421.402> 1008 175<52.0127 460.794> 1216 20G<-60.5 23>
VStem: -25 128<540.436 640.439> 14 237<200.632 369.875> 618 186<116.159 469.175>
LayerCount: 2
Fore
SplineSet
48 534 m 0xfa
 10 534 -25 566 -25 612 c 0xfa
 -25 632 -16 653 5 683 c 1
 -20 901 -47 1089 -74 1236 c 1
 120 1192 187 1183 299 1183 c 0
 399 1183 445 1192 522 1229 c 1
 530 1234 539 1236 544 1236 c 0
 558 1236 562 1226 562 1213 c 0
 562 1197 556 1175 549 1157 c 0
 513 1060 416 1008 267 1008 c 0
 198 1008 149 1014 49 1037 c 1
 87 739 l 1
 175 779 227 792 301 792 c 0
 538 792 735 632 790 393 c 0
 800 353 804 315 804 280 c 0
 804 88 671 -27 438 -27 c 0
 347 -27 271 -7 202 32 c 1
 110 86 39 174 19 261 c 0
 16 274 14 287 14 300 c 0
 14 363 53 409 112 409 c 0
 181 409 251 351 251 270 c 0xf6
 251 241 236 221 201 196 c 0
 183 184 175 170 178 158 c 0
 190 104 312 49 417 49 c 0
 557 49 618 113 618 251 c 0
 618 291 613 335 602 382 c 0
 556 582 432 704 276 704 c 0
 206 704 153 685 101 641 c 1
 103 629 103 619 103 609 c 0
 103 560 84 534 48 534 c 0xfa
EndSplineSet
Validated: 1
EndChar

StartChar: six
Encoding: 23 54 23
Width: 975
VWidth: 1755
GlyphClass: 2
Flags: W
HStem: -27 76<376.733 593.242> 648 107<237.453 494.236> 899 21G<517 578> 1160 76<202.421 425.948>
VStem: -77 177<600.103 1019.61> 417 227<932.005 1104.53> 644 182<119.363 462.833>
LayerCount: 2
Fore
SplineSet
320 1160 m 0xfc
 176 1160 100 1034 100 864 c 0
 100 806 110 731 130 596 c 1
 187 707 265 755 384 755 c 0
 582 755 767 600 815 393 c 0
 823 361 826 329 826 297 c 0xfa
 826 100 701 -27 508 -27 c 0
 248 -27 28 199 -51 541 c 0
 -69 617 -77 693 -77 764 c 0
 -77 871 -58 969 -19 1050 c 1
 38 1167 157 1236 301 1236 c 0
 466 1236 609 1146 637 1025 c 0
 640 1013 644 1001 644 991 c 0
 644 935 606 899 550 899 c 0
 484 899 417 950 417 1026 c 0
 417 1043 421 1062 428 1085 c 1
 430 1092 431 1098 431 1103 c 0
 431 1143 379 1160 320 1160 c 0xfc
361 648 m 0
 249 648 186 578 186 458 c 0
 186 343 226 251 282 177 c 1
 344 93 416 49 495 49 c 0
 592 49 644 122 644 245 c 0
 644 285 639 330 627 380 c 0
 589 547 487 648 361 648 c 0
EndSplineSet
Validated: 1
EndChar

StartChar: seven
Encoding: 24 55 24
Width: 975
VWidth: 1755
GlyphClass: 2
Flags: W
HStem: 1058 158<5.96875 505> 1070 166<1.42946 330.035>
VStem: -83 80<811 949.473> 323 236<31.7443 308.356>
LayerCount: 2
Fore
SplineSet
397 1058 m 0xb0
 316 1058 163 1070 55 1070 c 0
 4 1070 -3 1053 -3 937 c 2
 -3 799 l 1
 -83 811 l 1
 -127 1236 l 1x70
 66 1236 188 1216 337 1216 c 0
 444 1216 500 1229 607 1229 c 1
 619 1177 l 1
 615 1154 613 1138 612 1135 c 2
 571 971 l 1
 520 744 496 604 496 482 c 0
 496 377 522 267 545 171 c 0
 554 129 559 94 559 66 c 0
 559 2 532 -25 475 -25 c 0
 406 -25 352 26 334 105 c 0
 327 136 323 173 323 215 c 0
 323 275 330 345 343 422 c 1
 362 529 369 558 441 819 c 1
 505 1058 l 1
 489 1058 475 1058 462 1058 c 0
 435 1058 414 1058 397 1058 c 0xb0
EndSplineSet
Validated: 1
EndChar

StartChar: eight
Encoding: 25 56 25
Width: 975
VWidth: 1755
GlyphClass: 2
Flags: W
HStem: -27 76<303.184 621.601> 1160 76<89.4516 369.24>
VStem: -87 122<888.019 1115.72> -4 144<203.152 498.393> 509 127<766.886 1034.38> 702 127<116.148 370.54>
LayerCount: 2
Fore
SplineSet
-4 364 m 0xdc
 -4 499 76 556 189 604 c 1
 118 637 85 657 47 692 c 1
 -14 746 -61 826 -78 901 c 0
 -84 927 -87 953 -87 977 c 0xec
 -87 1130 30 1236 215 1236 c 0
 417 1236 591 1117 628 956 c 0
 633 934 636 913 636 893 c 0
 636 810 591 743 498 685 c 1
 572 655 608 636 650 606 c 0
 737 543 796 453 820 353 c 0
 826 324 829 295 829 267 c 0
 829 66 687 -27 475 -27 c 0
 363 -27 262 0 182 49 c 1
 95 106 26 200 4 295 c 0
 -2 318 -4 341 -4 364 c 0xdc
295 753 m 2
 420 710 l 1
 482 774 509 825 509 886 c 0
 509 905 507 925 502 946 c 0
 472 1075 362 1160 227 1160 c 0
 107 1160 35 1103 35 1016 c 0
 35 1003 37 989 40 974 c 0
 64 872 141 805 295 753 c 2
453 511 m 2
 278 569 l 1
 182 520 140 461 140 376 c 0xdc
 140 351 143 324 150 295 c 0
 185 141 303 49 466 49 c 0
 614 49 702 116 702 225 c 0
 702 242 700 260 696 279 c 0
 669 395 598 464 453 511 c 2
EndSplineSet
Validated: 1
EndChar

StartChar: nine
Encoding: 26 57 26
Width: 975
VWidth: 1755
GlyphClass: 2
Flags: W
HStem: -27 76<272.045 496.723> 449 105<208.591 461.535> 1160 76<104.775 326.034>
VStem: -131 182<746.847 1087.66> 55 225<96.1875 267.723> 593 183<191.633 604.522>
LayerCount: 2
Fore
SplineSet
149 303 m 0
 211 303 280 249 280 176 c 0
 280 166 266 124 266 101 c 0
 266 98 266 95 267 93 c 0
 273 66 317 49 375 49 c 0
 492 49 572 125 587 255 c 0
 591 286 593 312 593 342 c 0
 593 399 586 469 568 609 c 1
 501 490 436 449 312 449 c 0
 112 449 -70 603 -118 812 c 0
 -127 848 -131 883 -131 916 c 0
 -131 1101 -6 1236 185 1236 c 0
 446 1236 668 1009 750 656 c 0
 767 580 776 507 776 437 c 0
 776 341 759 252 726 176 c 0
 670 46 550 -27 391 -27 c 0
 230 -27 86 61 59 177 c 0
 57 188 55 198 55 208 c 0
 55 263 92 303 149 303 c 0
341 554 m 0
 440 554 514 619 514 729 c 0
 514 760 509 796 500 834 c 0
 455 1030 339 1160 209 1160 c 0
 132 1160 92 1132 68 1063 c 1
 57 1036 51 1000 51 961 c 0
 51 924 56 884 65 844 c 0
 108 658 207 554 341 554 c 0
EndSplineSet
Validated: 1
EndChar

StartChar: colon
Encoding: 27 58 27
Width: 487
VWidth: 1755
GlyphClass: 2
Flags: W
HStem: -25 220<168.128 313.676> 611 219<21.1276 167.026>
VStem: -19 225<651.011 791.875> 128 225<15.0114 156.375>
LayerCount: 2
Fore
SplineSet
266 -25 m 0xd0
 202 -25 128 33 128 111 c 0
 128 159 163 195 216 195 c 0
 281 195 353 137 353 60 c 0
 353 11 319 -25 266 -25 c 0xd0
119 611 m 0
 55 611 -19 669 -19 747 c 0
 -19 795 16 830 69 830 c 0
 135 830 206 773 206 696 c 0xe0
 206 647 172 611 119 611 c 0
EndSplineSet
Validated: 1
EndChar

StartChar: semicolon
Encoding: 28 59 28
Width: 487
VWidth: 1755
GlyphClass: 2
Flags: W
HStem: -20 209<150.005 310.699> 609 220<23.2212 169.676>
VStem: -16 225<647.75 790.375> 314 87<-183.85 -19.1993>
LayerCount: 2
Fore
SplineSet
209 189 m 0
 311 189 401 87 401 -50 c 0
 401 -146 349 -233 241 -321 c 1
 189 -272 l 1
 272 -202 314 -131 314 -66 c 0
 314 -48 313 -17 295 -17 c 2
 290 -17 l 1
 287 -19 270 -20 263 -20 c 0
 187 -20 117 28 117 108 c 0
 117 155 153 189 209 189 c 0
120 609 m 0
 56 609 -16 667 -16 745 c 0
 -16 793 18 829 72 829 c 0
 137 829 209 771 209 694 c 0
 209 645 174 609 120 609 c 0
EndSplineSet
Validated: 1
EndChar

StartChar: less
Encoding: 29 60 29
Width: 1063
VWidth: 1755
GlyphClass: 2
Flags: W
LayerCount: 2
Fore
SplineSet
801 769 m 1
 178 444 l 1
 952 119 l 1
 986 -30 l 1
 0 377 l 1
 -32 511 l 1
 767 918 l 1
 801 769 l 1
EndSplineSet
Validated: 1
EndChar

StartChar: equal
Encoding: 30 61 30
Width: 1063
VWidth: 1755
GlyphClass: 2
Flags: W
HStem: 196 141<44 896> 551 141<-38 814>
LayerCount: 2
Fore
SplineSet
44 196 m 1
 11 337 l 1
 896 337 l 1
 929 196 l 1
 44 196 l 1
-38 551 m 1
 -71 692 l 1
 814 692 l 1
 847 551 l 1
 -38 551 l 1
EndSplineSet
Validated: 1
EndChar

StartChar: greater
Encoding: 31 62 31
Width: 1063
VWidth: 1755
GlyphClass: 2
Flags: W
LayerCount: 2
Fore
SplineSet
-94 769 m 1
 -128 918 l 1
 860 511 l 1
 891 377 l 1
 91 -30 l 1
 57 119 l 1
 679 444 l 1
 -94 769 l 1
EndSplineSet
Validated: 1
EndChar

StartChar: question
Encoding: 32 63 32
Width: 778
VWidth: 1755
GlyphClass: 2
Flags: W
HStem: -27 220<245.688 391.573> 897 21G<-88.5 -24.5> 1213 78<-58.8427 188.043>
VStem: -200 118<1031.31 1190.59> 194 85<335.609 602.907> 206 225<11.75 154.375> 212 86<335 480.402> 316 189<775.441 1075.43>
LayerCount: 2
Fore
SplineSet
-49 897 m 0xf9
 -128 897 -200 980 -200 1083 c 0
 -200 1207 -87 1291 88 1291 c 0
 288 1291 452 1169 494 986 c 0
 501 957 505 932 505 908 c 0
 505 830 465 768 361 651 c 1
 304 589 279 548 279 482 c 0xf9
 279 448 286 408 298 356 c 0
 299 349 301 342 303 335 c 1
 226 335 l 1
 212 392 l 2xf2
 199 449 194 489 194 525 c 0
 194 540 195 554 197 569 c 0
 205 631 206 630 295 807 c 1
 309 838 316 875 316 916 c 0
 316 1094 204 1213 60 1213 c 0
 -18 1213 -82 1176 -82 1134 c 0
 -82 1111 -78 1109 -44 1087 c 1
 -0 1056 31 1023 31 971 c 0
 31 928 -0 897 -49 897 c 0xf9
343 -27 m 0
 279 -27 206 31 206 109 c 0
 206 157 240 193 293 193 c 0
 359 193 431 135 431 58 c 0xf4
 431 9 396 -27 343 -27 c 0
EndSplineSet
Validated: 1
EndChar

StartChar: at
Encoding: 33 64 33
Width: 1293
VWidth: 1755
GlyphClass: 2
Flags: W
HStem: -25 90<466.844 870.274> 268 70<406.889 537.348 768.725 889.492> 881 72<413.095 545.989> 1202 89<217.537 612.805>
VStem: -90 99<557.034 993.35> 175 171<436.364 807.411> 602 163<406.218 832.801> 611 154<337.094 407 839 937> 985 90<442.729 841.516>
LayerCount: 2
Fore
SplineSet
777 258 m 0xfe80
 693 258 622 320 622 407 c 1
 577 305 536 268 466 268 c 0
 408 268 338 301 287 348 c 0
 220 408 175 505 175 626 c 0
 175 700 194 770 231 827 c 1
 283 902 365 953 442 953 c 0
 509 953 574 911 611 839 c 1
 611 937 l 1
 765 937 l 1xfd80
 765 430 l 1
 765 377 765 335 814 335 c 0
 859 335 913 382 948 456 c 0
 972 508 985 574 985 641 c 0
 985 679 981 717 972 752 c 0
 945 871 861 995 750 1081 c 1
 648 1162 537 1202 414 1202 c 0
 164 1202 9 1035 9 788 c 0
 9 740 15 688 28 633 c 0
 105 301 378 65 685 65 c 0
 859 65 983 156 1042 330 c 1
 1149 330 l 1
 1134 253 1095 185 1036 116 c 1
 953 25 833 -25 692 -25 c 0
 347 -25 16 257 -69 625 c 0
 -83 686 -90 745 -90 802 c 0
 -90 921 -60 1027 -0 1109 c 0
 85 1223 229 1291 385 1291 c 0
 690 1291 993 1055 1061 764 c 0
 1070 723 1075 682 1075 641 c 0
 1075 527 1037 421 966 348 c 0
 910 290 842 258 777 258 c 0xfe80
602 632 m 0xfe80
 602 748 569 881 483 881 c 0
 443 881 409 854 390 807 c 0
 361 740 346 658 346 581 c 0
 346 464 392 338 473 338 c 0
 565 338 602 503 602 632 c 0xfe80
EndSplineSet
Validated: 1
EndChar

StartChar: bracketleft
Encoding: 60 91 34
Width: 583
VWidth: 1755
GlyphClass: 2
Flags: W
HStem: -106 63<283 531> 1285 65<-24 209>
LayerCount: 2
Fore
SplineSet
283 -43 m 1
 531 -43 l 1
 545 -106 l 1
 140 -106 l 1
 -196 1350 l 1
 209 1350 l 1
 224 1285 l 1
 -24 1285 l 1
 283 -43 l 1
EndSplineSet
Validated: 1
EndChar

StartChar: backslash
Encoding: 61 92 35
Width: 1063
VWidth: 1755
GlyphClass: 2
Flags: W
HStem: 0 21G<816.517 934>
LayerCount: 2
Fore
SplineSet
-68 1293 m 1
 934 0 l 1
 832 0 l 1
 -169 1293 l 1
 -68 1293 l 1
EndSplineSet
Validated: 1
EndChar

StartChar: bracketright
Encoding: 62 93 36
Width: 583
VWidth: 1755
GlyphClass: 2
Flags: W
HStem: -106 65<87 317> 1287 63<-234 11>
LayerCount: 2
Fore
SplineSet
11 1287 m 1
 -234 1287 l 1
 -249 1350 l 1
 155 1350 l 1
 491 -106 l 1
 87 -106 l 1
 72 -41 l 1
 317 -41 l 1
 11 1287 l 1
EndSplineSet
Validated: 1
EndChar

StartChar: asciicircum
Encoding: 63 94 37
Width: 1063
VWidth: 1755
GlyphClass: 2
Flags: W
LayerCount: 2
Fore
SplineSet
844 558 m 1
 690 558 l 1
 279 1104 l 1
 115 558 l 1
 -38 558 l 1
 165 1267 l 1
 315 1267 l 1
 844 558 l 1
EndSplineSet
Validated: 1
EndChar

StartChar: dotnosp
Encoding: 96 775 38
Width: 0
GlyphClass: 4
Flags: W
HStem: 1275 208<-379.064 -258.672>
VStem: -411 186<1306.57 1451.01>
AnchorPoint: "m2b-1" -1.52441 0 mark 0
LayerCount: 2
Fore
SplineSet
-342 1483 m 256
 -281 1483 -225 1420 -225 1344 c 0
 -225 1302 -247 1275 -294 1275 c 256
 -349 1275 -411 1332 -411 1408 c 0
 -411 1453 -383 1483 -342 1483 c 256
EndSplineSet
Validated: 1
Position2: "'position' High Marks moved up above Rafe-1" dx=0 dy=200 dh=0 dv=0
EndChar

StartChar: dieresisnosp
Encoding: 97 776 39
Width: 0
GlyphClass: 4
Flags: W
HStem: 1265 205<-520.451 -402.899 -228.451 -110.899>
VStem: -551 179<1294.36 1439.65> -259 179<1294.36 1439.65>
AnchorPoint: "m2b-1" 1 0 mark 0
LayerCount: 2
Fore
SplineSet
-485 1470 m 256
 -427 1470 -372 1410 -372 1339 c 0
 -372 1294 -398 1265 -438 1265 c 256
 -497 1265 -551 1326 -551 1397 c 0
 -551 1441 -525 1470 -485 1470 c 256
-193 1470 m 256
 -135 1470 -80 1410 -80 1339 c 0
 -80 1294 -106 1265 -146 1265 c 256
 -205 1265 -259 1326 -259 1397 c 0
 -259 1441 -233 1470 -193 1470 c 256
EndSplineSet
Validated: 1
Position2: "'position' High Marks moved up above Rafe-1" dx=0 dy=220 dh=0 dv=0
EndChar

StartChar: ringnosp
Encoding: 98 778 40
Width: 0
GlyphClass: 4
Flags: W
HStem: 1275 63<-384.078 -247.667> 1561 64<-422.788 -282.505>
VStem: -492 58<1394.26 1547.31> -236 58<1351.4 1506.57>
AnchorPoint: "m2b-1" -0.5 0 mark 0
LayerCount: 2
Fore
SplineSet
-375 1625 m 256
 -279 1625 -178 1530 -178 1403 c 0
 -178 1330 -220 1275 -294 1275 c 0
 -400 1275 -492 1380 -492 1500 c 0
 -492 1571 -452 1625 -375 1625 c 256
-236 1417 m 0
 -236 1493 -289 1561 -360 1561 c 256
 -412 1561 -434 1527 -434 1484 c 0
 -434 1410 -382 1338 -309 1338 c 256
 -257 1338 -236 1374 -236 1417 c 0
EndSplineSet
Validated: 1
Position2: "'position' High Marks moved up above Rafe-1" dx=0 dy=220 dh=0 dv=0
EndChar

StartChar: atnah
Encoding: 100 1425 42
Width: 0
GlyphClass: 4
Flags: W
HStem: -274 148<24 80.3056>
VStem: -102 96<-425.203 -404>
AnchorPoint: "m2b-mback" 0 0 mark 0
AnchorPoint: "m2m-4" 192.204 -0.0517578 mark 0
AnchorPoint: "m2m-4" -271.808 0 basemark 0
AnchorPoint: "m2m-3" -271.808 0 basemark 0
AnchorPoint: "m2m-1" 192.204 -0.0517578 mark 0
AnchorPoint: "m2b-5a" 0.192383 0 mark 0
LayerCount: 2
Fore
SplineSet
283 -394 m 0
 283 -403 243 -437 232 -437 c 0
 224 -437 216 -428 197 -409 c 2
 102 -307 l 2
 81 -285 71 -274 63 -274 c 0
 55 -274 50 -285 40 -307 c 2
 -6 -404 l 2
 -16 -426 -23 -435 -33 -435 c 0
 -42 -435 -52 -429 -71 -417 c 0
 -93 -403 -102 -398 -102 -388 c 0
 -102 -382 -98 -373 -91 -359 c 2
 0 -169 l 2
 13 -140 19 -126 29 -126 c 0
 39 -126 53 -141 80 -170 c 2
 257 -359 l 2
 274 -377 283 -386 283 -394 c 0
EndSplineSet
Validated: 1
MultipleSubs2: "AddHairspaceAfterMark-0 subtable" atnah hairspace
MultipleSubs2: "AddHairspaceAfterMark subtable" atnah hairspace
MultipleSubs2: "AddThinspaceAfterMark subtable" atnah thinspace
Position2: "'position' Move Low Accent to Right-1" dx=200 dy=0 dh=0 dv=0
EndChar

StartChar: segolta
Encoding: 101 1426 43
Width: 0
GlyphClass: 4
Flags: W
HStem: 1276 157<-478.377 -372.131 -253.019 -146.961> 1510 157<-420.869 -313.131>
VStem: -495 139<1289.99 1418.43> -437 140<1524.57 1652.2> -269 139<1289.87 1418.16>
AnchorPoint: "m2m-8" 180 0 mark 0
AnchorPoint: "m2m-7" 180 0 mark 0
AnchorPoint: "m2m-rafe" 350 0 mark 0
AnchorPoint: "m2b-8b" -0.232422 0 mark 0
LayerCount: 2
Fore
SplineSet
-444 1433 m 256xe8
 -399 1433 -356 1388 -356 1332 c 0
 -356 1297 -377 1276 -408 1276 c 256
 -454 1276 -495 1322 -495 1378 c 0
 -495 1412 -475 1433 -444 1433 c 256xe8
-385 1667 m 256
 -339 1667 -297 1621 -297 1566 c 0
 -297 1531 -318 1510 -349 1510 c 256
 -394 1510 -437 1555 -437 1611 c 0xd8
 -437 1646 -416 1667 -385 1667 c 256
-218 1433 m 256
 -172 1433 -130 1387 -130 1331 c 0
 -130 1297 -150 1276 -182 1276 c 256
 -227 1276 -269 1322 -269 1377 c 0
 -269 1412 -248 1433 -218 1433 c 256
EndSplineSet
Validated: 1
MultipleSubs2: "AddHairspaceAfterMark-0 subtable" segolta hairspace
MultipleSubs2: "AddHairspaceAfterMark subtable" segolta hairspace
MultipleSubs2: "AddThinspaceAfterMark subtable" segolta thinspace
Substitution2: "UpperMarksChanges subtable" segolta_on_right
Position2: "'position' High Marks moved up above Rafe-1" dx=0 dy=220 dh=0 dv=0
EndChar

StartChar: shalshelet
Encoding: 102 1427 44
Width: 0
GlyphClass: 4
Flags: W
HStem: 1273 431
VStem: -481 274
AnchorPoint: "m2m-7" -188 0 basemark 0
AnchorPoint: "m2m-7" 108 0 mark 0
AnchorPoint: "m2m-rafe" 0 0 mark 0
AnchorPoint: "m2m-7n" 108 0 mark 0
AnchorPoint: "m2b-9" -0.5 0 mark 0
AnchorPoint: "m2b-8a" -0.5 0 mark 0
LayerCount: 2
Fore
SplineSet
-249 1530 m 1
 -358 1447 l 1
 -207 1363 l 1
 -320 1273 l 1
 -402 1273 l 1
 -289 1363 l 1
 -442 1447 l 1
 -331 1530 l 1
 -481 1614 l 1
 -369 1704 l 1
 -289 1704 l 1
 -401 1614 l 1
 -249 1530 l 1
EndSplineSet
Validated: 1
MultipleSubs2: "AddHairspaceAfterMark-0 subtable" shalshelet hairspace
MultipleSubs2: "AddHairspaceAfterMark subtable" shalshelet hairspace
MultipleSubs2: "AddThinspaceAfterMark subtable" shalshelet thinspace
Position2: "'position' High Marks moved up above Rafe-1" dx=0 dy=220 dh=0 dv=0
EndChar

StartChar: zaqefqatan
Encoding: 103 1428 45
Width: 0
GlyphClass: 4
Flags: W
HStem: 1275 157<-366.019 -258.981> 1518 158<-422.285 -314.981>
VStem: -438 139<1532.61 1661.39> -382 139<1289.57 1417.2>
AnchorPoint: "m2m-7" -147 0 basemark 0
AnchorPoint: "m2m-7" 67 0 mark 0
AnchorPoint: "m2m-rafe" 0 0 mark 0
AnchorPoint: "m2m-7n" 67 0 mark 0
AnchorPoint: "m2b-9" 0.0195312 0 mark 0
AnchorPoint: "m2b-8a" 0.0195312 0 mark 0
LayerCount: 2
Fore
SplineSet
-331 1432 m 256xd0
 -285 1432 -243 1386 -243 1331 c 0
 -243 1296 -264 1275 -294 1275 c 256
 -340 1275 -382 1320 -382 1376 c 0
 -382 1411 -361 1432 -331 1432 c 256xd0
-387 1676 m 256
 -341 1676 -299 1631 -299 1574 c 0
 -299 1540 -320 1518 -350 1518 c 256
 -396 1518 -438 1563 -438 1620 c 0xe0
 -438 1654 -418 1676 -387 1676 c 256
EndSplineSet
Validated: 1
MultipleSubs2: "AddHairspaceAfterMark-0 subtable" zaqefqatan hairspace
MultipleSubs2: "AddHairspaceAfterMark subtable" zaqefqatan hairspace
MultipleSubs2: "AddThinspaceAfterMark subtable" zaqefqatan thinspace
Position2: "'position' High Marks moved up above Rafe-1" dx=0 dy=286 dh=0 dv=0
EndChar

StartChar: zaqefgadol
Encoding: 104 1429 46
Width: 0
GlyphClass: 4
Flags: W
HStem: 1276 157<-299.549 -191.981> 1519 158<-354.7 -247.981>
VStem: -372 140<1533.84 1663.01> -315 139<1289.99 1419.01>
AnchorPoint: "m2m-7" -214 0 basemark 0
AnchorPoint: "m2m-7" 134 0 mark 0
AnchorPoint: "m2m-rafe" 0 0 mark 0
AnchorPoint: "m2m-7n" 134 0 mark 0
AnchorPoint: "m2b-9" -72.7188 0 mark 0
AnchorPoint: "m2b-8a" 0 0 mark 0
LayerCount: 2
Fore
SplineSet
-263 1433 m 256xd0
 -218 1433 -176 1387 -176 1332 c 0
 -176 1297 -197 1276 -227 1276 c 256
 -274 1276 -315 1321 -315 1377 c 0
 -315 1412 -294 1433 -263 1433 c 256xd0
-319 1677 m 256
 -274 1677 -232 1631 -232 1576 c 0
 -232 1541 -253 1519 -283 1519 c 256
 -329 1519 -372 1565 -372 1621 c 0xe0
 -372 1656 -351 1677 -319 1677 c 256
-364 1290 m 1
 -432 1290 l 1
 -520 1672 l 1
 -452 1672 l 1
 -364 1290 l 1
EndSplineSet
Validated: 1
MultipleSubs2: "AddHairspaceAfterMark-0 subtable" zaqefgadol hairspace
MultipleSubs2: "AddHairspaceAfterMark subtable" zaqefgadol hairspace
MultipleSubs2: "AddThinspaceAfterMark subtable" zaqefgadol thinspace
Position2: "'position' High Marks moved up above Rafe-1" dx=0 dy=286 dh=0 dv=0
EndChar

StartChar: tipeha
Encoding: 105 1430 47
Width: 0
GlyphClass: 4
Flags: W
HStem: -519 375
VStem: -75 298
AnchorPoint: "m2b-mback" -52.208 0.900391 mark 0
AnchorPoint: "m2m-4" -197 0 basemark 0
AnchorPoint: "m2m-4" 112 0 mark 0
AnchorPoint: "m2m-3" -197 0 basemark 0
AnchorPoint: "m2m-1" 112 0 mark 0
AnchorPoint: "m2b-5a" -51.5 0 mark 0
LayerCount: 2
Fore
SplineSet
-75 -178 m 0
 -75 -167 -33 -144 -20 -144 c 0
 -10 -144 -3 -153 14 -177 c 2
 202 -446 l 2
 214 -463 223 -474 223 -483 c 0
 223 -498 174 -519 168 -519 c 0
 157 -519 149 -508 130 -479 c 2
 -55 -215 l 2
 -68 -196 -75 -185 -75 -178 c 0
EndSplineSet
Validated: 1
MultipleSubs2: "AddHairspaceAfterMark-0 subtable" tipeha hairspace
MultipleSubs2: "AddHairspaceAfterMark subtable" tipeha hairspace
MultipleSubs2: "AddThinspaceAfterMark subtable" tipeha thinspace
Position2: "'position' Move Low Accent to Right-1" dx=200 dy=0 dh=0 dv=0
EndChar

StartChar: revia
Encoding: 106 1431 48
Width: 0
GlyphClass: 4
Flags: W
HStem: 1275 276
VStem: -426 201
AnchorPoint: "m2m-7" -180 0 basemark 0
AnchorPoint: "m2m-7" 100 0 mark 0
AnchorPoint: "m2m-7n" 100 0 mark 0
AnchorPoint: "m2b-9" 4.5 0 mark 0
AnchorPoint: "m2b-8a" 0 0 mark 0
LayerCount: 2
Fore
SplineSet
-362 1551 m 1
 -225 1409 l 1
 -290 1275 l 1
 -426 1411 l 1
 -362 1551 l 1
EndSplineSet
Validated: 1
MultipleSubs2: "AddHairspaceAfterMark-0 subtable" revia hairspace
MultipleSubs2: "AddHairspaceAfterMark subtable" revia hairspace
MultipleSubs2: "AddThinspaceAfterMark subtable" revia thinspace
Position2: "'position' High Marks moved up above Rafe-1" dx=0 dy=260 dh=0 dv=0
EndChar

StartChar: zarqa
Encoding: 107 1432 49
Width: 0
GlyphClass: 4
Flags: W
HStem: 1532 88<-413.203 -267.015>
VStem: -506 91<1451 1527.3>
AnchorPoint: "m2m-rafe" 0 0 mark 0
AnchorPoint: "m2m-7" -240 0 basemark 0
AnchorPoint: "m2m-7" 172 0 mark 0
AnchorPoint: "m2m-7n" 172 0 mark 0
AnchorPoint: "m2b-8a" 0 0 mark 0
AnchorPoint: "m2b-9" 0 0 mark 0
LayerCount: 2
Fore
SplineSet
-506 1489 m 0
 -506 1578 -446 1620 -374 1620 c 0
 -289 1620 -188 1559 -163 1451 c 2
 -137 1339 l 2
 -133 1320 -130 1307 -130 1299 c 0
 -130 1285 -139 1284 -163 1284 c 2
 -172 1284 l 2
 -209 1284 -211 1285 -223 1338 c 2
 -249 1451 l 2
 -261 1505 -309 1532 -350 1532 c 0
 -383 1532 -412 1514 -415 1479 c 1
 -417 1455 -415 1451 -438 1451 c 2
 -463 1451 l 2
 -496 1451 -506 1457 -506 1489 c 0
EndSplineSet
Validated: 1
MultipleSubs2: "AddHairspaceAfterMark-0 subtable" zarqa hairspace
MultipleSubs2: "AddHairspaceAfterMark subtable" zarqa hairspace
MultipleSubs2: "AddThinspaceAfterMark subtable" zarqa thinspace
Position2: "'position' High Marks moved up above Rafe-1" dx=0 dy=286 dh=0 dv=0
EndChar

StartChar: pashta
Encoding: 108 1433 50
Width: 0
GlyphClass: 4
Flags: W
HStem: 1296 340
VStem: -471 270
AnchorPoint: "m2m-8" 107 0 mark 0
AnchorPoint: "m2m-rafe" 300 0 mark 0
AnchorPoint: "m2m-7" 107 0 mark 0
AnchorPoint: "m2b-8b" 0 0 mark 0
LayerCount: 2
Fore
SplineSet
-471 1601 m 0
 -471 1612 -427 1636 -415 1636 c 0
 -405 1636 -398 1626 -382 1602 c 2
 -222 1369 l 2
 -210 1352 -201 1341 -201 1332 c 0
 -201 1317 -250 1296 -256 1296 c 0
 -267 1296 -275 1307 -294 1336 c 2
 -451 1564 l 2
 -464 1583 -471 1594 -471 1601 c 0
EndSplineSet
Validated: 1
MultipleSubs2: "AddHairspaceAfterMark-0 subtable" pashta hairspace
MultipleSubs2: "AddHairspaceAfterMark subtable" pashta hairspace
MultipleSubs2: "AddThinspaceAfterMark subtable" pashta thinspace
Substitution2: "UpperMarksChanges subtable" qadma
Position2: "'position' High Marks moved up above Rafe-1" dx=0 dy=286 dh=0 dv=0
EndChar

StartChar: yetiv
Encoding: 109 1434 51
Width: 0
GlyphClass: 4
Flags: W
HStem: -533 399
VStem: -55 294
AnchorPoint: "m2m-6d" -132 0 mark 0
AnchorPoint: "m2m-6e" -132 0 mark 0
AnchorPoint: "m2m-6a" -132 0 mark 0
AnchorPoint: "m2m-6b" -132 0 mark 0
AnchorPoint: "m2m-6c" -132 0 mark 0
AnchorPoint: "m2m-5" -132 0 mark 0
AnchorPoint: "m2b-5b" -487.5 0 mark 0
LayerCount: 2
Fore
SplineSet
239 -464 m 1
 207 -533 l 1
 -55 -334 l 1
 115 -134 l 1
 179 -203 l 1
 52 -331 l 1
 239 -464 l 1
EndSplineSet
Validated: 1
MultipleSubs2: "AddHairspaceAfterMark-0 subtable" yetiv hairspace
MultipleSubs2: "AddHairspaceAfterMark subtable" yetiv hairspace
MultipleSubs2: "AddThinspaceAfterMark subtable" yetiv thinspace
EndChar

StartChar: tevir
Encoding: 110 1435 52
Width: 0
GlyphClass: 4
Flags: W
HStem: -350 148<-73.0175 28.8125>
VStem: -87 131<-338.672 -215.339> 144 92<-248.275 -162.001>
AnchorPoint: "m2b-mback" 13 0 mark 0
AnchorPoint: "m2m-4" -228 0 basemark 0
AnchorPoint: "m2m-4" 192 0 mark 0
AnchorPoint: "m2m-3" -228 0 basemark 0
AnchorPoint: "m2m-1" 192.23 -1 mark 0
AnchorPoint: "m2b-5a" 11.5 0 mark 0
LayerCount: 2
Fore
SplineSet
169 -492 m 2
 164 -510 163 -527 151 -527 c 0
 132 -527 85 -504 81 -500 c 0
 73 -492 75 -481 82 -452 c 2
 144 -187 l 2
 150 -163 153 -154 163 -154 c 0
 170 -154 180 -157 196 -164 c 0
 227 -177 236 -181 236 -195 c 0
 236 -201 234 -210 231 -223 c 2
 169 -492 l 2
-39 -202 m 0
 3 -202 44 -248 44 -297 c 0
 44 -329 25 -350 -5 -350 c 0
 -46 -350 -87 -308 -87 -256 c 0
 -87 -225 -69 -202 -39 -202 c 0
EndSplineSet
Validated: 1
MultipleSubs2: "AddHairspaceAfterMark-0 subtable" tevir hairspace
MultipleSubs2: "AddHairspaceAfterMark subtable" tevir hairspace
MultipleSubs2: "AddThinspaceAfterMark subtable" tevir thinspace
Position2: "'position' Move Low Accent to Right-1" dx=200 dy=0 dh=0 dv=0
EndChar

StartChar: gereshaccent
Encoding: 111 1436 53
Width: 0
GlyphClass: 4
Flags: W
HStem: 1302 334<-356.342 -320.375>
VStem: -416 155
AnchorPoint: "m2m-rafe" 0 0 mark 0
AnchorPoint: "m2m-7" -187 0 basemark 0
AnchorPoint: "m2m-7" 107 0 mark 0
AnchorPoint: "m2m-7n" 107 0 mark 0
AnchorPoint: "m2b-9" 0 0 mark 0
AnchorPoint: "m2b-8a" 0 0 mark 0
LayerCount: 2
Fore
SplineSet
-323 1336 m 2
 -328 1317 -329 1302 -342 1302 c 0
 -361 1302 -407 1325 -411 1328 c 0
 -415 1332 -416 1337 -416 1343 c 0
 -416 1350 -414 1361 -410 1376 c 2
 -354 1603 l 2
 -348 1627 -345 1636 -335 1636 c 0
 -328 1636 -318 1633 -302 1626 c 0
 -272 1614 -261 1609 -261 1595 c 0
 -261 1588 -263 1579 -267 1567 c 2
 -323 1336 l 2
EndSplineSet
Validated: 1
MultipleSubs2: "AddHairspaceAfterMark-0 subtable" gereshaccent hairspace
MultipleSubs2: "AddHairspaceAfterMark subtable" gereshaccent hairspace
MultipleSubs2: "AddThinspaceAfterMark subtable" gereshaccent thinspace
Position2: "'position' High Marks moved up above Rafe-1" dx=0 dy=286 dh=0 dv=0
EndChar

StartChar: gereshmuqdam
Encoding: 112 1437 54
Width: 0
GlyphClass: 4
Flags: W
HStem: 1302 334<-356.342 -320.375>
VStem: -416 155
AnchorPoint: "m2m-rafe" -399 0 mark 0
AnchorPoint: "m2m-7n" -184 0 basemark 0
AnchorPoint: "m2b-8c" -212 0 mark 0
LayerCount: 2
Fore
SplineSet
-323 1336 m 2
 -328 1317 -329 1302 -342 1302 c 0
 -361 1302 -407 1325 -411 1328 c 0
 -415 1332 -416 1337 -416 1343 c 0
 -416 1350 -414 1361 -410 1376 c 2
 -354 1603 l 2
 -348 1627 -345 1636 -335 1636 c 0
 -328 1636 -318 1633 -302 1626 c 0
 -272 1614 -261 1609 -261 1595 c 0
 -261 1588 -263 1579 -267 1567 c 2
 -323 1336 l 2
EndSplineSet
Validated: 1
MultipleSubs2: "AddHairspaceAfterMark-0 subtable" gereshmuqdam hairspace
MultipleSubs2: "AddHairspaceAfterMark subtable" gereshmuqdam hairspace
MultipleSubs2: "AddThinspaceAfterMark subtable" gereshmuqdam thinspace
Position2: "'position' High Marks moved up above Rafe-1" dx=0 dy=286 dh=0 dv=0
EndChar

StartChar: gershayimaccent
Encoding: 113 1438 55
Width: 0
GlyphClass: 4
Flags: W
HStem: 1297 334
VStem: -516 357
AnchorPoint: "m2m-rafe" 0 0 mark 0
AnchorPoint: "m2m-7" -288 0 basemark 0
AnchorPoint: "m2m-7" 208 0 mark 0
AnchorPoint: "m2m-7n" 210 0 mark 0
AnchorPoint: "m2b-9" 0 0 mark 0
AnchorPoint: "m2b-8a" -2.1377 0 mark 0
LayerCount: 2
Fore
SplineSet
-221 1331 m 2
 -226 1312 -227 1297 -239 1297 c 0
 -258 1297 -305 1320 -308 1323 c 0
 -318 1332 -315 1344 -308 1372 c 2
 -252 1598 l 2
 -246 1622 -243 1631 -233 1631 c 0
 -226 1631 -216 1628 -200 1621 c 0
 -170 1609 -159 1604 -159 1590 c 0
 -159 1583 -161 1574 -165 1562 c 2
 -221 1331 l 2
-423 1330 m 2
 -428 1311 -428 1297 -441 1297 c 0
 -460 1297 -507 1319 -510 1322 c 0
 -514 1326 -516 1331 -516 1338 c 0
 -516 1346 -514 1357 -510 1372 c 2
 -454 1597 l 2
 -448 1621 -445 1630 -434 1630 c 0
 -428 1630 -418 1627 -402 1620 c 0
 -371 1608 -361 1603 -361 1589 c 0
 -361 1582 -363 1573 -366 1561 c 2
 -423 1330 l 2
EndSplineSet
Validated: 1
MultipleSubs2: "AddHairspaceAfterMark-0 subtable" gershayimaccent hairspace
MultipleSubs2: "AddHairspaceAfterMark subtable" gershayimaccent hairspace
MultipleSubs2: "AddThinspaceAfterMark subtable" gershayimaccent thinspace
Position2: "'position' High Marks moved up above Rafe-1" dx=0 dy=286 dh=0 dv=0
EndChar

StartChar: qarneypara
Encoding: 114 1439 56
Width: 0
GlyphClass: 4
Flags: W
HStem: 1280 76<-371.088 -268.047> 1372 64<-558.095 -440.489 -214.689 -120.607> 1578 60<-574.769 -459.321 -254.893 -138.632>
VStem: -635 55<1462.51 1571.91> -436 57<1442 1552.45> -317 57<1461.17 1571.1> -116 55<1443.04 1551.87>
AnchorPoint: "m2m-rafe" 0 0 mark 0
AnchorPoint: "m2m-7" -363 0 basemark 0
AnchorPoint: "m2m-7" 283 0 mark 0
AnchorPoint: "m2m-7n" 280 0 mark 0
AnchorPoint: "m2b-8a" 0 0 mark 0
AnchorPoint: "m2b-9" 0 0 mark 0
LayerCount: 2
Fore
SplineSet
-539 1638 m 0
 -465 1638 -379 1570 -379 1474 c 0
 -379 1462 -381 1450 -384 1439 c 0
 -396 1411 -396 1411 -371 1391 c 0
 -341 1367 -325 1356 -313 1356 c 0
 -301 1356 -291 1367 -271 1390 c 0
 -255 1409 -254 1409 -280 1437 c 1
 -301 1465 -317 1497 -317 1539 c 0
 -317 1598 -275 1638 -217 1638 c 0
 -143 1638 -61 1569 -61 1473 c 0
 -61 1414 -100 1372 -158 1372 c 0
 -179 1372 -188 1374 -205 1353 c 0
 -248 1304 -269 1280 -296 1280 c 0
 -323 1280 -354 1304 -418 1353 c 0
 -445 1373 -453 1372 -476 1372 c 0
 -550 1372 -635 1445 -635 1541 c 0
 -635 1599 -597 1638 -539 1638 c 0
-436 1490 m 0
 -436 1539 -477 1578 -525 1578 c 0
 -561 1578 -580 1555 -580 1525 c 0
 -580 1476 -539 1436 -493 1436 c 0
 -455 1436 -436 1460 -436 1490 c 0
-116 1490 m 0
 -116 1538 -156 1578 -203 1578 c 0
 -241 1578 -260 1554 -260 1525 c 0
 -260 1476 -218 1436 -171 1436 c 0
 -135 1436 -116 1460 -116 1490 c 0
EndSplineSet
Validated: 1
MultipleSubs2: "AddHairspaceAfterMark-0 subtable" qarneypara hairspace
MultipleSubs2: "AddHairspaceAfterMark subtable" qarneypara hairspace
MultipleSubs2: "AddThinspaceAfterMark subtable" qarneypara thinspace
Position2: "'position' High Marks moved up above Rafe-1" dx=0 dy=286 dh=0 dv=0
EndChar

StartChar: telishagedola
Encoding: 115 1440 57
Width: 0
GlyphClass: 4
Flags: W
HStem: 1400 68<-378.284 -269.826> 1706 66<-447.703 -310.738>
VStem: -523 62<1525.57 1692.38> -469 65<1303.84 1341.9> -256 61<1483.04 1646.53>
AnchorPoint: "m2m-rafe" -300 0 mark 0
AnchorPoint: "m2m-7n" -246 0 basemark 0
AnchorPoint: "m2b-9" 0 0 mark 0
AnchorPoint: "m2b-8c" -194.5 0 mark 0
LayerCount: 2
Fore
SplineSet
-256 1554 m 0xe8
 -256 1634 -319 1706 -387 1706 c 0
 -436 1706 -461 1669 -461 1622 c 0
 -461 1541 -400 1468 -332 1468 c 0
 -282 1468 -256 1506 -256 1554 c 0xe8
-402 1772 m 256
 -295 1772 -195 1662 -195 1537 c 0
 -195 1461 -238 1400 -316 1400 c 0
 -326 1400 -350 1407 -374 1415 c 1
 -404 1275 l 1
 -469 1312 l 1xd8
 -428 1447 l 1
 -472 1483 -523 1548 -523 1639 c 0
 -523 1715 -479 1772 -402 1772 c 256
EndSplineSet
Validated: 1
MultipleSubs2: "AddHairspaceAfterMark-0 subtable" telishagedola hairspace
MultipleSubs2: "AddHairspaceAfterMark subtable" telishagedola hairspace
MultipleSubs2: "AddThinspaceAfterMark subtable" telishagedola thinspace
Substitution2: "UpperMarksChanges subtable" telishag_on_left
Position2: "'position' High Marks moved up above Rafe-1" dx=0 dy=286 dh=0 dv=0
EndChar

StartChar: pazer
Encoding: 116 1441 58
Width: 0
GlyphClass: 4
Flags: W
HStem: 1420 87<-388.843 -172.127>
VStem: -526 137<1401.5 1637>
AnchorPoint: "m2m-rafe" 0 0 mark 0
AnchorPoint: "m2m-7" -232 0 basemark 0
AnchorPoint: "m2m-7" 152 0 mark 0
AnchorPoint: "m2m-7n" 166 0 mark 0
AnchorPoint: "m2b-9" 0 0 mark 0
AnchorPoint: "m2b-8a" 0 0 mark 0
LayerCount: 2
Fore
SplineSet
-204 1420 m 2
 -350 1420 l 2
 -379 1420 -389 1420 -389 1405 c 0
 -389 1398 -386 1388 -383 1372 c 2
 -370 1318 l 2
 -367 1304 -365 1294 -365 1288 c 0
 -365 1274 -375 1274 -405 1274 c 0
 -446 1274 -446 1274 -457 1320 c 2
 -520 1594 l 2
 -524 1611 -526 1623 -526 1630 c 0
 -526 1644 -518 1645 -498 1645 c 2
 -490 1645 l 1
 -485 1645 l 2
 -446 1645 -446 1644 -435 1599 c 2
 -425 1555 l 2
 -414 1507 -414 1507 -361 1507 c 2
 -232 1507 l 2
 -182 1507 -182 1506 -173 1468 c 0
 -169 1452 -167 1441 -167 1434 c 0
 -167 1420 -176 1420 -204 1420 c 2
EndSplineSet
Validated: 1
MultipleSubs2: "AddHairspaceAfterMark-0 subtable" pazer hairspace
MultipleSubs2: "AddHairspaceAfterMark subtable" pazer hairspace
MultipleSubs2: "AddThinspaceAfterMark subtable" pazer thinspace
Position2: "'position' High Marks moved up above Rafe-1" dx=0 dy=286 dh=0 dv=0
EndChar

StartChar: atnahhafukh
Encoding: 117 1442 59
Width: 0
GlyphClass: 4
Flags: W
HStem: -448 148<51.6313 108>
VStem: -150 385<-188 -176>
AnchorPoint: "m2b-mback" 0 0 mark 0
AnchorPoint: "m2m-4" -272 0 basemark 0
AnchorPoint: "m2m-4" 192 0 mark 0
AnchorPoint: "m2m-3" -272 0 basemark 0
AnchorPoint: "m2m-1" 192 0 mark 0
AnchorPoint: "m2b-5a" 0 0 mark 0
LayerCount: 2
Fore
SplineSet
-150 -180 m 0
 -150 -171 -110 -137 -100 -137 c 0
 -91 -137 -83 -146 -65 -165 c 2
 31 -267 l 2
 51 -289 62 -300 69 -300 c 0
 77 -300 82 -289 93 -267 c 2
 138 -170 l 2
 148 -148 155 -139 165 -139 c 0
 174 -139 184 -145 203 -157 c 0
 226 -171 235 -176 235 -186 c 0
 235 -192 231 -201 224 -215 c 2
 134 -405 l 2
 120 -434 113 -448 103 -448 c 0
 93 -448 80 -433 52 -404 c 2
 -124 -215 l 2
 -142 -197 -150 -188 -150 -180 c 0
EndSplineSet
Validated: 1
MultipleSubs2: "AddHairspaceAfterMark-0 subtable" atnahhafukh hairspace
MultipleSubs2: "AddHairspaceAfterMark subtable" atnahhafukh hairspace
MultipleSubs2: "AddThinspaceAfterMark subtable" atnahhafukh thinspace
Position2: "'position' Move Low Accent to Right-1" dx=200 dy=0 dh=0 dv=0
EndChar

StartChar: munah
Encoding: 118 1443 60
Width: 0
GlyphClass: 4
Flags: W
HStem: -518 81<4 147>
VStem: -15 251
AnchorPoint: "m2b-mback" 0 0 mark 0
AnchorPoint: "m2m-4" 116 0 mark 0
AnchorPoint: "m2m-4" -196 0 basemark 0
AnchorPoint: "m2m-3" -196 0 basemark 0
AnchorPoint: "m2m-1" 116 0 mark 0
AnchorPoint: "m2b-5a" 1 0 mark 0
LayerCount: 2
Fore
SplineSet
236 -518 m 1
 4 -518 l 1
 -15 -437 l 1
 147 -437 l 1
 79 -145 l 1
 149 -145 l 1
 236 -518 l 1
EndSplineSet
Validated: 1
MultipleSubs2: "AddHairspaceAfterMark-0 subtable" munah hairspace
MultipleSubs2: "AddHairspaceAfterMark subtable" munah hairspace
MultipleSubs2: "AddThinspaceAfterMark subtable" munah thinspace
Position2: "'position' Move Low Accent to Right-1" dx=200 dy=0 dh=0 dv=0
EndChar

StartChar: mahapakh
Encoding: 119 1444 61
Width: 0
GlyphClass: 4
Flags: W
HStem: -533 399
VStem: -55 294
AnchorPoint: "m2b-mback" 0 0 mark 0
AnchorPoint: "m2m-4" -212 0 basemark 0
AnchorPoint: "m2m-4" 132 0 mark 0
AnchorPoint: "m2m-3" -212 0 basemark 0
AnchorPoint: "m2m-1" 132 0 mark 0
AnchorPoint: "m2b-5a" 4.5 0 mark 0
LayerCount: 2
Fore
SplineSet
239 -464 m 1
 207 -533 l 1
 -55 -334 l 1
 115 -134 l 1
 179 -203 l 1
 52 -331 l 1
 239 -464 l 1
EndSplineSet
Validated: 1
MultipleSubs2: "AddHairspaceAfterMark-0 subtable" mahapakh hairspace
MultipleSubs2: "AddHairspaceAfterMark subtable" mahapakh hairspace
MultipleSubs2: "AddThinspaceAfterMark subtable" mahapakh thinspace
Position2: "'position' Move Low Accent to Right-1" dx=200 dy=0 dh=0 dv=0
EndChar

StartChar: merkha
Encoding: 120 1445 62
Width: 0
GlyphClass: 4
Flags: W
HStem: -512 373<61.0312 88.9688>
VStem: -5 160
AnchorPoint: "m2b-mback" 38 0 mark 0
AnchorPoint: "m2m-4" -194 0 basemark 0
AnchorPoint: "m2m-4" 114 0 mark 0
AnchorPoint: "m2m-3" -194 0 basemark 0
AnchorPoint: "m2m-1" 114 0 mark 0
AnchorPoint: "m2b-5a" 38.3301 -0.299805 mark 0
LayerCount: 2
Fore
SplineSet
87 -477 m 2
 83 -496 82 -512 70 -512 c 0
 51 -512 4 -489 0 -485 c 0
 -4 -481 -5 -477 -5 -471 c 0
 -5 -464 -4 -453 0 -437 c 2
 63 -172 l 2
 69 -148 72 -139 83 -139 c 0
 90 -139 100 -142 115 -149 c 0
 146 -162 155 -166 155 -179 c 0
 155 -186 153 -195 150 -208 c 2
 87 -477 l 2
EndSplineSet
Validated: 1
MultipleSubs2: "AddHairspaceAfterMark-0 subtable" merkha hairspace
MultipleSubs2: "AddHairspaceAfterMark subtable" merkha hairspace
MultipleSubs2: "AddThinspaceAfterMark subtable" merkha thinspace
Position2: "'position' Move Low Accent to Right-1" dx=200 dy=0 dh=0 dv=0
EndChar

StartChar: merkhakefula
Encoding: 121 1446 63
Width: 0
GlyphClass: 4
Flags: W
HStem: -517 371
VStem: -86 328
AnchorPoint: "m2b-mback" 0 0 mark 0
AnchorPoint: "m2m-4" -275 0 basemark 0
AnchorPoint: "m2m-4" 195.154 -0.666992 mark 0
AnchorPoint: "m2m-3" -275 0 basemark 0
AnchorPoint: "m2m-1" 195 0 mark 0
AnchorPoint: "m2b-5a" -0.262695 -0.666992 mark 0
LayerCount: 2
Fore
SplineSet
174 -484 m 2
 170 -499 167 -517 161 -517 c 0
 160 -517 158 -517 156 -517 c 0
 137 -517 92 -496 88 -492 c 0
 79 -484 81 -473 89 -444 c 2
 149 -179 l 2
 155 -155 158 -146 169 -146 c 0
 176 -146 186 -149 202 -156 c 0
 232 -169 242 -173 242 -187 c 0
 242 -193 240 -202 237 -215 c 2
 174 -484 l 2
6 -477 m 2
 3 -495 1 -512 -11 -512 c 0
 -30 -512 -76 -489 -80 -485 c 0
 -84 -481 -86 -477 -86 -471 c 0
 -86 -464 -83 -453 -79 -437 c 2
 -18 -172 l 2
 -12 -148 -8 -139 3 -139 c 0
 10 -139 19 -142 34 -149 c 0
 65 -162 74 -166 74 -179 c 0
 74 -186 72 -195 69 -208 c 2
 6 -477 l 2
EndSplineSet
Validated: 1
MultipleSubs2: "AddHairspaceAfterMark-0 subtable" merkhakefula hairspace
MultipleSubs2: "AddHairspaceAfterMark subtable" merkhakefula hairspace
MultipleSubs2: "AddThinspaceAfterMark subtable" merkhakefula thinspace
Position2: "'position' Move Low Accent to Right-1" dx=200 dy=0 dh=0 dv=0
EndChar

StartChar: darga
Encoding: 122 1447 64
Width: 0
GlyphClass: 4
Flags: W
HStem: -539 78<31.6917 119.291> -203 78<32.5539 110.125>
VStem: -44 73<-278.069 -212.328> 124 70<-444.366 -375.857>
AnchorPoint: "m2b-mback" 0 0 mark 0
AnchorPoint: "m2m-4" -181 0 basemark 0
AnchorPoint: "m2m-4" 101 0 mark 0
AnchorPoint: "m2m-3" -181 0 basemark 0
AnchorPoint: "m2m-1" 101 0 mark 0
AnchorPoint: "m2b-5a" 0 0 mark 0
LayerCount: 2
Fore
SplineSet
31 -272 m 0
 33 -282 169 -302 180 -353 c 0
 185 -373 194 -405 194 -429 c 0
 194 -498 142 -522 35 -539 c 1
 17 -461 l 1
 81 -445 124 -448 124 -408 c 0
 124 -403 125 -396 124 -389 c 0
 121 -377 -6 -362 -30 -308 c 1
 -36 -290 -44 -249 -44 -228 c 0
 -44 -163 3 -141 107 -125 c 1
 124 -203 l 1
 59 -203 29 -223 29 -257 c 0
 29 -262 30 -267 31 -272 c 0
EndSplineSet
Validated: 1
MultipleSubs2: "AddHairspaceAfterMark-0 subtable" darga hairspace
MultipleSubs2: "AddHairspaceAfterMark subtable" darga hairspace
MultipleSubs2: "AddThinspaceAfterMark subtable" darga thinspace
Position2: "'position' Move Low Accent to Right-1" dx=200 dy=0 dh=0 dv=0
EndChar

StartChar: qadma
Encoding: 123 1448 65
Width: 0
GlyphClass: 4
Flags: W
HStem: 1302 334
VStem: -486 276
AnchorPoint: "m2m-rafe" 0 0 mark 0
AnchorPoint: "m2m-7" -184 0 basemark 0
AnchorPoint: "m2m-7" 98 0 mark 0
AnchorPoint: "m2m-7n" 95 0 mark 0
AnchorPoint: "m2b-9" 0 0 mark 0
AnchorPoint: "m2b-8a" 0 0 mark 0
LayerCount: 2
Fore
SplineSet
-210 1334 m 0
 -210 1325 -247 1302 -269 1302 c 0
 -283 1302 -289 1317 -302 1336 c 2
 -466 1567 l 2
 -479 1585 -486 1596 -486 1603 c 0
 -486 1612 -445 1636 -430 1636 c 0
 -419 1636 -412 1627 -395 1603 c 2
 -235 1376 l 2
 -218 1354 -210 1342 -210 1334 c 0
EndSplineSet
Validated: 1
MultipleSubs2: "AddHairspaceAfterMark-0 subtable" qadma hairspace
MultipleSubs2: "AddHairspaceAfterMark subtable" qadma hairspace
MultipleSubs2: "AddThinspaceAfterMark subtable" qadma thinspace
Position2: "'position' High Marks moved up above Rafe-1" dx=0 dy=286 dh=0 dv=0
EndChar

StartChar: telishaqetana
Encoding: 124 1449 66
Width: 0
GlyphClass: 4
Flags: W
HStem: 1414 66<-424.247 -287.919> 1718 66<-463.984 -329.197>
VStem: -541 62<1537.42 1703.68> -275 61<1493.3 1659.09>
AnchorPoint: "m2m-8" 166 0 mark 0
AnchorPoint: "m2m-rafe" 350 0 mark 0
AnchorPoint: "m2m-7" 166 0 mark 0
AnchorPoint: "m2b-8b" 50 0 mark 0
LayerCount: 2
Fore
SplineSet
-479 1632 m 0
 -479 1552 -417 1480 -349 1480 c 0
 -299 1480 -275 1517 -275 1564 c 0
 -275 1645 -335 1718 -404 1718 c 0
 -453 1718 -479 1680 -479 1632 c 0
-333 1414 m 0
 -438 1414 -541 1522 -541 1648 c 0
 -541 1723 -498 1784 -419 1784 c 256
 -317 1784 -214 1680 -214 1553 c 0
 -214 1519 -223 1487 -243 1459 c 1
 -140 1324 l 1
 -187 1287 l 1
 -282 1427 l 1
 -303 1419 -323 1414 -333 1414 c 0
EndSplineSet
Validated: 1
MultipleSubs2: "AddHairspaceAfterMark-0 subtable" telishaqetana hairspace
MultipleSubs2: "AddHairspaceAfterMark subtable" telishaqetana hairspace
MultipleSubs2: "AddThinspaceAfterMark subtable" telishaqetana thinspace
Substitution2: "UpperMarksChanges subtable" telishaq_on_right
Position2: "'position' High Marks moved up above Rafe-1" dx=0 dy=260 dh=0 dv=0
EndChar

StartChar: yerahbenyomo
Encoding: 125 1450 67
Width: 0
GlyphClass: 4
Flags: W
HStem: -439 101<15.5755 120.151>
VStem: -160 111<-262.504 -135.635> 127 113<-336.073 -137.112>
AnchorPoint: "m2b-mback" 0 0 mark 0
AnchorPoint: "m2m-4" -273 0 basemark 0
AnchorPoint: "m2m-4" 193 0 mark 0
AnchorPoint: "m2m-3" -273 0 basemark 0
AnchorPoint: "m2m-1" 193 0 mark 0
AnchorPoint: "m2b-5a" -3.5 0 mark 0
LayerCount: 2
Fore
SplineSet
78 -338 m 0
 107 -338 127 -303 127 -240 c 0
 127 -213 124 -181 115 -144 c 1
 126 -138 155 -135 170 -135 c 0
 184 -135 208 -138 226 -144 c 1
 236 -185 240 -223 240 -256 c 0
 240 -374 184 -439 101 -439 c 0
 -5 -439 -116 -332 -160 -144 c 1
 -144 -138 -122 -135 -108 -135 c 0
 -93 -135 -62 -138 -49 -144 c 1
 -20 -267 37 -338 78 -338 c 0
EndSplineSet
Validated: 1
MultipleSubs2: "AddHairspaceAfterMark-0 subtable" yerahbenyomo hairspace
MultipleSubs2: "AddHairspaceAfterMark subtable" yerahbenyomo hairspace
MultipleSubs2: "AddThinspaceAfterMark subtable" yerahbenyomo thinspace
Position2: "'position' Move Low Accent to Right-1" dx=200 dy=0 dh=0 dv=0
EndChar

StartChar: ole
Encoding: 126 1451 68
Width: 0
GlyphClass: 4
Flags: W
HStem: 1275 399
VStem: -473 296
AnchorPoint: "m2m-rafe" 0 0 mark 0
AnchorPoint: "m2m-7" -213 0 basemark 0
AnchorPoint: "m2m-7" 133 0 mark 0
AnchorPoint: "m2m-7n" 139 0 mark 0
AnchorPoint: "m2b-9" 0 0 mark 0
AnchorPoint: "m2b-8a" 0 0 mark 0
LayerCount: 2
Fore
SplineSet
-177 1344 m 1
 -209 1275 l 1
 -473 1474 l 1
 -301 1674 l 1
 -238 1605 l 1
 -364 1477 l 1
 -177 1344 l 1
EndSplineSet
Validated: 1
MultipleSubs2: "AddHairspaceAfterMark-0 subtable" ole hairspace
MultipleSubs2: "AddHairspaceAfterMark subtable" ole hairspace
MultipleSubs2: "AddThinspaceAfterMark subtable" ole thinspace
Position2: "'position' High Marks moved up above Rafe-1" dx=0 dy=286 dh=0 dv=0
EndChar

StartChar: iluy
Encoding: 127 1452 69
Width: 0
GlyphClass: 4
Flags: W
HStem: 1275 81<-414 -263>
VStem: -433 259
AnchorPoint: "m2m-rafe" 0 0 mark 0
AnchorPoint: "m2m-7" -200 0 basemark 0
AnchorPoint: "m2m-7" 120 0 mark 0
AnchorPoint: "m2m-7n" 120 0 mark 0
AnchorPoint: "m2b-9" 0 0 mark 0
AnchorPoint: "m2b-8a" 0 0 mark 0
LayerCount: 2
Fore
SplineSet
-174 1275 m 1
 -414 1275 l 1
 -433 1356 l 1
 -263 1356 l 1
 -330 1648 l 1
 -260 1648 l 1
 -174 1275 l 1
EndSplineSet
Validated: 1
MultipleSubs2: "AddHairspaceAfterMark-0 subtable" iluy hairspace
MultipleSubs2: "AddHairspaceAfterMark subtable" iluy hairspace
MultipleSubs2: "AddThinspaceAfterMark subtable" iluy thinspace
Position2: "'position' High Marks moved up above Rafe-1" dx=0 dy=286 dh=0 dv=0
EndChar

StartChar: dehi
Encoding: 128 1453 70
Width: 0
GlyphClass: 4
Flags: W
HStem: -510 375
VStem: -76 298
AnchorPoint: "m2m-6d" -113 0 mark 0
AnchorPoint: "m2m-6e" -113 0 mark 0
AnchorPoint: "m2m-6b" -113 0 mark 0
AnchorPoint: "m2m-6c" -113 0 mark 0
AnchorPoint: "m2m-6a" -113 0 mark 0
AnchorPoint: "m2m-5" -113 0 mark 0
AnchorPoint: "m2b-5b" -488 0 mark 0
LayerCount: 2
Fore
SplineSet
-76 -169 m 0
 -76 -158 -32 -135 -20 -135 c 0
 -10 -135 -4 -144 13 -168 c 2
 201 -437 l 2
 213 -454 222 -465 222 -474 c 0
 222 -489 173 -510 167 -510 c 0
 156 -510 148 -499 129 -470 c 2
 -56 -206 l 2
 -70 -187 -76 -176 -76 -169 c 0
EndSplineSet
Validated: 1
MultipleSubs2: "AddHairspaceAfterMark-0 subtable" dehi hairspace
MultipleSubs2: "AddHairspaceAfterMark subtable" dehi hairspace
MultipleSubs2: "AddThinspaceAfterMark subtable" dehi thinspace
EndChar

StartChar: tsinor
Encoding: 129 1454 71
Width: 0
GlyphClass: 4
Flags: W
HStem: 1536 88<-414.042 -268.015>
VStem: -506 90<1455 1531.3>
AnchorPoint: "m2m-8" 172 0 mark 0
AnchorPoint: "m2m-rafe" 320 0 mark 0
AnchorPoint: "m2m-7" 172 0 mark 0
AnchorPoint: "m2m-7n" 172 0 mark 0
AnchorPoint: "m2b-8b" 0 0 mark 0
LayerCount: 2
Fore
SplineSet
-506 1493 m 0
 -506 1582 -447 1624 -375 1624 c 0
 -290 1624 -189 1563 -164 1455 c 2
 -138 1343 l 2
 -134 1324 -131 1311 -131 1303 c 0
 -131 1289 -140 1288 -164 1288 c 2
 -173 1288 l 2
 -210 1288 -212 1289 -224 1342 c 2
 -250 1455 l 2
 -262 1509 -310 1536 -351 1536 c 0
 -384 1536 -412 1518 -416 1483 c 1
 -418 1459 -416 1455 -439 1455 c 2
 -464 1455 l 2
 -496 1455 -506 1461 -506 1493 c 0
EndSplineSet
Validated: 1
MultipleSubs2: "AddHairspaceAfterMark-0 subtable" tsinor hairspace
MultipleSubs2: "AddHairspaceAfterMark subtable" tsinor hairspace
MultipleSubs2: "AddThinspaceAfterMark subtable" tsinor thinspace
Substitution2: "UpperMarksChanges subtable" zarqa
Position2: "'position' High Marks moved up above Rafe-1" dx=0 dy=286 dh=0 dv=0
EndChar

StartChar: masoracircle
Encoding: 130 1455 72
Width: 0
GlyphClass: 4
Flags: W
HStem: 1275 56<-380.584 -246.088> 1604 56<-430.558 -297.062>
VStem: -499 46<1419.52 1576.56> -220 47<1360.99 1516.01>
AnchorPoint: "m2m-rafe" 0 0 mark 0
AnchorPoint: "m2m-7" -240 0 basemark 0
AnchorPoint: "m2m-7" 160 0 mark 0
AnchorPoint: "m2m-7n" 160 0 mark 0
AnchorPoint: "m2b-8a" -18.4697 80 mark 0
AnchorPoint: "m2b-9" 0 0 mark 0
LayerCount: 2
Fore
SplineSet
-383 1660 m 0
 -288 1660 -173 1551 -173 1417 c 0
 -173 1337 -220 1275 -294 1275 c 0
 -393 1275 -499 1376 -499 1507 c 0
 -499 1590 -460 1660 -383 1660 c 0
-220 1430 m 0
 -220 1531 -306 1604 -370 1604 c 0
 -420 1604 -453 1565 -453 1506 c 0
 -453 1408 -375 1331 -307 1331 c 0
 -259 1331 -220 1369 -220 1430 c 0
EndSplineSet
Validated: 1
MultipleSubs2: "AddHairspaceAfterMark-0 subtable" masoracircle hairspace
MultipleSubs2: "AddHairspaceAfterMark subtable" masoracircle hairspace
MultipleSubs2: "AddThinspaceAfterMark subtable" masoracircle thinspace
Position2: "'position' High Marks moved up above Rafe-1" dx=0 dy=286 dh=0 dv=0
EndChar

StartChar: sheva
Encoding: 131 1456 73
Width: 0
GlyphClass: 4
Flags: W
HStem: -533 157<51.131 158.869> -289 157<-5.01892 102.019>
VStem: -21 139<-274.429 -146.804> 35 140<-518.196 -390.571>
AnchorPoint: "m2b-v2left" 30 0 mark 0
AnchorPoint: "m2b-vback" 0 0 mark 0
AnchorPoint: "m2b-v2r" -210 0 mark 0
AnchorPoint: "m2m-6e" 147 0 basemark 0
AnchorPoint: "VbWM" -67 0 mark 0
AnchorPoint: "VbNM" -67 0 mark 0
AnchorPoint: "m2m-5" 290 0 basemark 0
AnchorPoint: "m2m-2" 67 0 mark 0
AnchorPoint: "m2m-3" 67 0 mark 0
AnchorPoint: "m2m-1" -147 0 basemark 0
AnchorPoint: "m2b-4a" 0.0771484 -0.166992 mark 0
LayerCount: 2
Fore
SplineSet
87 -376 m 256xd0
 132 -376 175 -421 175 -477 c 0
 175 -512 154 -533 123 -533 c 256
 77 -533 35 -487 35 -432 c 0
 35 -397 56 -376 87 -376 c 256xd0
30 -132 m 256
 76 -132 118 -178 118 -233 c 0
 118 -268 97 -289 67 -289 c 256
 21 -289 -21 -244 -21 -188 c 0xe0
 -21 -153 -0 -132 30 -132 c 256
EndSplineSet
Validated: 1
MultipleSubs2: "AddHairspaceAfterMark-0 subtable" sheva hairspace
MultipleSubs2: "AddHairspaceAfterMark subtable" sheva hairspace
MultipleSubs2: "AddThinspaceAfterMark subtable" sheva thinspace
Substitution2: "ShevaAndQamatsForFinalkaf subtable" sheva_for_finalkaf
Position2: "'position' Move Vowel to left-1" dx=-30 dy=0 dh=0 dv=0
EndChar

StartChar: hatafsegol
Encoding: 132 1457 74
Width: 0
GlyphClass: 4
Flags: W
HStem: -533 157<-59.0985 47.4414 276.281 382.541> -289 157<-228.541 -123.131 -2.716 102.705 220.131 325.82>
VStem: -246 139<-274.125 -146.571> -76 140<-519.015 -391.857> -19 138<-275.379 -146.625> 204 139<-274.25 -146.844> 260 140<-518.25 -390.875>
AnchorPoint: "m2m-6e" 372 0 basemark 0
AnchorPoint: "m2b-v2r" -250 0 mark 0
AnchorPoint: "HbWM" -292 0 mark 0
AnchorPoint: "HbNM" -292 0 mark 0
AnchorPoint: "m2m-5" 492.23 -1 basemark 0
AnchorPoint: "m2m-2" 292 0 mark 0
AnchorPoint: "m2m-1" -370 0 basemark 0
AnchorPoint: "m2b-4c" -11.5 0 mark 0
LayerCount: 2
Fore
SplineSet
313 -376 m 256xe2
 356 -376 400 -422 400 -478 c 0
 400 -512 380 -533 349 -533 c 256
 303 -533 260 -488 260 -432 c 0
 260 -397 281 -376 313 -376 c 256xe2
256 -132 m 256
 300 -132 343 -178 343 -234 c 0
 343 -268 323 -289 293 -289 c 256
 247 -289 204 -244 204 -188 c 0xe4
 204 -153 225 -132 256 -132 c 256
67 -289 m 256
 21 -289 -19 -243 -19 -186 c 0
 -19 -153 0 -132 30 -132 c 256
 75 -132 119 -177 119 -233 c 0xe8
 119 -268 98 -289 67 -289 c 256
11 -533 m 256
 -34 -533 -76 -487 -76 -431 c 0
 -76 -397 -56 -376 -25 -376 c 256
 19 -376 64 -421 64 -477 c 0xf0
 64 -512 43 -533 11 -533 c 256
-159 -289 m 256
 -202 -289 -246 -243 -246 -187 c 0
 -246 -153 -226 -132 -196 -132 c 256
 -149 -132 -107 -177 -107 -233 c 0
 -107 -268 -128 -289 -159 -289 c 256
EndSplineSet
Validated: 1
MultipleSubs2: "AddHairspaceAfterMark-0 subtable" hatafsegol hairspace
MultipleSubs2: "AddHairspaceAfterMark subtable" hatafsegol hairspace
MultipleSubs2: "AddThinspaceAfterMark subtable" hatafsegol thinspace
Position2: "'position' Move Vowel to left-1" dx=-70 dy=0 dh=0 dv=0
EndChar

StartChar: hatafpatah
Encoding: 133 1458 75
Width: 0
GlyphClass: 4
Flags: W
HStem: -534 157<277.981 384.869> -290 157<222.901 328.869> -256 113<-234 99>
VStem: 206 139<-276.014 -147.571> 262 139<-520.015 -391.571>
AnchorPoint: "m2m-6e" 372 0 basemark 0
AnchorPoint: "m2b-v2r" -250 0 mark 0
AnchorPoint: "HbWM" -292 0 mark 0
AnchorPoint: "HbNM" -292 0 mark 0
AnchorPoint: "m2m-5" 492 0 basemark 0
AnchorPoint: "m2m-2" 292 0 mark 0
AnchorPoint: "m2m-1" -370 0 basemark 0
AnchorPoint: "m2b-4c" -1.61035 1.2998 mark 0
LayerCount: 2
Fore
SplineSet
125 -256 m 1xa0
 -234 -256 l 1
 -260 -143 l 1
 99 -143 l 1
 125 -256 l 1xa0
313 -377 m 256
 358 -377 401 -422 401 -478 c 0
 401 -513 380 -534 349 -534 c 256
 304 -534 262 -489 262 -433 c 0x88
 262 -399 283 -377 313 -377 c 256
257 -133 m 256xd0
 302 -133 345 -178 345 -234 c 0
 345 -269 324 -290 293 -290 c 256
 248 -290 206 -244 206 -188 c 0
 206 -154 226 -133 257 -133 c 256xd0
EndSplineSet
Validated: 1
MultipleSubs2: "AddHairspaceAfterMark-0 subtable" hatafpatah hairspace
MultipleSubs2: "AddHairspaceAfterMark subtable" hatafpatah hairspace
MultipleSubs2: "AddThinspaceAfterMark subtable" hatafpatah thinspace
Position2: "'position' Move Vowel to left-1" dx=-70 dy=0 dh=0 dv=0
EndChar

StartChar: hatafqamats
Encoding: 134 1459 76
Width: 0
GlyphClass: 4
Flags: W
HStem: -522 157<274.295 382.019> -278 157<217.295 325.758> -250 113<-235 -72.5033 -31 97>
VStem: 201 141<-263.125 -135.875> 258 140<-507.125 -379.571>
AnchorPoint: "m2m-6e" 372 0 basemark 0
AnchorPoint: "m2b-v2r" -250 0 mark 0
AnchorPoint: "HbWM" -292 0 mark 0
AnchorPoint: "HbNM" -292 0 mark 0
AnchorPoint: "m2m-5" 492 0 basemark 0
AnchorPoint: "m2m-2" 292 0 mark 0
AnchorPoint: "m2m-1" -370 0 basemark 0
AnchorPoint: "m2b-4c" -0.5 0 mark 0
LayerCount: 2
Fore
SplineSet
-63 -366 m 0xa0
 -63 -318 -72 -301 -84 -250 c 1
 -235 -250 l 1
 -261 -137 l 1
 97 -137 l 1
 123 -250 l 1
 -31 -250 l 1
 -15 -320 l 2
 -10 -344 -0 -368 16 -388 c 9
 75 -457 l 17
 66 -480 56 -503 30 -522 c 1
 21 -523 13 -522 4 -522 c 0
 -4 -522 -13 -523 -21 -522 c 1
 -56 -505 -76 -481 -93 -457 c 9
 -66 -388 l 18
 -64 -383 -63 -375 -63 -366 c 0xa0
310 -365 m 256
 355 -365 398 -410 398 -466 c 0
 398 -501 377 -522 347 -522 c 256
 302 -522 258 -478 258 -421 c 0x88
 258 -387 279 -365 310 -365 c 256
254 -121 m 256xd0
 298 -121 342 -166 342 -222 c 0
 342 -257 321 -278 290 -278 c 256
 245 -278 201 -233 201 -177 c 0
 201 -142 222 -121 254 -121 c 256xd0
EndSplineSet
Validated: 1
MultipleSubs2: "AddHairspaceAfterMark-0 subtable" hatafqamats hairspace
MultipleSubs2: "AddHairspaceAfterMark subtable" hatafqamats hairspace
MultipleSubs2: "AddThinspaceAfterMark subtable" hatafqamats thinspace
Position2: "'position' Move Vowel to left-1" dx=-70 dy=0 dh=0 dv=0
EndChar

StartChar: hiriq
Encoding: 135 1460 77
Width: 0
GlyphClass: 4
Flags: W
HStem: -288 157<-6.54883 102.322>
VStem: -22 141<-274.425 -146.811>
AnchorPoint: "m2b-v2left" 30 0 mark 0
AnchorPoint: "m2b-vback" 0 0 mark 0
AnchorPoint: "m2b-v2r" -210 0 mark 0
AnchorPoint: "m2m-6e" 147 0 basemark 0
AnchorPoint: "m2m-1" -147 0 basemark 0
AnchorPoint: "m2m-3" 67 0 mark 0
AnchorPoint: "m2m-2" 67 0 mark 0
AnchorPoint: "m2m-5" 290 0 basemark 0
AnchorPoint: "VbWM" -67 0 mark 0
AnchorPoint: "VbNM" -67 0 mark 0
AnchorPoint: "m2b-4a" 0.0244141 -0.130859 mark 0
LayerCount: 2
Fore
SplineSet
30 -131 m 256
 74 -131 119 -176 119 -231 c 0
 119 -266 97 -288 66 -288 c 256
 19 -288 -22 -243 -22 -187 c 0
 -22 -152 -1 -131 30 -131 c 256
EndSplineSet
Validated: 1
MultipleSubs2: "AddHairspaceAfterMark-0 subtable" hiriq hairspace
MultipleSubs2: "AddHairspaceAfterMark subtable" hiriq hairspace
MultipleSubs2: "AddThinspaceAfterMark subtable" hiriq thinspace
Substitution2: "HiriqForFinalmem subtable" hiriqmem
Ligature2: "L2ccmpCgjZwjZwnjComatibility subtable" zerojoin hiriq
Ligature2: "L2ccmpCgjZwjZwnjComatibility subtable" cgj hiriq
LCarets2: 1 0 
Position2: "'position' Move Vowel to left-1" dx=-30 dy=0 dh=0 dv=0
EndChar

StartChar: tsere
Encoding: 136 1461 78
Width: 0
GlyphClass: 4
Flags: W
HStem: -288 157<-117.76 -11.131 107.981 214.318>
VStem: -135 140<-273.125 -145.804> 92 139<-273.429 -144.986>
AnchorPoint: "m2b-v2left" 70 0 mark 0
AnchorPoint: "m2b-vback" 0 0 mark 0
AnchorPoint: "m2b-v2r" -230 0 mark 0
AnchorPoint: "m2m-6e" 260 0 basemark 0
AnchorPoint: "VbWM" -180 0 mark 0
AnchorPoint: "VbNM" -180 0 mark 0
AnchorPoint: "m2m-5" 380 0 basemark 0
AnchorPoint: "m2m-2" 180 0 mark 0
AnchorPoint: "m2m-1" -260 0 basemark 0
AnchorPoint: "m2b-4b" -0.767578 0 mark 0
LayerCount: 2
Fore
SplineSet
179 -288 m 256
 135 -288 92 -243 92 -187 c 0
 92 -152 113 -131 143 -131 c 256
 190 -131 231 -177 231 -233 c 0
 231 -267 211 -288 179 -288 c 256
-47 -288 m 256
 -92 -288 -135 -242 -135 -186 c 0
 -135 -152 -114 -131 -83 -131 c 256
 -38 -131 5 -177 5 -232 c 0
 5 -267 -16 -288 -47 -288 c 256
EndSplineSet
Validated: 1
MultipleSubs2: "AddHairspaceAfterMark-0 subtable" tsere hairspace
MultipleSubs2: "AddHairspaceAfterMark subtable" tsere hairspace
MultipleSubs2: "AddThinspaceAfterMark subtable" tsere thinspace
Position2: "'position' Move Vowel to left-1" dx=-70 dy=0 dh=0 dv=0
EndChar

StartChar: segol
Encoding: 137 1462 79
Width: 0
GlyphClass: 4
Flags: W
HStem: -522 157<48.9811 156.019> -288 157<-117.76 -11.131 107.981 214.318>
VStem: -135 140<-273.125 -145.804> 33 139<-508.014 -379.571> 92 139<-273.429 -144.986>
AnchorPoint: "m2b-v2left" 70 0 mark 0
AnchorPoint: "m2b-vback" 0 0 mark 0
AnchorPoint: "m2b-v2r" -230 0 mark 0
AnchorPoint: "m2m-6e" 260 0 basemark 0
AnchorPoint: "VbWM" -180 0 mark 0
AnchorPoint: "VbNM" -180 0 mark 0
AnchorPoint: "m2m-5" 380 0 basemark 0
AnchorPoint: "m2m-2" 180 0 mark 0
AnchorPoint: "m2m-1" -260 0 basemark 0
AnchorPoint: "m2b-4b" -0.515625 1.2998 mark 0
LayerCount: 2
Fore
SplineSet
179 -288 m 256xe8
 135 -288 92 -243 92 -187 c 0
 92 -152 113 -131 143 -131 c 256
 190 -131 231 -177 231 -233 c 0
 231 -267 211 -288 179 -288 c 256xe8
121 -522 m 256
 74 -522 33 -476 33 -421 c 0
 33 -386 54 -365 84 -365 c 256
 130 -365 172 -410 172 -466 c 0xf0
 172 -501 151 -522 121 -522 c 256
-47 -288 m 256
 -92 -288 -135 -242 -135 -186 c 0
 -135 -152 -114 -131 -83 -131 c 256
 -38 -131 5 -177 5 -232 c 0
 5 -267 -16 -288 -47 -288 c 256
EndSplineSet
Validated: 1
MultipleSubs2: "AddHairspaceAfterMark-0 subtable" segol hairspace
MultipleSubs2: "AddHairspaceAfterMark subtable" segol hairspace
MultipleSubs2: "AddThinspaceAfterMark subtable" segol thinspace
Position2: "'position' Move Vowel to left-1" dx=-70 dy=0 dh=0 dv=0
EndChar

StartChar: patah
Encoding: 138 1463 80
Width: 0
GlyphClass: 4
Flags: W
HStem: -242 112<-124 210>
VStem: -150 386
AnchorPoint: "m2b-v2left" 70 0 mark 0
AnchorPoint: "m2b-vback" 0 0 mark 0
AnchorPoint: "m2b-v2r" -230 0 mark 0
AnchorPoint: "m2m-6e" 260 0 basemark 0
AnchorPoint: "VbWM" -180 0 mark 0
AnchorPoint: "VbNM" -180 0 mark 0
AnchorPoint: "m2b-pg" 0 0 mark 0
AnchorPoint: "m2m-5" 380 0 basemark 0
AnchorPoint: "m2m-2" 180 0 mark 0
AnchorPoint: "m2m-3" 167 0 mark 0
AnchorPoint: "m2m-1" -260 0 basemark 0
AnchorPoint: "m2b-4b" -0.383789 0 mark 0
LayerCount: 2
Fore
SplineSet
236 -242 m 1
 -124 -242 l 1
 -150 -130 l 1
 210 -130 l 1
 236 -242 l 1
EndSplineSet
Validated: 1
MultipleSubs2: "AddHairspaceAfterMark-0 subtable" patah hairspace
MultipleSubs2: "AddHairspaceAfterMark subtable" patah hairspace
MultipleSubs2: "AddThinspaceAfterMark subtable" patah thinspace
Position2: "'position' Move Vowel to left-1" dx=-70 dy=0 dh=0 dv=0
EndChar

StartChar: qamats
Encoding: 139 1464 81
Width: 0
GlyphClass: 4
Flags: W
HStem: -245 113<-121 40.7596 84 208>
VStem: -148 383
AnchorPoint: "m2b-v2left" 70 0 mark 0
AnchorPoint: "m2b-vback" 0 0 mark 0
AnchorPoint: "m2b-v2r" -230 0 mark 0
AnchorPoint: "m2m-6e" 260 0 basemark 0
AnchorPoint: "VbWM" -180 0 mark 0
AnchorPoint: "VbNM" -180 0 mark 0
AnchorPoint: "m2m-5" 380 0 basemark 0
AnchorPoint: "m2m-2" 180 0 mark 0
AnchorPoint: "m2m-1" -260.23 1 basemark 0
AnchorPoint: "m2b-4b" -0.383789 0 mark 0
LayerCount: 2
Fore
SplineSet
50 -357 m 0
 50 -312 41 -294 30 -245 c 1
 -121 -245 l 1
 -148 -132 l 1
 -29 -132 90 -132 208 -132 c 1
 235 -245 l 1
 84 -245 l 1
 89 -270 95 -294 101 -319 c 0
 103 -329 118 -371 132 -384 c 9
 189 -452 l 17
 183 -476 171 -518 128 -518 c 0
 125 -518 122 -518 120 -518 c 0
 117 -518 114 -518 112 -518 c 0
 105 -518 99 -518 92 -517 c 1
 56 -500 37 -476 19 -452 c 9
 46 -384 l 17
 49 -379 50 -368 50 -357 c 0
EndSplineSet
Validated: 1
MultipleSubs2: "AddHairspaceAfterMark-0 subtable" qamats
MultipleSubs2: "AddHairspaceAfterMark subtable" qamats
MultipleSubs2: "AddThinspaceAfterMark subtable" qamats
Substitution2: "ShevaAndQamatsForFinalkaf subtable" qamats_for_finalkaf
Position2: "'position' Move Vowel to left-1" dx=-70 dy=0 dh=0 dv=0
EndChar

StartChar: holam
Encoding: 140 1465 82
Width: 0
GlyphClass: 4
Flags: W
HStem: 1278 157<-366.869 -259.131>
VStem: -383 140<1292.57 1420.2>
AnchorPoint: "m2m-8" -147 0 basemark 0
AnchorPoint: "m2b-7d" 0 0 mark 0
AnchorPoint: "m2b-7c" 0 0 mark 0
AnchorPoint: "m2b-7b" 0 0 mark 0
AnchorPoint: "m2b-7a" 0 0 mark 0
LayerCount: 2
Fore
SplineSet
-331 1435 m 256
 -285 1435 -243 1389 -243 1334 c 0
 -243 1299 -264 1278 -295 1278 c 256
 -340 1278 -383 1323 -383 1379 c 0
 -383 1414 -362 1435 -331 1435 c 256
EndSplineSet
Validated: 1
EndChar

StartChar: qubuts
Encoding: 142 1467 84
Width: 0
GlyphClass: 4
Flags: W
HStem: -536 152<204.641 309.18> -408 152<24.0374 129.382> -279 152<-156.963 -51.6182>
VStem: -172 135<-265.631 -139.865> 9 135<-394.631 -268.865> 190 135<-523.277 -397.295>
CounterMasks: 1 1c
AnchorPoint: "m2b-v2left" 70 0 mark 0
AnchorPoint: "m2b-vback" 0 0 mark 0
AnchorPoint: "m2b-v2r" -250 0 mark 0
AnchorPoint: "m2m-6e" 296 0 basemark 0
AnchorPoint: "VbWM" -216 0 mark 0
AnchorPoint: "VbNM" -215.062 -0.599609 mark 0
AnchorPoint: "m2m-5" 416 0 basemark 0
AnchorPoint: "m2m-2" 216 0 mark 0
AnchorPoint: "m2m-1" -296 0 basemark 0
AnchorPoint: "m2b-4b" -2.35938 1 mark 0
LayerCount: 2
Fore
SplineSet
-122 -127 m 256x3c
 -80 -127 -37 -170 -37 -224 c 0
 -37 -257 -57 -279 -87 -279 c 256
 -129 -279 -172 -235 -172 -182 c 0
 -172 -150 -153 -127 -122 -127 c 256x3c
240 -384 m 256x9c
 282 -384 325 -429 325 -483 c 0
 325 -516 305 -536 275 -536 c 256
 232 -536 190 -493 190 -440 c 0
 190 -408 208 -384 240 -384 c 256x9c
59 -256 m 256x5c
 101 -256 144 -299 144 -353 c 0
 144 -386 124 -408 94 -408 c 256
 52 -408 9 -364 9 -311 c 0
 9 -279 28 -256 59 -256 c 256x5c
EndSplineSet
Validated: 1
MultipleSubs2: "AddHairspaceAfterMark-0 subtable" qubuts hairspace
MultipleSubs2: "AddHairspaceAfterMark subtable" qubuts hairspace
MultipleSubs2: "AddThinspaceAfterMark subtable" qubuts thinspace
Position2: "'position' Move Vowel to left-1" dx=-70 dy=0 dh=0 dv=0
EndChar

StartChar: dagesh
Encoding: 143 1468 85
Width: 0
GlyphClass: 4
Flags: W
HStem: 470 158<-179.76 -73.131>
VStem: -197 140<484.844 613.196>
AnchorPoint: "m2b-2" -0.25 0 mark 0
LayerCount: 2
Fore
SplineSet
-145 628 m 256
 -99 628 -57 582 -57 527 c 0
 -57 492 -78 470 -109 470 c 256
 -154 470 -197 516 -197 572 c 0
 -197 607 -176 628 -145 628 c 256
EndSplineSet
Validated: 1
EndChar

StartChar: meteg
Encoding: 144 1469 86
Width: 0
GlyphClass: 4
Flags: W
HStem: -518 374
VStem: -6 165
AnchorPoint: "m2b-v2left" 30 0 mark 0
AnchorPoint: "m2b-v2r" -210 0 mark 0
AnchorPoint: "m2m-6c" 790 0 basemark 0
AnchorPoint: "m2m-6b" 536 0 basemark 0
AnchorPoint: "m2m-6a" 323 0 basemark 0
AnchorPoint: "m2m-2" -120 0 basemark 0
AnchorPoint: "m2m-4" -120 0 basemark 0
AnchorPoint: "m2m-4" 39 0 mark 0
AnchorPoint: "m2m-1" 42 0 mark 0
AnchorPoint: "m2b-4a" 0.00390625 0 mark 0
LayerCount: 2
Fore
SplineSet
159 -518 m 1
 81 -518 l 1
 -6 -144 l 1
 72 -144 l 1
 159 -518 l 1
EndSplineSet
Validated: 1
MultipleSubs2: "AddHairspaceAfterMark-0 subtable" meteg hairspace
MultipleSubs2: "AddHairspaceAfterMark subtable" meteg hairspace
MultipleSubs2: "AddThinspaceAfterMark subtable" meteg thinspace
Ligature2: "L2ccmpCgjZwjZwnjComatibility subtable" zerononjoin meteg
Ligature2: "L2ccmpCgjZwjZwnjComatibility subtable" meteg cgj
Ligature2: "L2ccmpCgjZwjZwnjComatibility subtable" cgj meteg
LCarets2: 1 0 
Position2: "'position' Move Low Accent to Right-1" dx=200 dy=0 dh=0 dv=0
Position2: "'position' Meteg before Narrow Vowel-1" dx=214 dy=0 dh=0 dv=0
Position2: "'position' Meteg before Wide Vowel-1" dx=360 dy=0 dh=0 dv=0
Position2: "'position' Meteg before Hataf-1" dx=494 dy=0 dh=0 dv=0
Position2: "'position' Move Vowel to left-1" dx=-30 dy=0 dh=0 dv=0
EndChar

StartChar: makaf
Encoding: 145 1470 87
Width: 942
GlyphClass: 2
Flags: W
HStem: 901 213<-62.4924 553.549>
VStem: -85 664<909.765 1104>
AnchorPoint: "m2b-8c" 628 0 basechar 0
AnchorPoint: "m2b-8b" 131 0 basechar 0
AnchorPoint: "m2b-8a" 510 0 basechar 0
LayerCount: 2
Fore
SplineSet
-9 901 m 2
 -57 901 -85 911 -85 959 c 0
 -85 977 -80 1004 -65 1065 c 1
 -52 1106 -37 1114 15 1114 c 2
 513 1114 l 2
 546 1114 579 1110 579 1071 c 0
 579 1056 574 1041 570 1023 c 2
 556 953 l 2
 548 910 536 901 484 901 c 2
 -9 901 l 2
EndSplineSet
Validated: 1
EndChar

StartChar: rafe
Encoding: 146 1471 88
Width: 0
GlyphClass: 4
Flags: W
HStem: 1275 115<-521.559 -93.3405>
VStem: -529 442<1276.26 1388.78>
AnchorPoint: "m2m-rafe" -46.1738 200 basemark 0
AnchorPoint: "m2b-3" 0 0 mark 0
LayerCount: 2
Fore
SplineSet
-498 1275 m 1
 -514 1302 -529 1325 -529 1361 c 0
 -529 1372 -528 1381 -526 1390 c 1
 -118 1390 l 1
 -100 1364 -87 1343 -87 1307 c 0
 -87 1296 -88 1285 -89 1275 c 1
 -498 1275 l 1
EndSplineSet
Validated: 1
EndChar

StartChar: paseq
Encoding: 147 1472 89
Width: 471
VWidth: 1961
GlyphClass: 2
Flags: W
HStem: 0 21G<150.39 324>
VStem: -108 432
LayerCount: 2
Fore
SplineSet
61 1141 m 1
 324 0 l 1
 155 0 l 1
 -108 1141 l 1
 61 1141 l 1
EndSplineSet
Validated: 1
EndChar

StartChar: shindot
Encoding: 148 1473 90
Width: 0
GlyphClass: 4
Flags: W
HStem: 1140 157<-335.705 -226.715>
VStem: -352 141<1154.57 1282.47>
AnchorPoint: "m2b-0" -398.5 0 mark 0
LayerCount: 2
Fore
SplineSet
-299 1297 m 256
 -253 1297 -211 1252 -211 1197 c 0
 -211 1162 -233 1140 -263 1140 c 256
 -308 1140 -352 1185 -352 1241 c 0
 -352 1276 -331 1297 -299 1297 c 256
EndSplineSet
Validated: 1
EndChar

StartChar: sofpasuq
Encoding: 150 1475 92
Width: 574
VWidth: 1949
GlyphClass: 2
Flags: W
VStem: -82 556
LayerCount: 2
Fore
SplineSet
314 -50 m 1
 68 150 l 1
 215 359 l 1
 474 154 l 1
 314 -50 l 1
163 584 m 1
 -82 786 l 1
 68 982 l 1
 324 789 l 1
 163 584 l 1
EndSplineSet
Validated: 1
EndChar

StartChar: upperdot
Encoding: 151 1476 93
Width: 0
GlyphClass: 4
Flags: W
HStem: 1428 310
VStem: -493 255
AnchorPoint: "m2b-1" 44.793 -194.02 mark 0
LayerCount: 2
Fore
SplineSet
-238 1580 m 1
 -330 1428 l 1
 -493 1583 l 1
 -405 1738 l 1
 -238 1580 l 1
EndSplineSet
Validated: 1
EndChar

StartChar: lowerdot
Encoding: 152 1477 94
Width: 0
GlyphClass: 4
Flags: W
HStem: -552 310
VStem: -36 257
AnchorPoint: "m2b-1" -61.9346 272.6 mark 0
LayerCount: 2
Fore
SplineSet
221 -401 m 1
 127 -552 l 1
 -36 -397 l 1
 52 -242 l 1
 221 -401 l 1
EndSplineSet
Validated: 1
EndChar

StartChar: nunhapukha
Encoding: 153 1478 95
Width: 810
GlyphClass: 2
Flags: W
AnchorPoint: "m2b-8c" 492 0 basechar 0
AnchorPoint: "m2b-8b" 166 0 basechar 0
AnchorPoint: "m2b-8a" 336 0 basechar 0
AnchorPoint: "m2b-1" 400 0 basechar 0
LayerCount: 2
Fore
SplineSet
131 1107 m 1
 217 1140 250 1210 261 1210 c 0
 273 1210 309 1137 329 1067 c 2
 361 957 l 1
 361 956 361 954 361 953 c 0
 361 931 321 906 271 894 c 1
 242 886 217 872 193 857 c 1
 175 840 169 820 169 794 c 0
 169 764 179 726 187 682 c 2
 261 296 l 1
 275 236 302 232 347 228 c 2
 613 204 l 18
 685 197 685 194 700 132 c 2
 723 30 l 2
 728 9 731 -6 731 -15 c 0
 731 -28 725 -32 709 -32 c 0
 700 -32 687 -31 672 -29 c 10
 322 3 l 2
 250 10 221 41 199 119 c 1
 51 772 l 2
 39 823 6 827 6 827 c 25
 -46 816 l 18
 -47 816 -47 816 -48 816 c 0
 -63 816 -78 857 -91 912 c 9
 -112 987 l 18
 -113 992 -113 996 -113 1000 c 0
 -113 1027 -91 1041 -57 1057 c 9
 131 1107 l 1
EndSplineSet
Validated: 1
EndChar

StartChar: qamatsqatan
Encoding: 154 1479 96
Width: 0
GlyphClass: 4
Flags: W
HStem: -239 113<-96 44.2045 76 180>
VStem: 40 107<-530.983 -480.124>
AnchorPoint: "m2b-v2left" 70 0 mark 0
AnchorPoint: "m2b-vback" 0 0 mark 0
AnchorPoint: "m2b-v2r" -230 0 mark 0
AnchorPoint: "m2m-6e" 260 0 basemark 0
AnchorPoint: "VbWM" -180 0 mark 0
AnchorPoint: "VbNM" -180 0 mark 0
AnchorPoint: "m2m-5" 380.115 -0.5 basemark 0
AnchorPoint: "m2m-2" 180.115 -0.5 mark 0
AnchorPoint: "m2m-1" -259.885 -0.5 basemark 0
AnchorPoint: "m2b-4b" 0.0488281 -0.5 mark 0
LayerCount: 2
Fore
SplineSet
34 -239 m 1
 -96 -239 l 1
 -122 -126 l 1
 180 -126 l 1
 206 -239 l 1
 76 -239 l 1
 90 -298 100 -366 129 -410 c 9
 182 -479 l 17
 176 -503 168 -525 147 -544 c 1
 140 -545 133 -546 126 -546 c 0
 118 -546 111 -545 105 -544 c 1
 73 -527 55 -503 40 -479 c 9
 60 -410 l 17
 62 -405 62 -397 62 -388 c 0
 62 -371 60 -351 59 -345 c 10
 59 -345 38 -255 34 -239 c 1
EndSplineSet
Validated: 1
MultipleSubs2: "AddHairspaceAfterMark-0 subtable" qamatsqatan hairspace
MultipleSubs2: "AddHairspaceAfterMark subtable" qamatsqatan hairspace
MultipleSubs2: "AddThinspaceAfterMark subtable" qamatsqatan thinspace
Position2: "'position' Move Vowel to left-1" dx=-70 dy=0 dh=0 dv=0
EndChar

StartChar: alef
Encoding: 155 1488 97
Width: 1229
GlyphClass: 2
Flags: W
HStem: 0 228<214.536 443.305>
AnchorPoint: "m2b-3" 580 0 basechar 0
AnchorPoint: "m2b-v2r" 696 0 basechar 0
AnchorPoint: "HbNM" 440 0 basechar 0
AnchorPoint: "VbWM" 600 0 basechar 0
AnchorPoint: "VbNM" 580 0 basechar 0
AnchorPoint: "m2b-10" -330 0 basechar 0
AnchorPoint: "HbWM" 565 0 basechar 0
AnchorPoint: "m2b-7c" -220 0 basechar 0
AnchorPoint: "m2b-7b" 183 0 basechar 0
AnchorPoint: "m2b-9" 720 0 basechar 0
AnchorPoint: "m2b-5b" 590 0 basechar 0
AnchorPoint: "m2b-5a" 696 0 basechar 0
AnchorPoint: "m2b-8c" 900 0 basechar 0
AnchorPoint: "m2b-8b" 123 0 basechar 0
AnchorPoint: "m2b-8a" 570 0 basechar 0
AnchorPoint: "m2b-7a" 163 0 basechar 0
AnchorPoint: "m2b-4d" 650 0 basechar 0
AnchorPoint: "m2b-4c" 650 0 basechar 0
AnchorPoint: "m2b-4b" 696 0 basechar 0
AnchorPoint: "m2b-4a" 696 0 basechar 0
AnchorPoint: "m2b-1" 570 0 basechar 0
LayerCount: 2
Fore
SplineSet
208 295 m 1
 222 233 230 228 307 228 c 10
 371 228 l 2
 424 228 436 221 446 176 c 2
 470 72 l 2
 475 52 478 37 478 26 c 0
 478 5 464 0 417 0 c 10
 242 0 l 18
 179 0 177 12 160 77 c 9
 7 827 l 1
 -21 843 -64 862 -91 954 c 1
 -136 1150 l 2
 -137 1153 -137 1155 -137 1158 c 0
 -137 1172 -126 1176 -117 1176 c 0
 -113 1176 -110 1175 -108 1174 c 0
 -92 1163 83 1027 142 980 c 2
 490 708 l 9
 637 1133 l 18
 644 1151 652 1168 669 1168 c 0
 677 1168 688 1164 702 1153 c 10
 813 1066 l 2
 869 1023 879 1002 886 976 c 0
 888 967 892 955 894 941 c 2
 909 874 l 1
 911 861 912 849 912 839 c 0
 912 801 900 782 877 782 c 0
 864 782 848 788 826 800 c 2
 751 844 l 1
 723 863 704 873 690 873 c 0
 675 873 664 862 651 841 c 1
 644 839 589 709 589 709 c 1
 583 692 580 679 580 667 c 0
 580 636 601 619 637 593 c 1
 951 347 l 2
 1025 290 1017 284 1032 222 c 2
 1077 25 l 2
 1078 22 1078 20 1078 18 c 0
 1078 3 1065 0 1056 0 c 0
 1053 0 1050 -1 1048 0 c 0
 1033 11 880 134 820 181 c 2
 235 646 l 2
 194 679 169 696 154 696 c 0
 144 696 139 686 139 666 c 0
 139 653 141 635 145 612 c 2
 208 295 l 1
EndSplineSet
Validated: 1
MultipleSubs2: "Addhairspacebeforeletter-0 subtable" hairspace alef
MultipleSubs2: "AddHairspaceAfterMark-0 subtable" alef hairspace
MultipleSubs2: "Addhairspacebeforeletter subtable" hairspace alef
MultipleSubs2: "Addthinspacebeforeletter subtable" thinspace alef
MultipleSubs2: "AddHairspaceAfterMark subtable" alef hairspace
MultipleSubs2: "AddThinspaceAfterMark subtable" alef thinspace
Substitution2: "jaltWideLetterAlternativesinHeb subtable" alef.wide
EndChar

StartChar: bet
Encoding: 156 1489 98
Width: 1056
GlyphClass: 2
Flags: W
HStem: -39 236<81.1778 249.647>
AnchorPoint: "m2b-v2r" 497 0 basechar 0
AnchorPoint: "VbWM" 580 0 basechar 0
AnchorPoint: "VbNM" 500 0 basechar 0
AnchorPoint: "m2b-10" -330 0 basechar 0
AnchorPoint: "m2b-7c" -220 0 basechar 0
AnchorPoint: "m2b-7b" 207 0 basechar 0
AnchorPoint: "m2b-3" 494.911 0 basechar 0
AnchorPoint: "m2b-9" 642 0 basechar 0
AnchorPoint: "m2b-5b" 450 0 basechar 0
AnchorPoint: "m2b-5a" 496.824 0 basechar 0
AnchorPoint: "m2b-8c" 761.824 0 basechar 0
AnchorPoint: "m2b-8b" 123 0 basechar 0
AnchorPoint: "m2b-8a" 491.824 0 basechar 0
AnchorPoint: "m2b-7a" 187 0 basechar 0
AnchorPoint: "m2b-4d" 496.824 0 basechar 0
AnchorPoint: "m2b-4c" 496.824 0 basechar 0
AnchorPoint: "m2b-4b" 497 0 basechar 0
AnchorPoint: "m2b-4a" 496.824 0 basechar 0
AnchorPoint: "m2b-1" 497 0 basechar 0
LayerCount: 2
Fore
SplineSet
52 904 m 2
 -39 914 -55 911 -65 952 c 2
 -94 1080 l 2
 -100 1105 -102 1126 -102 1142 c 0
 -102 1172 -95 1188 -87 1188 c 0
 -77 1188 -38 1138 63 1128 c 2
 494 1082 l 17
 615 1073 618 1066 653 922 c 1
 791 312 l 2
 799 277 805 269 819 269 c 0
 831 269 851 276 886 276 c 0
 914 276 917 265 928 215 c 2
 952 111 l 2
 957 91 960 77 960 68 c 0
 960 47 946 44 899 39 c 10
 154 -36 l 18
 140 -38 127 -39 118 -39 c 0
 90 -39 87 -27 76 23 c 2
 52 125 l 2
 48 145 44 158 44 168 c 0
 44 189 59 192 106 197 c 2
 607 247 l 2
 675 254 707 257 707 280 c 0
 707 284 706 289 706 292 c 2
 554 783 l 1
 540 826 527 853 429 863 c 10
 52 904 l 2
EndSplineSet
Validated: 1
MultipleSubs2: "Addhairspacebeforeletter-0 subtable" hairspace bet
MultipleSubs2: "AddHairspaceAfterMark-0 subtable" bet hairspace
MultipleSubs2: "Addhairspacebeforeletter subtable" hairspace bet
MultipleSubs2: "Addthinspacebeforeletter subtable" thinspace bet
MultipleSubs2: "AddHairspaceAfterMark subtable" bet hairspace
MultipleSubs2: "AddThinspaceAfterMark subtable" bet thinspace
EndChar

StartChar: gimel
Encoding: 157 1490 99
Width: 737
GlyphClass: 2
Flags: W
HStem: -12 21G<541.5 553>
VStem: 266 87<633.478 851.176>
AnchorPoint: "m2b-v2r" 359 0 basechar 0
AnchorPoint: "VbWM" 428 0 basechar 0
AnchorPoint: "VbNM" 400 0 basechar 0
AnchorPoint: "m2b-10" -330 0 basechar 0
AnchorPoint: "m2b-7d" 5 0 basechar 0
AnchorPoint: "m2b-7c" -220 0 basechar 0
AnchorPoint: "m2b-7b" 245 0 basechar 0
AnchorPoint: "m2b-3" 400 0 basechar 0
AnchorPoint: "m2b-9" 550 0 basechar 0
AnchorPoint: "m2b-5b" 196.866 10 basechar 0
AnchorPoint: "m2b-5a" 359 0 basechar 0
AnchorPoint: "m2b-8c" 529.404 0 basechar 0
AnchorPoint: "m2b-8b" 119.175 0 basechar 0
AnchorPoint: "m2b-8a" 400 0 basechar 0
AnchorPoint: "m2b-7a" 225 0 basechar 0
AnchorPoint: "m2b-4d" 359.174 0 basechar 0
AnchorPoint: "m2b-4c" 359.174 0 basechar 0
AnchorPoint: "m2b-4b" 359 0 basechar 0
AnchorPoint: "m2b-4a" 359.174 0 basechar 0
AnchorPoint: "m2b-1" 390 0 basechar 0
LayerCount: 2
Fore
SplineSet
549 -12 m 0
 534 -12 484 99 440 206 c 1
 141 -47 l 2
 130 -56 116 -56 107 -56 c 0
 79 -56 74 -38 62 12 c 2
 39 114 l 2
 37 119 37 124 37 128 c 0
 37 146 51 153 92 186 c 2
 365 408 l 1
 280 628 l 1
 271 645 266 663 266 684 c 0
 266 709 275 723 275 749 c 0
 275 801 250 844 203 863 c 0
 116 898 -19 929 -31 981 c 2
 -53 1073 l 2
 -59 1102 -62 1128 -62 1147 c 0
 -62 1175 -57 1191 -50 1191 c 0
 -40 1191 7 1148 108 1114 c 2
 266 1061 l 18
 289 1053 343 1027 350 996 c 1
 372 930 l 1
 375 920 379 900 379 895 c 0
 379 853 353 780 353 744 c 0
 353 738 354 734 355 729 c 0
 374 680 395 632 461 487 c 1
 478 500 506 520 512 520 c 0
 532 520 539 501 551 451 c 2
 564 392 l 2
 569 372 572 357 572 345 c 0
 572 325 564 311 545 293 c 1
 599 172 l 1
 607 151 l 2
 614 134 619 123 619 105 c 0
 619 89 612 77 596 53 c 1
 573 13 557 -12 549 -12 c 0
EndSplineSet
Validated: 1
MultipleSubs2: "Addhairspacebeforeletter-0 subtable" hairspace gimel
MultipleSubs2: "AddHairspaceAfterMark-0 subtable" gimel hairspace
MultipleSubs2: "Addhairspacebeforeletter subtable" hairspace gimel
MultipleSubs2: "Addthinspacebeforeletter subtable" thinspace gimel
MultipleSubs2: "AddHairspaceAfterMark subtable" gimel hairspace
MultipleSubs2: "AddThinspaceAfterMark subtable" gimel thinspace
EndChar

StartChar: dalet
Encoding: 158 1491 100
Width: 1071
GlyphClass: 2
Flags: W
HStem: 903 226<-99.1488 544.248>
VStem: -139 871<931.182 1125.61>
AnchorPoint: "m2b-v2left" 803 0 basechar 0
AnchorPoint: "m2b-10" -330 0 basechar 0
AnchorPoint: "m2b-7c" -220 0 basechar 0
AnchorPoint: "m2b-7b" 171 0 basechar 0
AnchorPoint: "m2b-3" 500 0 basechar 0
AnchorPoint: "m2b-9" 712.309 -10 basechar 0
AnchorPoint: "m2b-5b" 500 0 basechar 0
AnchorPoint: "m2b-5a" 803 0 basechar 0
AnchorPoint: "m2b-8c" 765 0 basechar 0
AnchorPoint: "m2b-8b" 96 0 basechar 0
AnchorPoint: "m2b-8a" 560.213 0 basechar 0
AnchorPoint: "m2b-7a" 151 0 basechar 0
AnchorPoint: "m2b-4d" 700 0 basechar 0
AnchorPoint: "m2b-4c" 669 0 basechar 0
AnchorPoint: "m2b-4b" 803 0 basechar 0
AnchorPoint: "m2b-4a" 803 0 basechar 0
AnchorPoint: "m2b-1" 503 0 basechar 0
LayerCount: 2
Fore
SplineSet
17 903 m 2
 -72 903 -90 904 -101 952 c 2
 -130 1080 l 2
 -136 1106 -139 1127 -139 1144 c 0
 -139 1173 -132 1188 -123 1188 c 0
 -114 1188 -71 1129 27 1129 c 2
 531 1127 l 2
 629 1127 645 1186 654 1186 c 0
 669 1186 696 1145 711 1078 c 2
 729 996 l 2
 731 988 732 980 732 972 c 0
 732 937 711 913 651 892 c 1
 720 641 789 391 858 140 c 1
 863 119 l 2
 866 103 868 91 868 81 c 0
 868 62 860 50 837 26 c 1
 809 -9 792 -29 779 -29 c 0
 760 -29 748 16 721 129 c 10
 574 766 l 17
 540 901 540 903 416 903 c 2
 17 903 l 2
EndSplineSet
Validated: 1
MultipleSubs2: "Addhairspacebeforeletter-0 subtable" hairspace dalet
MultipleSubs2: "AddHairspaceAfterMark-0 subtable" dalet hairspace
MultipleSubs2: "Addhairspacebeforeletter subtable" hairspace dalet
MultipleSubs2: "Addthinspacebeforeletter subtable" thinspace dalet
MultipleSubs2: "AddHairspaceAfterMark subtable" dalet hairspace
MultipleSubs2: "AddThinspaceAfterMark subtable" dalet thinspace
Substitution2: "jaltWideLetterAlternativesinHeb subtable" dalet.wide
EndChar

StartChar: he
Encoding: 159 1492 101
Width: 1218
GlyphClass: 2
Flags: W
HStem: 905 223<-82.4336 710.637>
AnchorPoint: "m2b-v2r" 629 0 basechar 0
AnchorPoint: "HbWM" 500 0 basechar 0
AnchorPoint: "HbNM" 400 0 basechar 0
AnchorPoint: "VbWM" 600 0 basechar 0
AnchorPoint: "VbNM" 550 0 basechar 0
AnchorPoint: "m2b-10" -330 0 basechar 0
AnchorPoint: "m2b-7c" -220 0 basechar 0
AnchorPoint: "m2b-7b" 189 0 basechar 0
AnchorPoint: "m2b-pg" 1050 0 basechar 0
AnchorPoint: "m2b-3" 583 0 basechar 0
AnchorPoint: "m2b-9" 750 0 basechar 0
AnchorPoint: "m2b-5b" 585.213 0 basechar 0
AnchorPoint: "m2b-5a" 590 0 basechar 0
AnchorPoint: "m2b-8c" 901 0 basechar 0
AnchorPoint: "m2b-8b" 115.213 0 basechar 0
AnchorPoint: "m2b-8a" 600 0 basechar 0
AnchorPoint: "m2b-7a" 169 0 basechar 0
AnchorPoint: "m2b-4d" 600 0 basechar 0
AnchorPoint: "m2b-4c" 600 0 basechar 0
AnchorPoint: "m2b-4b" 629 0 basechar 0
AnchorPoint: "m2b-4a" 620.213 0 basechar 0
AnchorPoint: "m2b-1" 625.213 0 basechar 0
LayerCount: 2
Fore
SplineSet
35 902 m 2
 -54 902 -71 903 -83 951 c 2
 -112 1079 l 2
 -118 1105 -120 1126 -120 1143 c 0
 -120 1172 -113 1187 -105 1187 c 0
 -96 1187 -52 1128 46 1128 c 2
 671 1128 l 2
 769 1128 785 1187 794 1187 c 0
 808 1187 836 1146 851 1079 c 2
 869 997 l 2
 872 981 876 966 876 954 c 0
 876 929 863 910 816 894 c 1
 831 823 1021 146 1022 142 c 2
 1027 121 l 2
 1031 105 1033 93 1033 83 c 0
 1033 64 1024 52 1002 28 c 1
 974 -7 956 -27 943 -27 c 0
 924 -27 913 18 886 131 c 10
 739 768 l 17
 706 895 704 905 602 905 c 0
 595 905 588 905 580 905 c 2
 35 902 l 2
183 -28 m 0
 166 -28 148 53 130 130 c 10
 42 513 l 2
 38 527 37 538 37 546 c 0
 37 567 46 576 66 606 c 0
 91 642 99 658 111 658 c 0
 129 658 141 613 168 500 c 9
 265 120 l 2
 269 106 270 95 270 86 c 0
 270 64 260 52 238 27 c 1
 212 -8 195 -28 183 -28 c 0
EndSplineSet
Validated: 1
MultipleSubs2: "Addhairspacebeforeletter-0 subtable" hairspace he
MultipleSubs2: "AddHairspaceAfterMark-0 subtable" he hairspace
MultipleSubs2: "Addhairspacebeforeletter subtable" hairspace he
MultipleSubs2: "Addthinspacebeforeletter subtable" thinspace he
MultipleSubs2: "AddHairspaceAfterMark subtable" he hairspace
MultipleSubs2: "AddThinspaceAfterMark subtable" he thinspace
Substitution2: "jaltWideLetterAlternativesinHeb subtable" he.wide
EndChar

StartChar: vav
Encoding: 160 1493 102
Width: 588
GlyphClass: 2
Flags: W
VStem: 369 75<-34.9697 141.312>
AnchorPoint: "m2b-v2left" 410 0 basechar 0
AnchorPoint: "VbWM" 446 0 basechar 0
AnchorPoint: "VbNM" 390 0 basechar 0
AnchorPoint: "m2b-10" -330 0 basechar 0
AnchorPoint: "m2b-7d" -90 0 basechar 0
AnchorPoint: "m2b-7c" -220 0 basechar 0
AnchorPoint: "m2b-7b" 149 0 basechar 0
AnchorPoint: "m2b-7a" 129 0 basechar 0
AnchorPoint: "m2b-9" 430 0 basechar 0
AnchorPoint: "m2b-5b" 80 0 basechar 0
AnchorPoint: "m2b-5a" 410 0 basechar 0
AnchorPoint: "m2b-8c" 369 0 basechar 0
AnchorPoint: "m2b-8b" 53.7773 0 basechar 0
AnchorPoint: "m2b-8a" 280 0 basechar 0
AnchorPoint: "m2b-4d" 300 0 basechar 0
AnchorPoint: "m2b-4c" 300 0 basechar 0
AnchorPoint: "m2b-4b" 410 0 basechar 0
AnchorPoint: "m2b-4a" 410 0 basechar 0
AnchorPoint: "m2b-1" 273.778 0 basechar 0
LayerCount: 2
Fore
SplineSet
-139 1026 m 0
 -149 1071 -161 1134 -161 1172 c 0
 -161 1192 -158 1205 -149 1205 c 0
 -139 1205 -93 1153 9 1128 c 2
 128 1099 l 18
 194 1083 218 1003 259 836 c 1
 439 56 l 2
 442 41 444 26 444 13 c 0
 444 -15 436 -37 415 -37 c 0
 399 -37 383 -18 369 24 c 8
 313 208 264 398 211 585 c 1
 146 798 l 2
 133 839 109 871 58 886 c 9
 21 896 l 2
 -33 911 -69 921 -97 940 c 1
 -123 967 -132 996 -139 1026 c 0
EndSplineSet
Validated: 1
MultipleSubs2: "Addhairspacebeforeletter-0 subtable" hairspace vav
MultipleSubs2: "AddHairspaceAfterMark-0 subtable" vav hairspace
MultipleSubs2: "Addhairspacebeforeletter subtable" hairspace vav
MultipleSubs2: "Addthinspacebeforeletter subtable" thinspace vav
MultipleSubs2: "AddHairspaceAfterMark subtable" vav hairspace
MultipleSubs2: "AddThinspaceAfterMark subtable" vav thinspace
EndChar

StartChar: zayin
Encoding: 161 1494 103
Width: 585
GlyphClass: 2
Flags: W
VStem: 80 72<659.745 863.278> 271 141<-23.1699 96>
AnchorPoint: "m2b-v2left" 340 0 basechar 0
AnchorPoint: "VbWM" 351 0 basechar 0
AnchorPoint: "VbNM" 300 0 basechar 0
AnchorPoint: "m2b-10" -330 0 basechar 0
AnchorPoint: "m2b-7d" -90 0 basechar 0
AnchorPoint: "m2b-7c" -220 0 basechar 0
AnchorPoint: "m2b-7b" 150 0 basechar 0
AnchorPoint: "m2b-9" 450 0 basechar 0
AnchorPoint: "m2b-5b" 35 0 basechar 0
AnchorPoint: "m2b-5a" 340 0 basechar 0
AnchorPoint: "m2b-8c" 328 0 basechar 0
AnchorPoint: "m2b-8b" 41 0 basechar 0
AnchorPoint: "m2b-8a" 300 0 basechar 0
AnchorPoint: "m2b-7a" 130 0 basechar 0
AnchorPoint: "m2b-4d" 250 0 basechar 0
AnchorPoint: "m2b-4c" 319 0 basechar 0
AnchorPoint: "m2b-4b" 340 0 basechar 0
AnchorPoint: "m2b-4a" 340 0 basechar 0
AnchorPoint: "m2b-1" 300 0 basechar 0
LayerCount: 2
Fore
SplineSet
-130 995 m 2
 -151 1087 l 2
 -158 1116 -160 1142 -160 1161 c 0
 -160 1189 -155 1205 -148 1205 c 0
 -138 1205 -91 1158 10 1128 c 2
 145 1088 l 18
 167 1081 224 1068 231 1038 c 2
 253 946 l 2
 254 939 255 933 255 927 c 0
 255 875 195 868 185 863 c 0
 160 852 152 833 152 807 c 0
 152 789 156 767 162 741 c 0
 201 572 386 214 408 118 c 0
 411 105 412 93 412 81 c 0
 412 1 349 -44 337 -44 c 0
 315 -44 302 7 271 96 c 10
 115 530 l 17
 109 541 82 626 80 635 c 0
 77 651 80 667 80 685 c 0
 80 708 80 733 80 759 c 0
 80 827 60 869 18 893 c 0
 -38 925 -114 927 -130 995 c 2
EndSplineSet
Validated: 1
MultipleSubs2: "Addhairspacebeforeletter-0 subtable" hairspace zayin
MultipleSubs2: "AddHairspaceAfterMark-0 subtable" zayin hairspace
MultipleSubs2: "Addhairspacebeforeletter subtable" hairspace zayin
MultipleSubs2: "Addthinspacebeforeletter subtable" thinspace zayin
MultipleSubs2: "AddHairspaceAfterMark subtable" zayin hairspace
MultipleSubs2: "AddThinspaceAfterMark subtable" zayin thinspace
EndChar

StartChar: het
Encoding: 162 1495 104
Width: 1160
GlyphClass: 2
Flags: W
HStem: -12 21G<240.5 251 907.5 923.5> 901 227<150.075 610.248>
VStem: 4 143<677.255 896.359> 103 156<144 345.875>
AnchorPoint: "m2b-v2r" 586 0 basechar 0
AnchorPoint: "HbWM" 459 0 basechar 0
AnchorPoint: "HbNM" 414 0 basechar 0
AnchorPoint: "VbWM" 600 0 basechar 0
AnchorPoint: "VbNM" 500 0 basechar 0
AnchorPoint: "m2b-10" -330 0 basechar 0
AnchorPoint: "m2b-7c" -220 0 basechar 0
AnchorPoint: "m2b-7b" 184 0 basechar 0
AnchorPoint: "m2b-pg" 1010 0 basechar 0
AnchorPoint: "m2b-9" 726 0 basechar 0
AnchorPoint: "m2b-5b" 570 0 basechar 0
AnchorPoint: "m2b-5a" 586.106 0 basechar 0
AnchorPoint: "m2b-8c" 860 0 basechar 0
AnchorPoint: "m2b-8b" 107 0 basechar 0
AnchorPoint: "m2b-8a" 576.106 0 basechar 0
AnchorPoint: "m2b-7a" 164 0 basechar 0
AnchorPoint: "m2b-4d" 586 0 basechar 0
AnchorPoint: "m2b-4c" 586.106 0 basechar 0
AnchorPoint: "m2b-4b" 586.106 0 basechar 0
AnchorPoint: "m2b-4a" 586.106 0 basechar 0
AnchorPoint: "m2b-2" 586.106 0 basechar 0
AnchorPoint: "m2b-1" 576.106 0 basechar 0
LayerCount: 2
Fore
SplineSet
742 894 m 1xe0
 758 821 970 186 971 180 c 2
 984 144 l 2
 993 117 996 107 996 81 c 0
 996 67 992 54 977 36 c 0
 949 1 930 -12 917 -12 c 0
 898 -12 879 38 842 154 c 9
 655 768 l 17
 605 894 589 901 487 901 c 2
 255 901 l 2
 169 901 147 896 147 819 c 0xe0
 147 804 147 788 149 768 c 9
 244 154 l 18
 254 91 259 47 259 20 c 0
 259 -2 255 -12 247 -12 c 0
 234 -12 209 1 165 36 c 1
 120 70 115 89 108 144 c 2
 103 180 l 2xd0
 103 184 21 825 4 894 c 1
 -80 919 -85 949 -97 997 c 0
 -107 1040 -126 1095 -126 1143 c 0
 -126 1172 -118 1187 -110 1187 c 0
 -101 1187 -57 1128 41 1128 c 2
 597 1128 l 2
 695 1128 711 1187 720 1187 c 0
 734 1187 762 1146 777 1079 c 2
 795 997 l 2
 798 981 802 966 802 954 c 0
 802 929 789 910 742 894 c 1xe0
EndSplineSet
Validated: 1
MultipleSubs2: "Addhairspacebeforeletter-0 subtable" hairspace het
MultipleSubs2: "AddHairspaceAfterMark-0 subtable" het hairspace
MultipleSubs2: "Addhairspacebeforeletter subtable" hairspace het
MultipleSubs2: "Addthinspacebeforeletter subtable" thinspace het
MultipleSubs2: "AddHairspaceAfterMark subtable" het hairspace
MultipleSubs2: "AddThinspaceAfterMark subtable" het thinspace
EndChar

StartChar: tet
Encoding: 163 1496 105
Width: 1082
GlyphClass: 2
Flags: W
HStem: -23 237<261.901 547.919> 912 201<481.372 602.961>
VStem: 29 86<514.544 808.396> 417 67<729.249 842.732> 782 93<320.577 616.5>
AnchorPoint: "m2b-v2r" 485 0 basechar 0
AnchorPoint: "VbWM" 600 0 basechar 0
AnchorPoint: "VbNM" 500 0 basechar 0
AnchorPoint: "m2b-10" -330 0 basechar 0
AnchorPoint: "m2b-7c" -220 0 basechar 0
AnchorPoint: "m2b-7b" 150 0 basechar 0
AnchorPoint: "m2b-9" 650 0 basechar 0
AnchorPoint: "m2b-5b" 470 0 basechar 0
AnchorPoint: "m2b-5a" 485 0 basechar 0
AnchorPoint: "m2b-8c" 751 0 basechar 0
AnchorPoint: "m2b-8b" 123 0 basechar 0
AnchorPoint: "m2b-8a" 500 0 basechar 0
AnchorPoint: "m2b-7a" 130 0 basechar 0
AnchorPoint: "m2b-4d" 570 0 basechar 0
AnchorPoint: "m2b-4c" 600 0 basechar 0
AnchorPoint: "m2b-4b" 485 0 basechar 0
AnchorPoint: "m2b-4a" 484.75 0 basechar 0
AnchorPoint: "m2b-1" 500 0 basechar 0
LayerCount: 2
Fore
SplineSet
484 766 m 0
 484 738 460 729 447 729 c 0
 431 729 418 739 417 741 c 0
 399 811 366 929 346 1013 c 0
 341 1034 338 1052 338 1068 c 0
 338 1095 349 1112 382 1113 c 2
 387 1113 l 2
 443 1113 484 1096 565 1079 c 1
 685 1051 766 1003 797 874 c 0
 839 694 875 453 875 323 c 0
 875 297 873 276 870 258 c 0
 855 171 860 120 738 78 c 0
 520 3 341 -23 295 -23 c 0
 245 -23 232 10 198 98 c 1
 57 500 l 1
 49 526 l 2
 36 569 29 591 29 633 c 0
 29 709 70 772 70 810 c 0
 70 838 39 875 7 891 c 1
 -87 929 -103 946 -119 1008 c 10
 -151 1147 l 18
 -154 1159 -155 1169 -155 1176 c 0
 -155 1188 -151 1193 -145 1193 c 0
 -132 1193 -108 1170 -87 1158 c 1
 125 1056 177 1120 215 956 c 0
 216 952 216 948 216 944 c 0
 216 871 115 790 115 675 c 0
 115 661 117 646 120 631 c 0
 142 539 196 420 243 289 c 1
 271 238 289 214 359 214 c 2
 384 214 l 2
 405 214 456 221 541 241 c 1
 751 286 782 361 782 400 c 0
 782 407 783 413 782 417 c 2
 714 721 l 1
 675 861 618 912 525 912 c 18
 518 912 l 2
 487 912 480 880 480 844 c 0
 480 817 484 787 484 766 c 0
EndSplineSet
Validated: 1
MultipleSubs2: "Addhairspacebeforeletter-0 subtable" hairspace tet
MultipleSubs2: "AddHairspaceAfterMark-0 subtable" tet hairspace
MultipleSubs2: "Addhairspacebeforeletter subtable" hairspace tet
MultipleSubs2: "Addthinspacebeforeletter subtable" thinspace tet
MultipleSubs2: "AddHairspaceAfterMark subtable" tet hairspace
MultipleSubs2: "AddThinspaceAfterMark subtable" tet thinspace
EndChar

StartChar: yod
Encoding: 164 1497 106
Width: 627
GlyphClass: 2
Flags: W
VStem: 180 137<597.814 786.726>
AnchorPoint: "m2b-v2left" 337 0 basechar 0
AnchorPoint: "VbWM" 393 0 basechar 0
AnchorPoint: "VbNM" 328 0 basechar 0
AnchorPoint: "m2b-10" -330 0 basechar 0
AnchorPoint: "m2b-7d" -67 0 basechar 0
AnchorPoint: "m2b-7c" -220 0 basechar 0
AnchorPoint: "m2b-7b" 173 0 basechar 0
AnchorPoint: "m2b-9" 480 0 basechar 0
AnchorPoint: "m2b-5b" 70 0 basechar 0
AnchorPoint: "m2b-5a" 337 0 basechar 0
AnchorPoint: "m2b-8c" 396 0 basechar 0
AnchorPoint: "m2b-8b" 70 0 basechar 0
AnchorPoint: "m2b-8a" 330 0 basechar 0
AnchorPoint: "m2b-7a" 153 0 basechar 0
AnchorPoint: "m2b-4d" 250 0 basechar 0
AnchorPoint: "m2b-4c" 300 0 basechar 0
AnchorPoint: "m2b-4b" 337 0 basechar 0
AnchorPoint: "m2b-4a" 337 0 basechar 0
AnchorPoint: "m2b-1" 337 0 basechar 0
LayerCount: 2
Fore
SplineSet
191 469 m 0
 182 469 180 477 180 488 c 0
 180 518 187 604 187 681 c 0
 187 722 186 761 180 788 c 0
 173 818 132 846 93 857 c 0
 3 883 -91 910 -103 962 c 1
 -124 1071 l 2
 -130 1101 -132 1128 -132 1148 c 0
 -132 1174 -128 1189 -122 1189 c 0
 -112 1189 -67 1146 34 1112 c 2
 211 1053 l 18
 234 1045 281 1019 296 989 c 0
 313 955 317 941 317 893 c 0
 317 867 316 833 316 827 c 0
 316 825 317 824 317 823 c 0
 317 765 273 605 263 556 c 0
 253 512 257 500 213 477 c 0
 203 472 196 469 191 469 c 0
EndSplineSet
Validated: 1
MultipleSubs2: "Addhairspacebeforeletter-0 subtable" hairspace yod
MultipleSubs2: "AddHairspaceAfterMark-0 subtable" yod hairspace
MultipleSubs2: "Addhairspacebeforeletter subtable" hairspace yod
MultipleSubs2: "Addthinspacebeforeletter subtable" thinspace yod
MultipleSubs2: "AddHairspaceAfterMark subtable" yod hairspace
MultipleSubs2: "AddThinspaceAfterMark subtable" yod thinspace
EndChar

StartChar: finalkaf
Encoding: 165 1498 107
Width: 1055
GlyphClass: 2
Flags: W
HStem: 903 226<-100.149 543.127>
VStem: -140 854<931.182 1125.27>
AnchorPoint: "m2b-mback" 460 0 basechar 0
AnchorPoint: "m2b-vback" 460 0 basechar 0
AnchorPoint: "m2b-7b" 170 0 basechar 0
AnchorPoint: "m2b-3" 510 0 basechar 0
AnchorPoint: "m2b-6" 300 0 basechar 0
AnchorPoint: "m2b-9" 650 0 basechar 0
AnchorPoint: "m2b-5b" 630 0 basechar 0
AnchorPoint: "m2b-5a" 460 0 basechar 0
AnchorPoint: "m2b-8c" 737 0 basechar 0
AnchorPoint: "m2b-8b" 121.567 0 basechar 0
AnchorPoint: "m2b-8a" 500 0 basechar 0
AnchorPoint: "m2b-7a" 150 0 basechar 0
AnchorPoint: "m2b-4d" 320 0 basechar 0
AnchorPoint: "m2b-4c" 370 0 basechar 0
AnchorPoint: "m2b-4b" 460 0 basechar 0
AnchorPoint: "m2b-4a" 460 0 basechar 0
AnchorPoint: "m2b-1" 490 0 basechar 0
LayerCount: 2
Fore
SplineSet
16 903 m 2
 -73 903 -91 904 -102 952 c 2
 -131 1080 l 2
 -137 1106 -140 1127 -140 1144 c 0
 -140 1173 -133 1188 -124 1188 c 0
 -115 1188 -72 1129 26 1129 c 2
 530 1127 l 2
 628 1127 625 1174 634 1174 c 0
 648 1174 676 1133 691 1066 c 2
 709 984 l 2
 712 970 714 958 714 948 c 0
 714 924 701 910 650 892 c 1
 666 821 989 -389 989 -389 c 2
 994 -410 l 2
 997 -426 1000 -438 1000 -448 c 0
 1000 -467 991 -479 968 -503 c 1
 940 -538 923 -558 910 -558 c 0
 891 -558 879 -513 852 -400 c 10
 573 766 l 17
 539 901 539 903 415 903 c 2
 16 903 l 2
EndSplineSet
Validated: 1
MultipleSubs2: "Addhairspacebeforeletter-0 subtable" hairspace finalkaf
MultipleSubs2: "AddHairspaceAfterMark-0 subtable" finalkaf hairspace
MultipleSubs2: "Addhairspacebeforeletter subtable" hairspace finalkaf
MultipleSubs2: "Addthinspacebeforeletter subtable" thinspace finalkaf
MultipleSubs2: "AddHairspaceAfterMark subtable" finalkaf hairspace
MultipleSubs2: "AddThinspaceAfterMark subtable" finalkaf thinspace
EndChar

StartChar: kaf
Encoding: 166 1499 108
Width: 973
GlyphClass: 2
Flags: W
VStem: 744 85<265.909 412.537>
AnchorPoint: "m2b-v2r" 425 0 basechar 0
AnchorPoint: "VbWM" 540 0 basechar 0
AnchorPoint: "VbNM" 468 0 basechar 0
AnchorPoint: "m2b-10" -330 0 basechar 0
AnchorPoint: "m2b-7c" -220 0 basechar 0
AnchorPoint: "m2b-7b" 200 0 basechar 0
AnchorPoint: "m2b-8c" 667 0 basechar 0
AnchorPoint: "m2b-3" 518.911 0 basechar 0
AnchorPoint: "m2b-5b" 350 0 basechar 0
AnchorPoint: "m2b-5a" 425 0 basechar 0
AnchorPoint: "m2b-8b" 120 0 basechar 0
AnchorPoint: "m2b-8a" 477.911 0 basechar 0
AnchorPoint: "m2b-7a" 180 0 basechar 0
AnchorPoint: "m2b-4d" 424.911 0 basechar 0
AnchorPoint: "m2b-4c" 425 0 basechar 0
AnchorPoint: "m2b-4b" 424.911 0 basechar 0
AnchorPoint: "m2b-4a" 424.911 0 basechar 0
AnchorPoint: "m2b-1" 518.911 0 basechar 0
LayerCount: 2
Fore
SplineSet
345 870 m 10
 46 902 l 2
 -45 911 -62 909 -71 950 c 2
 -101 1078 l 2
 -107 1103 -109 1124 -109 1140 c 0
 -109 1170 -102 1186 -94 1186 c 0
 -84 1186 -44 1136 56 1126 c 1
 373 1091 l 2
 501 1077 606 1066 679 834 c 9
 817 368 l 17
 823 340 829 310 829 277 c 0
 829 159 775 30 684 22 c 9
 160 -32 l 18
 146 -34 118 -36 111 -38 c 0
 109 -38 107 -38 105 -38 c 0
 78 -38 71 -9 68 24 c 1
 58 129 l 2
 57 148 55 161 55 171 c 0
 55 192 65 195 112 201 c 10
 635 256 l 17
 711 262 744 265 744 308 c 0
 744 318 742 330 738 345 c 0
 732 374 719 412 702 465 c 9
 588 734 l 17
 524 851 491 854 345 870 c 10
EndSplineSet
Validated: 1
MultipleSubs2: "Addhairspacebeforeletter-0 subtable" hairspace kaf
MultipleSubs2: "AddHairspaceAfterMark-0 subtable" kaf hairspace
MultipleSubs2: "Addhairspacebeforeletter subtable" hairspace kaf
MultipleSubs2: "Addthinspacebeforeletter subtable" thinspace kaf
MultipleSubs2: "AddHairspaceAfterMark subtable" kaf hairspace
MultipleSubs2: "AddThinspaceAfterMark subtable" kaf thinspace
Substitution2: "jaltWideLetterAlternativesinHeb subtable" kaf.wide
EndChar

StartChar: lamed
Encoding: 167 1500 109
Width: 964
GlyphClass: 2
Flags: W
HStem: -18 21G<431 441> 904 224<-72.8955 524.462>
VStem: 421 133<50.3906 219.938>
AnchorPoint: "m2b-v2r" 490 0 basechar 0
AnchorPoint: "VbWM" 546 0 basechar 0
AnchorPoint: "VbNM" 504 0 basechar 0
AnchorPoint: "m2b-10" -330 0 basechar 0
AnchorPoint: "m2b-7c" -220 0 basechar 0
AnchorPoint: "m2b-7a" -20 0 basechar 0
AnchorPoint: "m2b-9" 750 0 basechar 0
AnchorPoint: "m2b-5b" 336 0 basechar 0
AnchorPoint: "m2b-5a" 490 0 basechar 0
AnchorPoint: "m2b-8c" 800 0 basechar 0
AnchorPoint: "m2b-8b" -110 0 basechar 0
AnchorPoint: "m2b-8a" 520 0 basechar 0
AnchorPoint: "m2b-4d" 390 0 basechar 0
AnchorPoint: "m2b-4c" 396 0 basechar 0
AnchorPoint: "m2b-4b" 490 0 basechar 0
AnchorPoint: "m2b-4a" 490 0 basechar 0
AnchorPoint: "m2b-1" 473 0 basechar 0
LayerCount: 2
Fore
SplineSet
-431 1938 m 0
 -431 1949 -422 1995 -410 1995 c 0
 -402 1995 -395 1967 -363 1941 c 10
 -233 1832 l 18
 -212 1815 -200 1776 -196 1758 c 2
 -74 1176 l 2
 -63 1129 -27 1128 33 1128 c 2
 450 1128 l 2
 563 1128 581 1092 610 1018 c 2
 740 687 l 2
 753 652 761 634 761 598 c 0
 761 578 756 556 741 526 c 2
 565 194 l 2
 558 179 554 164 554 148 c 0
 554 141 555 133 557 126 c 0
 563 100 550 92 537 78 c 10
 446 -15 l 18
 445 -17 442 -18 440 -18 c 0
 422 -18 421 24 421 47 c 0
 421 90 429 141 445 178 c 2
 648 629 l 1
 622 743 572 825 525 886 c 0
 514 901 472 904 426 904 c 2
 30 904 l 1
 -44 905 -89 925 -114 1036 c 2
 -241 1586 l 1
 -247 1603 -257 1623 -280 1642 c 10
 -338 1691 l 18
 -378 1725 -386 1730 -398 1779 c 10
 -424 1893 l 18
 -428 1912 -431 1925 -431 1938 c 0
EndSplineSet
Validated: 1
MultipleSubs2: "Addhairspacebeforeletter-0 subtable" hairspace lamed
MultipleSubs2: "AddHairspaceAfterMark-0 subtable" lamed hairspace
MultipleSubs2: "Addhairspacebeforeletter subtable" hairspace lamed
MultipleSubs2: "Addthinspacebeforeletter subtable" thinspace lamed
MultipleSubs2: "AddHairspaceAfterMark subtable" lamed hairspace
MultipleSubs2: "AddThinspaceAfterMark subtable" lamed thinspace
Substitution2: "jaltWideLetterAlternativesinHeb subtable" lamed.wide
EndChar

StartChar: finalmem
Encoding: 168 1501 110
Width: 1159
GlyphClass: 2
Flags: W
HStem: 0 226<230.68 865.496> 901 228<-84.7671 54.9869 133.781 703.663>
VStem: 3 91<632.668 857.017> 868 114<117.5 345.656>
AnchorPoint: "m2b-v2r" 559 0 basechar 0
AnchorPoint: "m2b-7b" 185 0 basechar 0
AnchorPoint: "m2b-9" 727 0 basechar 0
AnchorPoint: "m2b-5b" 500 0 basechar 0
AnchorPoint: "m2b-5a" 559 0 basechar 0
AnchorPoint: "m2b-8c" 833 0 basechar 0
AnchorPoint: "m2b-8b" 130 0 basechar 0
AnchorPoint: "m2b-8a" 577.153 0 basechar 0
AnchorPoint: "m2b-7a" 165 0 basechar 0
AnchorPoint: "m2b-4d" 559 0 basechar 0
AnchorPoint: "m2b-4c" 572.153 0 basechar 0
AnchorPoint: "m2b-4b" 559 0 basechar 0
AnchorPoint: "m2b-4a" 559 0 basechar 0
AnchorPoint: "m2b-2" 587.153 0 basechar 0
AnchorPoint: "m2b-1" 577.153 0 basechar 0
LayerCount: 2
Fore
SplineSet
868 284 m 0
 868 311 857 371 847 402 c 2
 755 742 l 1
 718 850 706 901 575 901 c 2
 190 901 l 1
 118 860 94 808 94 743 c 0
 94 713 99 681 107 646 c 0
 126 561 162 462 194 354 c 0
 231 230 276 226 315 226 c 2
 785 226 l 2
 843 226 868 237 868 284 c 0
55 886 m 0
 55 897 37 901 31 901 c 1
 25 901 20 901 14 901 c 0
 -36 901 -77 909 -87 952 c 2
 -116 1080 l 2
 -122 1106 -125 1127 -125 1144 c 0
 -125 1173 -118 1188 -109 1188 c 0
 -100 1188 -57 1129 41 1129 c 2
 683 1128 l 2
 729 1128 799 1044 833 898 c 1
 978 218 l 2
 981 201 982 184 982 169 c 0
 982 66 915 0 803 0 c 2
 258 0 l 1
 202 5 164 5 136 125 c 2
 3 694 l 2
 2 699 3 705 3 710 c 0
 3 772 55 858 55 886 c 0
EndSplineSet
Validated: 1
MultipleSubs2: "Addhairspacebeforeletter-0 subtable" hairspace finalmem
MultipleSubs2: "AddHairspaceAfterMark-0 subtable" finalmem hairspace
MultipleSubs2: "Addhairspacebeforeletter subtable" hairspace finalmem
MultipleSubs2: "Addthinspacebeforeletter subtable" thinspace finalmem
MultipleSubs2: "AddHairspaceAfterMark subtable" finalmem hairspace
MultipleSubs2: "AddThinspaceAfterMark subtable" finalmem thinspace
Substitution2: "jaltWideLetterAlternativesinHeb subtable" finalmem.wide
EndChar

StartChar: mem
Encoding: 169 1502 111
Width: 1187
GlyphClass: 2
Flags: W
VStem: 43 108<224.628 718.922>
AnchorPoint: "m2b-v2r" 562 0 basechar 0
AnchorPoint: "VbWM" 570 0 basechar 0
AnchorPoint: "VbNM" 477 0 basechar 0
AnchorPoint: "m2b-10" -330 0 basechar 0
AnchorPoint: "m2b-7c" -220 0 basechar 0
AnchorPoint: "m2b-7b" 199 0 basechar 0
AnchorPoint: "m2b-9" 780 0 basechar 0
AnchorPoint: "m2b-5b" 525 0 basechar 0
AnchorPoint: "m2b-5a" 562 0 basechar 0
AnchorPoint: "m2b-8c" 887 0 basechar 0
AnchorPoint: "m2b-8b" 170 0 basechar 0
AnchorPoint: "m2b-8a" 630 0 basechar 0
AnchorPoint: "m2b-7a" 179 0 basechar 0
AnchorPoint: "m2b-4d" 562 0 basechar 0
AnchorPoint: "m2b-4c" 562 0 basechar 0
AnchorPoint: "m2b-4b" 562 0 basechar 0
AnchorPoint: "m2b-4a" 562 0 basechar 0
AnchorPoint: "m2b-1" 600 0 basechar 0
LayerCount: 2
Fore
SplineSet
434 -6 m 2
 409 -6 396 19 396 52 c 0
 396 54 396 57 396 59 c 2
 404 165 l 2
 408 224 392 227 460 234 c 2
 804 270 l 1
 857 278 886 285 886 322 c 0
 886 330 884 342 882 352 c 2
 801 718 l 2
 780 813 777 814 714 853 c 0
 628 907 478 975 419 975 c 0
 310 975 151 764 151 579 c 0
 151 572 151 564 151 557 c 0
 167 340 206 207 206 124 c 0
 206 83 196 54 169 33 c 0
 151 19 139 10 129 10 c 0
 118 10 112 23 105 50 c 2
 91 112 l 2
 87 132 81 151 77 170 c 0
 52 279 43 370 43 447 c 0
 43 651 107 751 107 794 c 0
 107 796 107 799 106 801 c 0
 92 860 82 832 -25 912 c 0
 -53 933 -73 962 -78 985 c 0
 -103 1090 -118 1162 -118 1198 c 0
 -118 1214 -115 1223 -107 1223 c 0
 -106 1223 -104 1222 -103 1222 c 0
 -3 1191 128 1002 223 1002 c 0
 224 1002 224 1002 225 1002 c 0
 244 1003 263 1013 297 1035 c 1
 368 1094 452 1156 520 1157 c 0
 521 1157 522 1157 523 1157 c 0
 591 1153 669 1095 749 1046 c 0
 820 1002 855 922 866 876 c 2
 1014 248 l 1
 1028 196 l 1
 1035 166 1039 142 1039 122 c 0
 1039 66 1006 45 915 37 c 2
 475 -3 l 2
 460 -4 448 -6 439 -6 c 2
 434 -6 l 2
EndSplineSet
Validated: 1
MultipleSubs2: "Addhairspacebeforeletter-0 subtable" hairspace mem
MultipleSubs2: "AddHairspaceAfterMark-0 subtable" mem hairspace
MultipleSubs2: "Addhairspacebeforeletter subtable" hairspace mem
MultipleSubs2: "Addthinspacebeforeletter subtable" thinspace mem
MultipleSubs2: "AddHairspaceAfterMark subtable" mem hairspace
MultipleSubs2: "AddThinspaceAfterMark subtable" mem thinspace
EndChar

StartChar: finalnun
Encoding: 170 1503 112
Width: 532
GlyphClass: 2
Flags: W
VStem: 74 107<330.412 757.444> 122 104<577.802 930.5>
AnchorPoint: "m2b-mback" -90 0 basechar 0
AnchorPoint: "m2b-vback" -90 0 basechar 0
AnchorPoint: "m2b-7b" 150 0 basechar 0
AnchorPoint: "m2b-9" 430 0 basechar 0
AnchorPoint: "m2b-5b" 60 0 basechar 0
AnchorPoint: "m2b-5a" -90 0 basechar 0
AnchorPoint: "m2b-8c" 369 0 basechar 0
AnchorPoint: "m2b-8b" 70 0 basechar 0
AnchorPoint: "m2b-8a" 280 0 basechar 0
AnchorPoint: "m2b-7a" 130 0 basechar 0
AnchorPoint: "m2b-4d" -250 0 basechar 0
AnchorPoint: "m2b-4c" -190 0 basechar 0
AnchorPoint: "m2b-4b" -90 0 basechar 0
AnchorPoint: "m2b-4a" 0 0 basechar 0
AnchorPoint: "m2b-2" 60 0 basechar 0
AnchorPoint: "m2b-1" 280 0 basechar 0
LayerCount: 2
Fore
SplineSet
113 310 m 0x80
 86 431 74 484 74 532 c 0x80
 74 572 82 610 94 680 c 0
 101 723 122 743 122 783 c 0
 122 835 96 877 49 896 c 0
 -38 931 -120 954 -132 1006 c 2
 -153 1098 l 2
 -160 1127 -163 1153 -163 1172 c 0
 -163 1200 -158 1216 -151 1216 c 0
 -141 1216 -94 1173 7 1139 c 1
 113 1094 l 18
 136 1084 189 1060 196 1029 c 1
 219 963 l 1
 221 953 226 933 226 928 c 0x40
 226 881 208 780 197 765 c 1
 193 738 181 632 181 544 c 0
 181 506 184 474 190 448 c 1
 400 -280 l 2
 415 -334 429 -360 429 -408 c 0
 429 -431 421 -447 404 -476 c 0
 389 -500 345 -512 336 -512 c 0
 310 -512 307 -484 295 -439 c 0
 237 -189 161 106 113 310 c 0x80
EndSplineSet
Validated: 1
MultipleSubs2: "Addhairspacebeforeletter-0 subtable" hairspace finalnun
MultipleSubs2: "AddHairspaceAfterMark-0 subtable" finalnun hairspace
MultipleSubs2: "Addhairspacebeforeletter subtable" hairspace finalnun
MultipleSubs2: "Addthinspacebeforeletter subtable" thinspace finalnun
MultipleSubs2: "AddHairspaceAfterMark subtable" finalnun hairspace
MultipleSubs2: "AddThinspaceAfterMark subtable" finalnun thinspace
EndChar

StartChar: nun
Encoding: 171 1504 113
Width: 746
GlyphClass: 2
Flags: W
HStem: -38 236<70.6718 238.36>
VStem: 455 144<119 296>
AnchorPoint: "m2b-v2left" 338 0 basechar 0
AnchorPoint: "m2b-v2r" 338 0 basechar 0
AnchorPoint: "VbWM" 428 0 basechar 0
AnchorPoint: "VbNM" 280 0 basechar 0
AnchorPoint: "m2b-10" -330 0 basechar 0
AnchorPoint: "m2b-7d" 68 0 basechar 0
AnchorPoint: "m2b-7c" -220 0 basechar 0
AnchorPoint: "m2b-7b" 308 0 basechar 0
AnchorPoint: "m2b-9" 601 0 basechar 0
AnchorPoint: "m2b-5b" 151.455 0 basechar 0
AnchorPoint: "m2b-5a" 338 0 basechar 0
AnchorPoint: "m2b-8c" 492 0 basechar 0
AnchorPoint: "m2b-8b" 240 0 basechar 0
AnchorPoint: "m2b-8a" 451.455 0 basechar 0
AnchorPoint: "m2b-7a" 288 0 basechar 0
AnchorPoint: "m2b-4d" 358 0 basechar 0
AnchorPoint: "m2b-4c" 338 0 basechar 0
AnchorPoint: "m2b-4b" 338 0 basechar 0
AnchorPoint: "m2b-4a" 338 0 basechar 0
AnchorPoint: "m2b-1" 408 0 basechar 0
LayerCount: 2
Fore
SplineSet
347 682 m 2
 324 762 310 813 238 863 c 1
 143 900 l 1
 59 934 29 940 24 963 c 1
 5 1073 l 2
 -0 1105 -3 1138 -3 1164 c 0
 -3 1195 1 1216 7 1216 c 0
 18 1216 83 1146 184 1113 c 1
 258 1090 l 1
 385 1040 414 892 437 795 c 2
 595 119 l 2
 598 102 599 87 599 74 c 0
 599 28 578 8 524 3 c 2
 144 -35 l 18
 130 -37 117 -38 108 -38 c 0
 80 -38 77 -26 65 24 c 2
 42 126 l 2
 37 146 34 160 34 169 c 0
 34 190 49 193 95 198 c 10
 395 228 l 2
 430 232 455 234 455 268 c 0
 455 275 453 286 451 296 c 2
 347 682 l 2
EndSplineSet
Validated: 1
MultipleSubs2: "Addhairspacebeforeletter-0 subtable" hairspace nun
MultipleSubs2: "AddHairspaceAfterMark-0 subtable" nun hairspace
MultipleSubs2: "Addhairspacebeforeletter subtable" hairspace nun
MultipleSubs2: "Addthinspacebeforeletter subtable" thinspace nun
MultipleSubs2: "AddHairspaceAfterMark subtable" nun hairspace
MultipleSubs2: "AddThinspaceAfterMark subtable" nun thinspace
EndChar

StartChar: samekh
Encoding: 172 1505 114
Width: 1099
GlyphClass: 2
Flags: W
HStem: -36 251<232 418.651>
VStem: 0 81<597.677 860.488> 814 92<339.381 599>
AnchorPoint: "m2b-v2r" 500 0 basechar 0
AnchorPoint: "VbWM" 541 0 basechar 0
AnchorPoint: "VbNM" 467 0 basechar 0
AnchorPoint: "m2b-10" -330 0 basechar 0
AnchorPoint: "m2b-7c" -220 0 basechar 0
AnchorPoint: "m2b-7b" 179 0 basechar 0
AnchorPoint: "m2b-9" 740.384 7 basechar 0
AnchorPoint: "m2b-5b" 475.8 0 basechar 0
AnchorPoint: "m2b-5a" 500 0 basechar 0
AnchorPoint: "m2b-8c" 786.184 7 basechar 0
AnchorPoint: "m2b-8b" 139.8 0 basechar 0
AnchorPoint: "m2b-8a" 591.8 0 basechar 0
AnchorPoint: "m2b-7a" 158 0 basechar 0
AnchorPoint: "m2b-4d" 570.8 0 basechar 0
AnchorPoint: "m2b-4c" 550 0 basechar 0
AnchorPoint: "m2b-4b" 500 0 basechar 0
AnchorPoint: "m2b-4a" 500 0 basechar 0
AnchorPoint: "m2b-1" 570.8 0 basechar 0
LayerCount: 2
Fore
SplineSet
652 1064 m 1
 775 1041 786 949 806 861 c 1
 904 408 l 2
 905 402 906 395 906 388 c 0
 906 299 817 117 703 89 c 0
 594 63 275 -36 256 -36 c 0
 208 -36 197 6 173 85 c 2
 7 644 l 2
 5 653 0 666 0 689 c 0
 0 751 40 831 40 871 c 0
 40 875 39 878 39 881 c 0
 25 932 -79 892 -93 954 c 2
 -123 1082 l 2
 -129 1107 -131 1128 -131 1144 c 0
 -131 1174 -123 1190 -116 1190 c 0
 -106 1190 -66 1141 34 1130 c 2
 652 1064 l 1
208 886 m 0
 114 886 81 834 81 760 c 0
 81 735 85 707 92 677 c 0
 114 579 172 469 212 368 c 0
 260 245 283 215 338 215 c 0
 371 215 418 221 477 241 c 2
 746 331 l 1
 796 346 814 355 814 387 c 0
 814 404 809 429 801 465 c 2
 752 674 l 1
 718 798 688 829 579 848 c 1
 274 882 l 1
 252 883 230 886 208 886 c 0
EndSplineSet
Validated: 1
MultipleSubs2: "Addhairspacebeforeletter-0 subtable" hairspace samekh
MultipleSubs2: "AddHairspaceAfterMark-0 subtable" samekh hairspace
MultipleSubs2: "Addhairspacebeforeletter subtable" hairspace samekh
MultipleSubs2: "Addthinspacebeforeletter subtable" thinspace samekh
MultipleSubs2: "AddHairspaceAfterMark subtable" samekh hairspace
MultipleSubs2: "AddThinspaceAfterMark subtable" samekh thinspace
EndChar

StartChar: ayin
Encoding: 173 1506 115
Width: 1040
GlyphClass: 2
Flags: W
VStem: 102 73<665.609 818.95> 647 68<505.206 821.174>
AnchorPoint: "m2b-v2r" 418 0 basechar 0
AnchorPoint: "HbWM" 460 0 basechar 0
AnchorPoint: "HbNM" 414 0 basechar 0
AnchorPoint: "VbWM" 600 0 basechar 0
AnchorPoint: "VbNM" 570 0 basechar 0
AnchorPoint: "m2b-10" -330 0 basechar 0
AnchorPoint: "m2b-7c" -220 0 basechar 0
AnchorPoint: "m2b-7b" 198 0 basechar 0
AnchorPoint: "m2b-pg" 850 0 basechar 0
AnchorPoint: "m2b-9" 675 0 basechar 0
AnchorPoint: "m2b-5b" 400 0 basechar 0
AnchorPoint: "m2b-5a" 418 0 basechar 0
AnchorPoint: "m2b-8c" 737 0 basechar 0
AnchorPoint: "m2b-8b" 120.924 -4 basechar 0
AnchorPoint: "m2b-8a" 525 0 basechar 0
AnchorPoint: "m2b-7a" 178 0 basechar 0
AnchorPoint: "m2b-4d" 570 0 basechar 0
AnchorPoint: "m2b-4c" 520 0 basechar 0
AnchorPoint: "m2b-4b" 418.211 0 basechar 0
AnchorPoint: "m2b-4a" 418.211 0 basechar 0
AnchorPoint: "m2b-2" 568.301 68 basechar 0
AnchorPoint: "m2b-1" 504 0 basechar 0
LayerCount: 2
Fore
SplineSet
106 665 m 0
 104 678 102 690 102 701 c 0
 102 733 112 758 112 771 c 0
 112 772 112 774 112 775 c 1
 106 792 87 803 68 818 c 10
 10 867 l 18
 -30 901 -84 935 -95 984 c 9
 -116 1111 l 18
 -120 1130 -121 1145 -121 1158 c 0
 -121 1206 -103 1213 -102 1213 c 0
 -94 1213 -88 1185 -56 1159 c 10
 177 975 l 18
 206 951 214 931 214 891 c 0
 214 822 175 733 175 690 c 0
 175 686 176 682 176 679 c 0
 189 623 355 408 393 355 c 0
 425 310 479 252 508 252 c 0
 564 252 597 351 603 408 c 1
 613 529 647 745 647 782 c 0
 647 807 619 817 601 831 c 10
 543 880 l 18
 503 914 449 948 438 997 c 9
 417 1124 l 18
 413 1143 412 1158 412 1171 c 0
 412 1219 430 1226 431 1226 c 0
 439 1226 445 1198 477 1172 c 10
 710 988 l 18
 741 963 757 943 757 903 c 0
 757 839 716 761 715 662 c 2
 713 170 l 2
 712 111 711 107 672 87 c 0
 566 36 278 -56 118 -150 c 1
 114 -150 108 -152 106 -152 c 0
 86 -152 79 -140 77 -128 c 0
 56 -40 45 12 45 44 c 0
 45 84 62 95 102 109 c 2
 310 183 l 1
 329 194 338 209 338 225 c 0
 338 229 337 232 337 236 c 0
 261 379 117 624 106 665 c 0
EndSplineSet
Validated: 1
MultipleSubs2: "Addhairspacebeforeletter-0 subtable" hairspace ayin
MultipleSubs2: "AddHairspaceAfterMark-0 subtable" ayin hairspace
MultipleSubs2: "Addhairspacebeforeletter subtable" hairspace ayin
MultipleSubs2: "Addthinspacebeforeletter subtable" thinspace ayin
MultipleSubs2: "AddHairspaceAfterMark subtable" ayin hairspace
MultipleSubs2: "AddThinspaceAfterMark subtable" ayin thinspace
Substitution2: "saltStylisticAlternativesinHebr subtable" ayin.alt
EndChar

StartChar: finalpe
Encoding: 174 1507 116
Width: 995
GlyphClass: 2
Flags: W
VStem: -47 97<692.237 901.012>
AnchorPoint: "m2b-mback" 480 0 basechar 0
AnchorPoint: "m2b-vback" 480 0 basechar 0
AnchorPoint: "m2b-7b" 321 0 basechar 0
AnchorPoint: "m2b-3" 510 0 basechar 0
AnchorPoint: "m2b-9" 720 0 basechar 0
AnchorPoint: "m2b-5b" 600 0 basechar 0
AnchorPoint: "m2b-5a" 480 0 basechar 0
AnchorPoint: "m2b-8c" 683 0 basechar 0
AnchorPoint: "m2b-8b" 175 0 basechar 0
AnchorPoint: "m2b-8a" 570 0 basechar 0
AnchorPoint: "m2b-7a" 301 0 basechar 0
AnchorPoint: "m2b-4d" 300 0 basechar 0
AnchorPoint: "m2b-4c" 350 0 basechar 0
AnchorPoint: "m2b-4b" 480 0 basechar 0
AnchorPoint: "m2b-4a" 480 0 basechar 0
AnchorPoint: "m2b-1" 580 0 basechar 0
LayerCount: 2
Fore
SplineSet
103 916 m 1
 63 916 50 857 50 803 c 0
 50 778 53 753 57 736 c 0
 69 686 132 678 192 658 c 0
 278 631 265 633 279 572 c 2
 302 472 l 2
 310 437 314 424 290 424 c 1
 22 489 l 17
 -33 507 -47 527 -47 581 c 0
 -47 591 -48 603 -47 615 c 0
 3 1194 9 1194 25 1194 c 0
 75 1194 93 1144 195 1115 c 2
 413 1052 l 18
 529 1019 627 1008 675 828 c 2
 1014 -447 l 2
 1016 -455 1017 -462 1017 -468 c 0
 1017 -499 994 -509 967 -540 c 0
 938 -574 921 -595 908 -595 c 0
 889 -595 877 -550 851 -437 c 10
 578 722 l 1
 553 815 476 822 332 858 c 10
 103 916 l 1
EndSplineSet
Validated: 1
MultipleSubs2: "Addhairspacebeforeletter-0 subtable" hairspace finalpe
MultipleSubs2: "AddHairspaceAfterMark-0 subtable" finalpe hairspace
MultipleSubs2: "Addhairspacebeforeletter subtable" hairspace finalpe
MultipleSubs2: "Addthinspacebeforeletter subtable" thinspace finalpe
MultipleSubs2: "AddHairspaceAfterMark subtable" finalpe hairspace
MultipleSubs2: "AddThinspaceAfterMark subtable" finalpe thinspace
EndChar

StartChar: pe
Encoding: 175 1508 117
Width: 981
GlyphClass: 2
Flags: W
VStem: -22 98<683.089 893.012> 759 85<265.909 412.537>
AnchorPoint: "m2b-v2r" 462 0 basechar 0
AnchorPoint: "VbWM" 520 0 basechar 0
AnchorPoint: "VbNM" 444 0 basechar 0
AnchorPoint: "m2b-10" -330 0 basechar 0
AnchorPoint: "m2b-7c" -220 0 basechar 0
AnchorPoint: "m2b-7b" 345 0 basechar 0
AnchorPoint: "m2b-3" 533 0 basechar 0
AnchorPoint: "m2b-9" 682 0 basechar 0
AnchorPoint: "m2b-5b" 372.39 0 basechar 0
AnchorPoint: "m2b-5a" 462 0 basechar 0
AnchorPoint: "m2b-8c" 669 0 basechar 0
AnchorPoint: "m2b-8b" 220 0 basechar 0
AnchorPoint: "m2b-8a" 532.39 0 basechar 0
AnchorPoint: "m2b-7a" 325 0 basechar 0
AnchorPoint: "m2b-4d" 462.39 0 basechar 0
AnchorPoint: "m2b-4c" 462.39 0 basechar 0
AnchorPoint: "m2b-4b" 462.39 0 basechar 0
AnchorPoint: "m2b-4a" 462.39 0 basechar 0
AnchorPoint: "m2b-1" 532.39 0 basechar 0
LayerCount: 2
Fore
SplineSet
460 1059 m 18
 534 1044 646 974 694 834 c 9
 832 368 l 17
 838 340 844 310 844 277 c 0
 844 159 790 30 699 22 c 9
 175 -32 l 18
 161 -34 133 -36 126 -38 c 0
 124 -38 122 -38 120 -38 c 0
 93 -38 86 -9 83 24 c 1
 73 129 l 2
 72 148 70 161 70 171 c 0
 70 192 80 195 127 201 c 10
 650 256 l 17
 726 262 759 265 759 308 c 0
 759 318 757 330 753 345 c 0
 747 374 734 412 717 465 c 9
 603 734 l 17
 560 812 507 833 362 870 c 9
 128 908 l 1
 89 908 76 849 76 795 c 0
 76 770 79 745 83 728 c 0
 94 678 158 670 218 650 c 0
 304 623 291 625 305 564 c 2
 328 464 l 2
 336 429 340 416 316 416 c 1
 48 481 l 17
 -8 499 -22 519 -22 573 c 0
 -22 583 -23 595 -22 607 c 0
 28 1186 35 1186 51 1186 c 0
 101 1186 119 1127 220 1107 c 2
 460 1059 l 18
EndSplineSet
Validated: 1
MultipleSubs2: "Addhairspacebeforeletter-0 subtable" hairspace pe
MultipleSubs2: "AddHairspaceAfterMark-0 subtable" pe hairspace
MultipleSubs2: "Addhairspacebeforeletter subtable" hairspace pe
MultipleSubs2: "Addthinspacebeforeletter subtable" thinspace pe
MultipleSubs2: "AddHairspaceAfterMark subtable" pe hairspace
MultipleSubs2: "AddThinspaceAfterMark subtable" pe thinspace
EndChar

StartChar: finaltsadi
Encoding: 176 1509 118
Width: 951
GlyphClass: 2
Flags: W
VStem: 52 85<465.112 759.012>
AnchorPoint: "m2b-mback" 650 0 basechar 0
AnchorPoint: "m2b-vback" 650 0 basechar 0
AnchorPoint: "m2b-v2r" 650 0 basechar 0
AnchorPoint: "VbWM" 850 0 basechar 0
AnchorPoint: "VbNM" 710 0 basechar 0
AnchorPoint: "m2b-7b" 174 0 basechar 0
AnchorPoint: "m2b-9" 650 0 basechar 0
AnchorPoint: "m2b-5b" 447 0 basechar 0
AnchorPoint: "m2b-5a" 650 0 basechar 0
AnchorPoint: "m2b-8c" 696 0 basechar 0
AnchorPoint: "m2b-8b" 100 0 basechar 0
AnchorPoint: "m2b-8a" 500 0 basechar 0
AnchorPoint: "m2b-7a" 154 0 basechar 0
AnchorPoint: "m2b-4d" 787 0 basechar 0
AnchorPoint: "m2b-4c" 727 0 basechar 0
AnchorPoint: "m2b-4b" 650 0 basechar 0
AnchorPoint: "m2b-4a" 650 0 basechar 0
AnchorPoint: "m2b-2" 47 0 basechar 0
AnchorPoint: "m2b-1" 527 0 basechar 0
LayerCount: 2
Fore
SplineSet
-144 1143 m 0
 -144 1154 -136 1200 -123 1200 c 0
 -115 1200 -110 1171 -78 1146 c 10
 149 974 l 18
 174 956 192 921 192 880 c 0
 192 805 137 688 137 615 c 0
 137 607 138 599 139 592 c 2
 146 563 l 2
 154 527 167 479 188 438 c 0
 205 404 215 388 223 388 c 0
 231 388 236 406 246 442 c 2
 414 1068 l 2
 429 1121 436 1145 452 1145 c 0
 464 1145 482 1130 515 1102 c 1
 585 1048 l 1
 616 1028 627 1010 631 992 c 0
 643 942 666 780 667 772 c 0
 668 763 655 751 641 750 c 0
 640 750 640 750 639 750 c 0
 610 750 541 839 512 839 c 0
 496 839 485 823 470 786 c 1
 424 691 396 589 362 491 c 1
 326 376 283 324 283 224 c 0
 283 198 286 167 295 131 c 0
 333 -34 449 -275 471 -368 c 0
 475 -387 472 -394 464 -410 c 0
 441 -457 398 -526 364 -528 c 1
 339 -528 329 -485 308 -413 c 9
 225 -83 139 244 55 573 c 0
 53 580 52 588 52 597 c 0
 52 650 87 719 87 761 c 0
 87 788 74 810 47 829 c 10
 -52 896 l 17
 -92 930 -100 935 -111 984 c 10
 -137 1098 l 18
 -142 1117 -144 1130 -144 1143 c 0
EndSplineSet
Validated: 1
MultipleSubs2: "Addhairspacebeforeletter-0 subtable" hairspace finaltsadi
MultipleSubs2: "AddHairspaceAfterMark-0 subtable" finaltsadi hairspace
MultipleSubs2: "Addhairspacebeforeletter subtable" hairspace finaltsadi
MultipleSubs2: "Addthinspacebeforeletter subtable" thinspace finaltsadi
MultipleSubs2: "AddHairspaceAfterMark subtable" finaltsadi hairspace
MultipleSubs2: "AddThinspaceAfterMark subtable" finaltsadi thinspace
EndChar

StartChar: tsadi
Encoding: 177 1510 119
Width: 1013
GlyphClass: 2
Flags: W
HStem: -36 236<77.2849 241.328>
VStem: 41 649<23.684 197.649>
AnchorPoint: "m2b-v2r" 402 0 basechar 0
AnchorPoint: "VbWM" 470 0 basechar 0
AnchorPoint: "VbNM" 396 0 basechar 0
AnchorPoint: "m2b-10" -330 0 basechar 0
AnchorPoint: "m2b-7c" -220 0 basechar 0
AnchorPoint: "m2b-7b" 219 0 basechar 0
AnchorPoint: "m2b-9" 677 0 basechar 0
AnchorPoint: "m2b-5b" 370 0 basechar 0
AnchorPoint: "m2b-5a" 402 0 basechar 0
AnchorPoint: "m2b-8c" 696 0 basechar 0
AnchorPoint: "m2b-8b" 131 0 basechar 0
AnchorPoint: "m2b-8a" 527 0 basechar 0
AnchorPoint: "m2b-7a" 199 0 basechar 0
AnchorPoint: "m2b-4d" 402 0 basechar 0
AnchorPoint: "m2b-4c" 402 0 basechar 0
AnchorPoint: "m2b-4b" 402 0 basechar 0
AnchorPoint: "m2b-4a" 402 0 basechar 0
AnchorPoint: "m2b-1" 520 0 basechar 0
LayerCount: 2
Fore
SplineSet
-96 1132 m 0
 -96 1143 -88 1189 -76 1189 c 0
 -68 1189 -63 1160 -30 1135 c 10
 197 963 l 18
 221 945 235 909 235 886 c 0
 235 846 200 791 200 727 c 0
 200 715 201 703 204 690 c 0
 214 645 335 554 349 554 c 0
 364 554 369 577 381 631 c 2
 483 1059 l 2
 495 1113 498 1142 514 1142 c 0
 526 1142 545 1127 577 1099 c 1
 648 1045 l 1
 678 1025 690 1007 694 989 c 0
 705 939 729 777 729 769 c 0
 731 760 717 748 704 747 c 0
 703 747 703 747 702 747 c 0
 673 747 604 836 575 836 c 0
 559 836 548 820 532 783 c 1
 487 688 442 553 442 553 c 17
 435 532 432 517 432 505 c 0
 432 479 447 465 475 438 c 1
 666 241 l 1
 687 218 690 171 690 129 c 0
 690 74 674 19 617 14 c 0
 604 12 151 -33 151 -33 c 2
 136 -35 123 -36 114 -36 c 0
 86 -36 84 -24 72 26 c 2
 48 128 l 2
 44 148 41 161 41 171 c 0
 41 192 55 195 102 200 c 2
 413 232 l 2
 451 236 456 249 453 260 c 1
 265 461 l 1
 220 510 156 557 146 600 c 0
 131 668 141 724 134 754 c 0
 129 771 119 801 94 818 c 10
 -5 886 l 17
 -44 920 -52 924 -64 973 c 10
 -90 1087 l 18
 -94 1106 -96 1119 -96 1132 c 0
EndSplineSet
Validated: 1
MultipleSubs2: "Addhairspacebeforeletter-0 subtable" hairspace tsadi
MultipleSubs2: "AddHairspaceAfterMark-0 subtable" tsadi hairspace
MultipleSubs2: "Addhairspacebeforeletter subtable" hairspace tsadi
MultipleSubs2: "Addthinspacebeforeletter subtable" thinspace tsadi
MultipleSubs2: "AddHairspaceAfterMark subtable" tsadi hairspace
MultipleSubs2: "AddThinspaceAfterMark subtable" tsadi thinspace
EndChar

StartChar: resh
Encoding: 179 1512 120
Width: 1021
GlyphClass: 2
Flags: W
HStem: -11 21G<805 821.5>
VStem: 800 72<3.72669 101.717>
AnchorPoint: "m2b-v2left" 839 0 basechar 0
AnchorPoint: "m2b-10" -330 0 basechar 0
AnchorPoint: "m2b-7c" -220 0 basechar 0
AnchorPoint: "m2b-7b" 168 0 basechar 0
AnchorPoint: "m2b-9" 650 0 basechar 0
AnchorPoint: "m2b-5b" 550 0 basechar 0
AnchorPoint: "m2b-5a" 839 0 basechar 0
AnchorPoint: "m2b-8c" 777 0 basechar 0
AnchorPoint: "m2b-8b" 100 0 basechar 0
AnchorPoint: "m2b-8a" 500 0 basechar 0
AnchorPoint: "m2b-7a" 148 0 basechar 0
AnchorPoint: "m2b-4d" 724 0 basechar 0
AnchorPoint: "m2b-4c" 720 0 basechar 0
AnchorPoint: "m2b-4b" 839 0 basechar 0
AnchorPoint: "m2b-4a" 839 0 basechar 0
AnchorPoint: "m2b-1" 550 0 basechar 0
LayerCount: 2
Fore
SplineSet
694 854 m 0
 694 854 838 220 872 72 c 0
 872 71 872 69 872 68 c 0
 872 44 836 -11 807 -11 c 0
 803 -11 803 -9 800 0 c 0
 726 218 678 429 620 644 c 0
 575 813 556 851 410 867 c 10
 12 910 l 2
 -79 920 -96 917 -105 958 c 2
 -135 1086 l 2
 -140 1111 -143 1132 -143 1148 c 0
 -143 1178 -135 1194 -128 1194 c 0
 -118 1194 -78 1145 22 1134 c 2
 393 1093 l 1
 621 1069 648 1054 694 854 c 0
EndSplineSet
Validated: 1
MultipleSubs2: "Addhairspacebeforeletter-0 subtable" hairspace resh
MultipleSubs2: "AddHairspaceAfterMark-0 subtable" resh hairspace
MultipleSubs2: "Addhairspacebeforeletter subtable" hairspace resh
MultipleSubs2: "Addthinspacebeforeletter subtable" thinspace resh
MultipleSubs2: "AddHairspaceAfterMark subtable" resh hairspace
MultipleSubs2: "AddThinspaceAfterMark subtable" resh thinspace
Substitution2: "jaltWideLetterAlternativesinHeb subtable" resh.wide
EndChar

StartChar: shin
Encoding: 180 1513 121
Width: 1435
GlyphClass: 2
Flags: W
HStem: -27 284<309.676 467.969> -27 251<346.131 572.258>
VStem: 53 71<588.091 774.183>
AnchorPoint: "m2b-v2r" 584 0 basechar 0
AnchorPoint: "VbWM" 546 0 basechar 0
AnchorPoint: "VbNM" 561 0 basechar 0
AnchorPoint: "m2b-10" -330 0 basechar 0
AnchorPoint: "m2b-7c" -220 0 basechar 0
AnchorPoint: "m2b-7b" 169 0 basechar 0
AnchorPoint: "m2b-9" 904 0 basechar 0
AnchorPoint: "m2b-5b" 709 0 basechar 0
AnchorPoint: "m2b-5a" 584 0 basechar 0
AnchorPoint: "m2b-8c" 1120 0 basechar 0
AnchorPoint: "m2b-8b" 80 0 basechar 0
AnchorPoint: "m2b-8a" 754 0 basechar 0
AnchorPoint: "m2b-7a" 149 0 basechar 0
AnchorPoint: "m2b-4d" 650 0 basechar 0
AnchorPoint: "m2b-4c" 584 0 basechar 0
AnchorPoint: "m2b-4b" 584 0 basechar 0
AnchorPoint: "m2b-4a" 584 0 basechar 0
AnchorPoint: "m2b-1" 734 0 basechar 0
LayerCount: 2
Fore
SplineSet
819 1148 m 0x60
 819 1159 827 1205 840 1205 c 0
 848 1205 853 1176 886 1151 c 10
 1117 976 l 18
 1146 954 1157 921 1157 896 c 0
 1157 839 1082 779 1049 598 c 2
 978 225 l 2
 962 135 952 115 840 86 c 2
 430 -19 l 1
 399 -25 379 -27 365 -27 c 0
 315 -27 304 16 257 129 c 2
 96 522 l 2
 75 576 62 608 56 633 c 0
 54 643 53 652 53 661 c 0
 53 701 73 728 73 763 c 0
 73 769 72 776 70 783 c 0
 64 800 56 822 31 839 c 10
 -58 902 l 17
 -98 936 -106 941 -118 990 c 10
 -144 1104 l 18
 -148 1123 -150 1136 -150 1149 c 0
 -150 1160 -142 1206 -129 1206 c 0
 -121 1206 -117 1176 -83 1152 c 10
 156 983 l 18
 187 960 194 935 194 896 c 0
 194 810 124 759 124 693 c 1
 153 567 233 449 308 304 c 0
 324 272 332 257 337 257 c 0xa0
 341 257 343 271 345 297 c 2
 438 1085 l 2
 445 1141 459 1162 475 1162 c 0
 487 1162 504 1145 538 1119 c 2
 608 1065 l 1
 639 1045 672 1014 676 996 c 0
 688 946 709 802 710 794 c 0
 711 785 698 773 684 772 c 1
 682 772 l 2
 653 772 584 861 555 861 c 0
 535 861 520 845 511 801 c 2
 416 313 l 2
 415 313 413 285 413 261 c 0
 413 241 413 224 430 224 c 0
 444 224 468 230 496 236 c 2
 827 310 l 1
 908 334 915 338 927 428 c 2
 972 748 l 2
 976 771 978 789 978 803 c 0
 978 812 979 819 978 825 c 0
 972 842 960 862 937 881 c 10
 911 901 l 17
 871 935 863 940 852 989 c 10
 825 1103 l 18
 821 1122 819 1135 819 1148 c 0x60
EndSplineSet
Validated: 1
MultipleSubs2: "Addhairspacebeforeletter-0 subtable" hairspace shin
MultipleSubs2: "AddHairspaceAfterMark-0 subtable" shin hairspace
MultipleSubs2: "Addhairspacebeforeletter subtable" hairspace shin
MultipleSubs2: "Addthinspacebeforeletter subtable" thinspace shin
MultipleSubs2: "AddHairspaceAfterMark subtable" shin hairspace
MultipleSubs2: "AddThinspaceAfterMark subtable" shin thinspace
EndChar

StartChar: tav
Encoding: 181 1514 122
Width: 1319
GlyphClass: 2
Flags: W
HStem: -8 18G<83 102.5 1123.5 1139.5> 901 227<255.633 843.337>
VStem: 135 83<610.901 855.41> 226 205<155.5 352.5>
AnchorPoint: "m2b-3" 726 0 basechar 0
AnchorPoint: "m2b-v2r" 728 0 basechar 0
AnchorPoint: "VbWM" 640 0 basechar 0
AnchorPoint: "VbNM" 696 0 basechar 0
AnchorPoint: "m2b-10" -330 0 basechar 0
AnchorPoint: "m2b-7c" -220 0 basechar 0
AnchorPoint: "m2b-7b" 312 0 basechar 0
AnchorPoint: "m2b-9" 842 0 basechar 0
AnchorPoint: "m2b-5b" 676 0 basechar 0
AnchorPoint: "m2b-5a" 728 0 basechar 0
AnchorPoint: "m2b-8c" 997 0 basechar 0
AnchorPoint: "m2b-8b" 200 0 basechar 0
AnchorPoint: "m2b-8a" 692 0 basechar 0
AnchorPoint: "m2b-7a" 292 0 basechar 0
AnchorPoint: "m2b-4d" 728 0 basechar 0
AnchorPoint: "m2b-4c" 728 0 basechar 0
AnchorPoint: "m2b-4b" 728 0 basechar 0
AnchorPoint: "m2b-4a" 728 0 basechar 0
AnchorPoint: "m2b-1" 726 0 basechar 0
LayerCount: 2
Fore
SplineSet
226 311 m 0
 226 394 135 604 135 687 c 0
 135 725 146 769 168 853 c 1
 156 902 51 904 40 951 c 2
 11 1079 l 2
 5 1105 3 1126 3 1143 c 0
 3 1172 10 1187 18 1187 c 0
 27 1187 71 1128 169 1128 c 2
 737 1126 l 2
 886 1125 924 1085 965 918 c 2
 1185 45 l 1
 1183 22 1150 -11 1129 -11 c 0
 1118 -11 1110 -3 1108 6 c 2
 907 702 l 1
 862 835 854 901 730 901 c 0
 613 901 496 901 379 901 c 0
 288 901 270 897 239 822 c 0
 225 787 218 766 218 745 c 0
 218 737 219 729 221 721 c 1
 221 721 306 455 417 244 c 0
 426 224 431 204 431 179 c 0
 431 132 408 85 356 67 c 2
 215 19 l 2
 201 14 107 -8 98 -8 c 0
 68 -8 64 17 56 54 c 2
 36 141 l 2
 35 147 34 153 34 159 c 0
 34 251 226 182 226 311 c 0
EndSplineSet
Validated: 1
MultipleSubs2: "Addhairspacebeforeletter-0 subtable" hairspace tav
MultipleSubs2: "AddHairspaceAfterMark-0 subtable" tav hairspace
MultipleSubs2: "Addhairspacebeforeletter subtable" hairspace tav
MultipleSubs2: "Addthinspacebeforeletter subtable" thinspace tav
MultipleSubs2: "AddHairspaceAfterMark subtable" tav hairspace
MultipleSubs2: "AddThinspaceAfterMark subtable" tav thinspace
Substitution2: "jaltWideLetterAlternativesinHeb subtable" tav.wide
EndChar

StartChar: geresh
Encoding: 185 1523 126
Width: 460
VWidth: 2458
GlyphClass: 2
Flags: W
HStem: 803 432<-64.3162 -20.0864>
VStem: -67 160<956.25 1234.95>
LayerCount: 2
Fore
SplineSet
-73 803 m 0
 -86 803 -90 817 -90 830 c 0
 -90 836 -89 842 -88 849 c 0
 -70 917 -67 993 -67 1071 c 0
 -67 1105 -67 1139 -67 1173 c 1
 -60 1231 -42 1235 -19 1235 c 2
 50 1235 l 18
 85 1235 93 1161 93 1123 c 0
 93 1010 27 909 -25 840 c 1
 -47 813 -62 803 -73 803 c 0
EndSplineSet
Validated: 1
EndChar

StartChar: gershayim
Encoding: 186 1524 127
Width: 695
VWidth: 2458
GlyphClass: 2
Flags: W
HStem: 803 432<-64.3162 -20.0864 170.842 218.397>
VStem: -67 160<956.25 1234.95> 168 161<954.25 1232.95>
LayerCount: 2
Fore
SplineSet
285 1233 m 18
 320 1233 329 1159 329 1121 c 0
 329 1008 263 907 211 838 c 1
 189 811 173 803 162 803 c 0
 143 803 143 829 147 847 c 0
 165 915 168 991 168 1069 c 0
 168 1103 168 1137 168 1171 c 1
 174 1229 193 1233 216 1233 c 2
 285 1233 l 18
-73 803 m 0
 -86 803 -90 817 -90 830 c 0
 -90 836 -89 842 -88 849 c 0
 -70 917 -67 993 -67 1071 c 0
 -67 1105 -67 1139 -67 1173 c 1
 -60 1231 -42 1235 -19 1235 c 2
 50 1235 l 18
 85 1235 93 1161 93 1123 c 0
 93 1010 27 909 -25 840 c 1
 -47 813 -62 803 -73 803 c 0
EndSplineSet
Validated: 1
EndChar

StartChar: zerononjoin
Encoding: 189 8204 130
Width: 0
GlyphClass: 2
Flags: W
HStem: 1613 281
VStem: -570 330
LayerCount: 2
Fore
SplineSet
-545 1894 m 1
 -412 1786 l 1
 -331 1893 l 1
 -289 1860 l 1
 -372 1753 l 1
 -240 1646 l 1
 -266 1613 l 1
 -397 1719 l 1
 -480 1613 l 1
 -521 1646 l 1
 -439 1753 l 1
 -570 1860 l 1
 -545 1894 l 1
EndSplineSet
Validated: 1
EndChar

StartChar: zerojoin
Encoding: 190 8205 131
Width: 0
GlyphClass: 2
Flags: W
HStem: 1637 140<-581 -555 -221 -206> 1730 47<-555 -242>
VStem: -613 439
LayerCount: 2
Fore
SplineSet
-221 1637 m 1xa0
 -242 1730 l 1
 -555 1730 l 1x60
 -534 1637 l 1
 -581 1637 l 1xa0
 -613 1777 l 1x60
 -206 1777 l 1
 -174 1637 l 1
 -221 1637 l 1xa0
EndSplineSet
Validated: 1
EndChar

StartChar: lrm
Encoding: 191 8206 132
Width: 0
GlyphClass: 2
Flags: W
HStem: 1730 47<-553 -306>
VStem: -564 354
LayerCount: 2
Fore
SplineSet
-408 1860 m 1
 -383 1894 l 1
 -210 1753 l 1
 -318 1612 l 1
 -359 1646 l 1
 -294 1730 l 1
 -553 1730 l 1
 -564 1777 l 1
 -306 1777 l 1
 -408 1860 l 1
EndSplineSet
Validated: 1
EndChar

StartChar: rlm
Encoding: 192 8207 133
Width: 0
GlyphClass: 2
Flags: W
HStem: 1730 47<-502 -255>
VStem: -599 355
LayerCount: 2
Fore
SplineSet
-400 1647 m 1
 -425 1613 l 1
 -599 1754 l 1
 -490 1895 l 1
 -450 1861 l 1
 -514 1777 l 1
 -255 1777 l 1
 -244 1730 l 1
 -502 1730 l 1
 -400 1647 l 1
EndSplineSet
Validated: 1
EndChar

StartChar: newshekel
Encoding: 199 8362 140
Width: 1298
VWidth: 2458
GlyphClass: 2
Flags: W
HStem: -8 175<487.406 614.081> 767 159<157.306 489.69>
VStem: 343 50<308.701 454.908> 824 91<419.632 711.119> 850 97<123.5 471.24>
LayerCount: 2
Fore
SplineSet
248 22 m 0xe0
 239 22 173 54 156 102 c 0
 155 110 153 118 150 131 c 1
 148 156 l 2
 147 159 69 714 57 762 c 1
 -2 780 -4 798 -13 834 c 2
 -27 895 l 2
 -31 914 -33 929 -33 940 c 0
 -33 958 -29 967 -23 967 c 0
 -16 967 14 926 82 926 c 2
 472 926 l 2
 540 926 552 967 558 967 c 0
 567 967 587 942 597 895 c 2
 611 834 l 2
 614 823 616 813 616 804 c 0
 616 787 607 774 573 762 c 1
 583 710 711 366 712 362 c 2
 721 337 l 2
 728 320 730 312 730 297 c 0
 730 258 684 228 674 228 c 0
 661 228 641 263 623 344 c 9
 512 674 l 17
 477 762 467 767 395 767 c 2
 233 767 l 2
 173 767 157 764 157 711 c 0
 157 701 157 689 158 674 c 9
 282 138 l 18
 286 123 287 110 287 98 c 0
 287 45 259 22 248 22 c 0xe0
477 223 m 24
 501 192 555 167 561 167 c 0
 571 167 588 172 607 176 c 2
 815 220 l 1
 843 230 850 252 850 283 c 0xe8
 850 308 845 339 842 372 c 2
 824 606 l 2
 822 633 828 649 826 660 c 0
 819 687 766 700 750 770 c 2
 733 845 l 2
 729 862 728 876 728 886 c 0
 728 904 733 908 738 908 c 0
 744 908 763 908 793 875 c 2
 828 836 l 1
 884 783 940 770 953 716 c 1
 948 681 915 654 915 519 c 0
 915 511 915 502 915 493 c 2xf0
 946 168 l 2
 947 161 947 155 947 149 c 0xe8
 947 98 919 89 849 71 c 2
 562 -3 l 1
 540 -7 526 -8 516 -8 c 0
 481 -8 473 22 441 101 c 2
 374 266 l 2
 355 313 343 327 343 364 c 0
 343 391 357 410 357 434 c 0
 357 517 242 501 220 598 c 2
 199 689 l 2
 195 706 193 719 193 729 c 0
 193 746 199 752 204 752 c 0
 210 752 228 752 259 719 c 2
 294 680 l 1
 350 626 443 600 443 531 c 0
 443 481 393 433 393 386 c 1
 413 298 432 281 477 223 c 24
EndSplineSet
Validated: 1
EndChar

StartChar: dottedcircle
Encoding: 201 9676 141
Width: 1244
GlyphClass: 2
Flags: W
HStem: -12 143<545.461 671.204> 48 143<298.133 424.286 766.133 892.286> 222 143<83.4614 209.204 899.461 1025.2> 456 143<-30.5386 95.2036 905.461 1031.2> 690 143<-24.5386 101.204 791.461 917.204> 864 143<109.796 235.204 577.796 703.204> 924 143<329.461 455.204>
VStem: -42 149<467.148 587.852 705.01 825.065> 72 149<233.148 353.852> 98 149<875.148 995.852> 286 150<59.1481 179.191> 318 149<935.148 1055.85> 534 149<-0.851929 119.852> 566 149<875.148 995.852> 754 150<59.1481 179.191> 780 149<701.148 821.852> 888 149<233.148 353.852 471.01 591.065>
AnchorPoint: "m2b-9" 772 0 basechar 0
AnchorPoint: "m2b-0" 622 0 basechar 0
AnchorPoint: "m2b-5b" 630 0 basechar 0
AnchorPoint: "m2b-5a" 622 0 basechar 0
AnchorPoint: "m2b-8c" 942 0 basechar 0
AnchorPoint: "m2b-8b" 150 0 basechar 0
AnchorPoint: "m2b-8a" 622 0 basechar 0
AnchorPoint: "m2b-7a" 177 0 basechar 0
AnchorPoint: "m2b-4d" 622 0 basechar 0
AnchorPoint: "m2b-4c" 622 0 basechar 0
AnchorPoint: "m2b-4b" 622 0 basechar 0
AnchorPoint: "m2b-4a" 622 0 basechar 0
AnchorPoint: "m2b-2" 600 0 basechar 0
AnchorPoint: "m2b-1" 635 0 basechar 0
LayerCount: 2
Fore
SplineSet
49 456 m 0x39
 -4 456 -42 491 -42 552 c 0
 -42 583 -22 599 16 599 c 0
 68 599 107 565 107 503 c 0
 107 472 88 456 49 456 c 0x39
985 456 m 0
 932 456 894 491 894 552 c 0
 894 583 914 599 952 599 c 0
 1004 599 1043 565 1043 503 c 0
 1043 472 1024 456 985 456 c 0
409 924 m 0x3a10
 356 924 318 959 318 1020 c 0
 318 1051 338 1067 376 1067 c 0
 428 1067 467 1033 467 971 c 0
 467 940 448 924 409 924 c 0x3a10
625 -12 m 0xb808
 572 -12 534 23 534 84 c 0
 534 115 554 131 592 131 c 0
 644 131 683 97 683 35 c 0
 683 4 664 -12 625 -12 c 0xb808
871 690 m 0
 818 690 780 725 780 786 c 0
 780 817 800 833 838 833 c 0
 890 833 929 799 929 737 c 0x3801
 929 706 910 690 871 690 c 0
979 222 m 0
 926 222 888 257 888 318 c 0
 888 349 908 365 946 365 c 0
 998 365 1037 331 1037 269 c 0x380080
 1037 238 1018 222 979 222 c 0
55 690 m 0
 2 690 -36 725 -36 786 c 0
 -36 817 -16 833 22 833 c 0
 74 833 113 799 113 737 c 0
 113 706 94 690 55 690 c 0
163 222 m 0
 110 222 72 257 72 318 c 0
 72 349 92 365 130 365 c 0
 182 365 221 331 221 269 c 0x3880
 221 238 202 222 163 222 c 0
189 864 m 0x3c40
 136 864 98 899 98 960 c 0
 98 991 117 1007 156 1007 c 0
 208 1007 247 973 247 911 c 0
 247 880 228 864 189 864 c 0x3c40
657 864 m 0
 604 864 566 899 566 960 c 0
 566 991 585 1007 624 1007 c 0
 676 1007 715 973 715 911 c 0x3c04
 715 880 696 864 657 864 c 0
377 48 m 0x7820
 325 48 286 83 286 144 c 0
 286 175 306 191 344 191 c 0
 397 191 436 157 436 95 c 0
 436 64 416 48 377 48 c 0x7820
845 48 m 0
 793 48 754 83 754 144 c 0
 754 175 774 191 812 191 c 0
 865 191 904 157 904 95 c 0x7802
 904 64 884 48 845 48 c 0
EndSplineSet
Validated: 1
EndChar

StartChar: jsvarika
Encoding: 203 64286 142
Width: 0
GlyphClass: 4
Flags: W
HStem: 1228 116<-425.261 -185.064>
VStem: -537 443<1318.64 1378>
AnchorPoint: "m2m-rafe" -46.1738 200 basemark 0
AnchorPoint: "m2b-3" 0 0 mark 0
LayerCount: 2
Fore
SplineSet
-310 1344 m 0
 -255 1344 -201 1366 -150 1420 c 2
 -133 1438 l 1
 -118 1414 l 2
 -109 1400 -94 1378 -94 1357 c 0
 -94 1346 -100 1338 -105 1330 c 1
 -156 1268 -211 1228 -284 1228 c 0
 -357 1228 -430 1268 -509 1330 c 1
 -526 1346 -537 1356 -537 1387 c 0
 -537 1397 -536 1406 -534 1414 c 2
 -531 1438 l 1
 -506 1420 l 2
 -429 1366 -365 1344 -310 1344 c 0
EndSplineSet
Validated: 1
EndChar

StartChar: ayin.alt
Encoding: 205 64288 144
Width: 1050
GlyphClass: 2
Flags: W
HStem: -30 276<451.979 572.284>
VStem: 115 74<622.896 825.096>
AnchorPoint: "m2b-v2r" 427 0 basechar 0
AnchorPoint: "HbWM" 470 0 basechar 0
AnchorPoint: "HbNM" 400 0 basechar 0
AnchorPoint: "VbWM" 500 0 basechar 0
AnchorPoint: "VbNM" 477 0 basechar 0
AnchorPoint: "m2b-10" -330 0 basechar 0
AnchorPoint: "m2b-7c" -220 0 basechar 0
AnchorPoint: "m2b-7b" 215 0 basechar 0
AnchorPoint: "m2b-pg" 843 0 basechar 0
AnchorPoint: "m2b-9" 650 0 basechar 0
AnchorPoint: "m2b-5b" 390 0 basechar 0
AnchorPoint: "m2b-5a" 426.537 0 basechar 0
AnchorPoint: "m2b-8c" 724 0 basechar 0
AnchorPoint: "m2b-8b" 80 0 basechar 0
AnchorPoint: "m2b-8a" 500 0 basechar 0
AnchorPoint: "m2b-7a" 195 0 basechar 0
AnchorPoint: "m2b-4d" 422.383 20 basechar 0
AnchorPoint: "m2b-4c" 427 0 basechar 0
AnchorPoint: "m2b-4b" 427 0 basechar 0
AnchorPoint: "m2b-4a" 426.537 0 basechar 0
AnchorPoint: "m2b-2" 540.301 68 basechar 0
AnchorPoint: "m2b-1" 456.537 0 basechar 0
LayerCount: 2
Fore
SplineSet
719 990 m 18
 758 959 770 933 770 877 c 0
 770 792 727 724 727 663 c 2
 724 123 l 1
 719 41 727 30 510 8 c 2
 168 -27 l 2
 154 -29 124 -30 115 -30 c 0
 87 -30 84 -18 73 32 c 2
 49 134 l 2
 46 147 44 158 44 166 c 0
 44 197 67 200 120 206 c 2
 280 222 l 1
 315 227 324 239 324 254 c 0
 324 259 323 265 322 270 c 0
 305 342 139 582 119 667 c 0
 116 681 115 693 115 704 c 0
 115 740 128 761 128 776 c 0
 128 778 128 779 128 781 c 0
 122 798 101 809 83 824 c 10
 25 873 l 18
 -14 907 -68 941 -80 990 c 9
 -101 1117 l 18
 -104 1136 -105 1151 -105 1164 c 0
 -105 1212 -87 1219 -86 1219 c 0
 -78 1219 -72 1191 -40 1165 c 10
 193 981 l 18
 221 958 229 938 229 902 c 0
 229 838 189 756 189 707 c 0
 189 700 190 695 191 690 c 0
 208 623 371 411 410 357 c 0
 442 312 467 246 515 246 c 0
 517 246 520 247 523 247 c 8
 599 247 618 331 622 389 c 2
 657 785 l 1
 651 810 631 817 611 833 c 10
 552 882 l 18
 513 916 459 950 447 999 c 9
 426 1126 l 18
 423 1145 422 1160 422 1173 c 0
 422 1221 440 1228 440 1228 c 0
 448 1228 455 1200 487 1174 c 10
 719 990 l 18
EndSplineSet
Validated: 1
MultipleSubs2: "Addhairspacebeforeletter-0 subtable" hairspace ayin.alt
MultipleSubs2: "AddHairspaceAfterMark-0 subtable" ayin.alt hairspace
MultipleSubs2: "Addhairspacebeforeletter subtable" hairspace ayin.alt
MultipleSubs2: "Addthinspacebeforeletter subtable" thinspace ayin.alt
MultipleSubs2: "AddHairspaceAfterMark subtable" ayin.alt hairspace
MultipleSubs2: "AddThinspaceAfterMark subtable" ayin.alt thinspace
EndChar

StartChar: alef.wide
Encoding: 206 64289 145
Width: 1690
GlyphClass: 2
Flags: W
HStem: 0 228<214.536 443.305>
AnchorPoint: "m2b-10" -330 0 basechar 0
AnchorPoint: "m2b-7c" -220 0 basechar 0
AnchorPoint: "m2b-7b" 183 0 basechar 0
AnchorPoint: "m2b-3" 800 0 basechar 0
AnchorPoint: "m2b-9" 950 0 basechar 0
AnchorPoint: "m2b-5b" 1050 0 basechar 0
AnchorPoint: "m2b-5a" 905 0 basechar 0
AnchorPoint: "m2b-8c" 1352 0 basechar 0
AnchorPoint: "m2b-8b" 100 0 basechar 0
AnchorPoint: "m2b-8a" 800 0 basechar 0
AnchorPoint: "m2b-7a" 163 0 basechar 0
AnchorPoint: "m2b-4d" 905 0 basechar 0
AnchorPoint: "m2b-4c" 905 0 basechar 0
AnchorPoint: "m2b-4b" 905 0 basechar 0
AnchorPoint: "m2b-4a" 905 0 basechar 0
AnchorPoint: "m2b-2" 1028.89 -450 basechar 0
AnchorPoint: "m2b-1" 835 0 basechar 0
LayerCount: 2
Fore
SplineSet
208 295 m 1
 222 233 230 228 307 228 c 10
 371 228 l 2
 424 228 436 221 446 176 c 2
 470 72 l 2
 475 52 478 37 478 26 c 0
 478 5 464 0 417 0 c 10
 242 0 l 18
 179 0 177 12 160 77 c 9
 20 766 l 1
 -8 782 -64 862 -91 954 c 1
 -136 1150 l 2
 -137 1153 -137 1155 -137 1158 c 0
 -137 1172 -126 1176 -117 1176 c 0
 -113 1176 -110 1175 -108 1174 c 0
 -92 1163 75 1012 142 980 c 2
 917 607 l 9
 1099 1111 l 18
 1105 1129 1113 1146 1130 1146 c 0
 1138 1146 1149 1142 1163 1131 c 10
 1274 1044 l 2
 1330 1001 1340 980 1347 954 c 0
 1349 945 1353 933 1355 919 c 2
 1370 852 l 1
 1372 839 1373 827 1373 817 c 0
 1373 779 1361 760 1339 760 c 0
 1326 760 1309 766 1287 778 c 2
 1212 822 l 1
 1184 841 1166 851 1152 851 c 0
 1137 851 1125 840 1112 819 c 9
 1024 641 l 17
 1016 619 1013 603 1016 588 c 0
 1021 566 1041 531 1074 507 c 1
 1446 327 l 2
 1528 287 1505 276 1522 204 c 2
 1561 36 l 2
 1561 33 1562 31 1562 29 c 0
 1562 8 1537 7 1531 11 c 0
 1100 223 674 440 247 657 c 1
 201 679 169 696 154 696 c 0
 144 696 139 686 139 666 c 0
 139 653 141 635 145 612 c 2
 208 295 l 1
EndSplineSet
Validated: 1
MultipleSubs2: "Addhairspacebeforeletter-0 subtable" hairspace alef.wide
MultipleSubs2: "AddHairspaceAfterMark-0 subtable" alef.wide hairspace
MultipleSubs2: "Addhairspacebeforeletter subtable" hairspace alef.wide
MultipleSubs2: "Addthinspacebeforeletter subtable" thinspace alef.wide
MultipleSubs2: "AddHairspaceAfterMark subtable" alef.wide hairspace
MultipleSubs2: "AddThinspaceAfterMark subtable" alef.wide thinspace
EndChar

StartChar: dalet.wide
Encoding: 207 64290 146
Width: 1674
GlyphClass: 2
Flags: W
HStem: 903 226<-99.1488 1147.25>
AnchorPoint: "m2b-v2left" 1400 0 basechar 0
AnchorPoint: "m2b-10" -330 0 basechar 0
AnchorPoint: "m2b-7c" -220 0 basechar 0
AnchorPoint: "m2b-7b" 171 0 basechar 0
AnchorPoint: "m2b-3" 838 0 basechar 0
AnchorPoint: "m2b-9" 1030 0 basechar 0
AnchorPoint: "m2b-5b" 1090 0 basechar 0
AnchorPoint: "m2b-5a" 1400 0 basechar 0
AnchorPoint: "m2b-8c" 1242 0 basechar 0
AnchorPoint: "m2b-8b" 100 0 basechar 0
AnchorPoint: "m2b-8a" 838.11 0 basechar 0
AnchorPoint: "m2b-7a" 151 0 basechar 0
AnchorPoint: "m2b-4d" 1280 0 basechar 0
AnchorPoint: "m2b-4c" 1297 0 basechar 0
AnchorPoint: "m2b-4b" 1400 0 basechar 0
AnchorPoint: "m2b-4a" 1400 0 basechar 0
AnchorPoint: "m2b-2" 768.11 0 basechar 0
AnchorPoint: "m2b-1" 838.11 0 basechar 0
LayerCount: 2
Fore
SplineSet
17 903 m 2
 -72 903 -90 904 -101 952 c 2
 -130 1080 l 2
 -136 1106 -139 1127 -139 1144 c 0
 -139 1173 -132 1188 -123 1188 c 0
 -114 1188 -71 1129 27 1129 c 2
 1134 1124 l 2
 1232 1124 1249 1183 1258 1183 c 0
 1272 1183 1300 1142 1315 1075 c 2
 1333 993 l 2
 1335 985 1335 977 1335 969 c 0
 1335 934 1314 910 1255 889 c 1
 1323 638 1393 388 1461 137 c 1
 1466 116 l 2
 1470 100 1472 88 1472 78 c 0
 1472 59 1463 47 1441 23 c 1
 1413 -12 1395 -32 1382 -32 c 0
 1363 -32 1352 13 1325 126 c 10
 1178 763 l 17
 1144 898 1143 900 1019 900 c 2
 17 903 l 2
EndSplineSet
Validated: 1
MultipleSubs2: "Addhairspacebeforeletter-0 subtable" hairspace dalet.wide
MultipleSubs2: "AddHairspaceAfterMark-0 subtable" dalet.wide hairspace
MultipleSubs2: "Addhairspacebeforeletter subtable" hairspace dalet.wide
MultipleSubs2: "Addthinspacebeforeletter subtable" thinspace dalet.wide
MultipleSubs2: "AddHairspaceAfterMark subtable" dalet.wide hairspace
MultipleSubs2: "AddThinspaceAfterMark subtable" dalet.wide thinspace
EndChar

StartChar: he.wide
Encoding: 208 64291 147
Width: 1776
GlyphClass: 2
Flags: W
HStem: 908 223<-82.5398 1268.08>
AnchorPoint: "m2b-10" -330 0 basechar 0
AnchorPoint: "m2b-7c" -220 0 basechar 0
AnchorPoint: "m2b-7b" 200 0 basechar 0
AnchorPoint: "m2b-pg" 1626 0 basechar 0
AnchorPoint: "m2b-3" 880 0 basechar 0
AnchorPoint: "m2b-9" 943 0 basechar 0
AnchorPoint: "m2b-5b" 1171 0 basechar 0
AnchorPoint: "m2b-5a" 907 0 basechar 0
AnchorPoint: "m2b-8c" 1420 0 basechar 0
AnchorPoint: "m2b-8b" 100 0 basechar 0
AnchorPoint: "m2b-8a" 880 0 basechar 0
AnchorPoint: "m2b-7a" 169 0 basechar 0
AnchorPoint: "m2b-4d" 907.106 0 basechar 0
AnchorPoint: "m2b-4c" 907.106 0 basechar 0
AnchorPoint: "m2b-4b" 907.106 0 basechar 0
AnchorPoint: "m2b-4a" 907.106 0 basechar 0
AnchorPoint: "m2b-2" 907.106 0 basechar 0
AnchorPoint: "m2b-1" 927.106 0 basechar 0
LayerCount: 2
Fore
SplineSet
35 902 m 2
 -54 902 -71 903 -83 951 c 2
 -112 1079 l 2
 -118 1105 -120 1126 -120 1143 c 0
 -120 1172 -113 1187 -105 1187 c 0
 -96 1187 -52 1128 46 1128 c 2
 1228 1131 l 2
 1326 1131 1342 1190 1351 1190 c 0
 1366 1190 1393 1149 1408 1082 c 2
 1426 1000 l 2
 1430 984 1433 969 1433 957 c 0
 1433 932 1421 913 1373 897 c 1
 1389 826 1579 149 1580 145 c 2
 1584 124 l 2
 1588 108 1590 96 1590 86 c 0
 1590 67 1581 55 1559 31 c 1
 1531 -4 1514 -24 1501 -24 c 0
 1482 -24 1470 21 1443 134 c 10
 1296 771 l 17
 1264 898 1261 908 1159 908 c 0
 1152 908 1145 908 1137 908 c 2
 35 902 l 2
183 -28 m 0
 166 -28 148 53 130 130 c 10
 42 513 l 2
 38 527 37 538 37 546 c 0
 37 567 46 576 66 606 c 0
 91 642 99 658 111 658 c 0
 129 658 141 613 168 500 c 9
 265 120 l 2
 269 106 270 95 270 86 c 0
 270 64 260 52 238 27 c 1
 212 -8 195 -28 183 -28 c 0
EndSplineSet
Validated: 1
MultipleSubs2: "Addhairspacebeforeletter-0 subtable" hairspace he.wide
MultipleSubs2: "AddHairspaceAfterMark-0 subtable" he.wide hairspace
MultipleSubs2: "Addhairspacebeforeletter subtable" hairspace he.wide
MultipleSubs2: "Addthinspacebeforeletter subtable" thinspace he.wide
MultipleSubs2: "AddHairspaceAfterMark subtable" he.wide hairspace
MultipleSubs2: "AddThinspaceAfterMark subtable" he.wide thinspace
EndChar

StartChar: kaf.wide
Encoding: 209 64292 148
Width: 1533
GlyphClass: 2
Flags: W
VStem: 1270 107<311.347 462.49>
AnchorPoint: "m2b-10" -330 0 basechar 0
AnchorPoint: "m2b-7c" -220 0 basechar 0
AnchorPoint: "m2b-7b" 200 0 basechar 0
AnchorPoint: "m2b-3" 793 0 basechar 0
AnchorPoint: "m2b-9" 1024 0 basechar 0
AnchorPoint: "m2b-5b" 900 0 basechar 0
AnchorPoint: "m2b-5a" 753 0 basechar 0
AnchorPoint: "m2b-8c" 1174 0 basechar 0
AnchorPoint: "m2b-8b" 100 0 basechar 0
AnchorPoint: "m2b-8a" 793 0 basechar 0
AnchorPoint: "m2b-7a" 180 0 basechar 0
AnchorPoint: "m2b-4d" 753 0 basechar 0
AnchorPoint: "m2b-4c" 753 0 basechar 0
AnchorPoint: "m2b-4b" 753 0 basechar 0
AnchorPoint: "m2b-4a" 753 0 basechar 0
AnchorPoint: "m2b-2" 773 0 basechar 0
AnchorPoint: "m2b-1" 793 0 basechar 0
LayerCount: 2
Fore
SplineSet
938 811 m 9
 46 902 l 2
 -45 911 -62 909 -71 950 c 2
 -101 1078 l 2
 -107 1103 -109 1124 -109 1140 c 0
 -109 1170 -102 1186 -94 1186 c 0
 -84 1186 -44 1136 56 1126 c 2
 966 1032 l 2
 1094 1018 1184 1012 1258 780 c 9
 1365 419 l 17
 1372 391 1377 361 1377 328 c 0
 1377 210 1323 81 1232 73 c 10
 160 -32 l 18
 146 -33 118 -36 111 -38 c 0
 109 -38 107 -38 105 -38 c 0
 78 -38 71 -9 68 24 c 1
 58 129 l 2
 57 148 55 162 55 171 c 0
 55 193 65 196 112 201 c 10
 1161 303 l 18
 1237 309 1270 312 1270 355 c 0
 1270 365 1268 377 1264 392 c 0
 1258 421 1245 459 1228 512 c 9
 1158 671 l 17
 1094 788 1083 795 938 811 c 9
EndSplineSet
Validated: 1
MultipleSubs2: "Addhairspacebeforeletter-0 subtable" hairspace kaf.wide
MultipleSubs2: "AddHairspaceAfterMark-0 subtable" kaf.wide hairspace
MultipleSubs2: "Addhairspacebeforeletter subtable" hairspace kaf.wide
MultipleSubs2: "Addthinspacebeforeletter subtable" thinspace kaf.wide
MultipleSubs2: "AddHairspaceAfterMark subtable" kaf.wide hairspace
MultipleSubs2: "AddThinspaceAfterMark subtable" kaf.wide thinspace
EndChar

StartChar: lamed.wide
Encoding: 210 64293 149
Width: 1668
GlyphClass: 2
Flags: W
HStem: 904 224<-46.3069 1225.46>
VStem: 766 217<48.035 181.344>
AnchorPoint: "m2b-10" -330 0 basechar 0
AnchorPoint: "m2b-7c" -220 0 basechar 0
AnchorPoint: "m2b-9" 1081.08 -22 basechar 0
AnchorPoint: "m2b-5b" 1004 0 basechar 0
AnchorPoint: "m2b-5a" 830 0 basechar 0
AnchorPoint: "m2b-8c" 1283 0 basechar 0
AnchorPoint: "m2b-8b" -160 0 basechar 0
AnchorPoint: "m2b-8a" 874 0 basechar 0
AnchorPoint: "m2b-7a" -20 0 basechar 0
AnchorPoint: "m2b-4d" 710 0 basechar 0
AnchorPoint: "m2b-4c" 830 0 basechar 0
AnchorPoint: "m2b-4b" 830 0 basechar 0
AnchorPoint: "m2b-4a" 830 0 basechar 0
AnchorPoint: "m2b-2" 790 0 basechar 0
AnchorPoint: "m2b-1" 860 0 basechar 0
LayerCount: 2
Fore
SplineSet
814 -78 m 17
 804 -78 777 -7 774 6 c 0
 770 24 766 49 766 75 c 0
 766 113 773 152 798 174 c 2
 1324 644 l 1
 1298 757 1273 826 1226 886 c 0
 1215 901 1173 904 1127 904 c 2
 55 904 l 2
 -19 904 -60 925 -89 1036 c 2
 -233 1572 l 1
 -240 1602 -278 1647 -316 1663 c 0
 -362 1682 -380 1702 -387 1732 c 2
 -408 1824 l 2
 -414 1849 -416 1873 -416 1894 c 0
 -416 1930 -409 1955 -402 1956 c 0
 -384 1956 -374 1948 -339 1909 c 0
 -296 1861 -292 1871 -246 1828 c 1
 -246 1828 -196 1787 -187 1752 c 0
 -187 1749 -187 1747 -187 1744 c 2
 -49 1176 l 2
 -38 1129 -2 1128 58 1128 c 2
 1151 1128 l 2
 1264 1128 1282 1092 1311 1018 c 2
 1441 687 l 2
 1453 657 1469 614 1469 589 c 0
 1469 501 1281 389 1220 342 c 1
 991 175 l 2
 980 168 977 156 977 143 c 0
 977 129 983 116 983 105 c 0
 983 77 886 2 874 -12 c 10
 814 -78 l 17
EndSplineSet
Validated: 1
MultipleSubs2: "Addhairspacebeforeletter-0 subtable" hairspace lamed.wide
MultipleSubs2: "AddHairspaceAfterMark-0 subtable" lamed.wide hairspace
MultipleSubs2: "Addhairspacebeforeletter subtable" hairspace lamed.wide
MultipleSubs2: "Addthinspacebeforeletter subtable" thinspace lamed.wide
MultipleSubs2: "AddHairspaceAfterMark subtable" lamed.wide hairspace
MultipleSubs2: "AddThinspaceAfterMark subtable" lamed.wide thinspace
EndChar

StartChar: finalmem.wide
Encoding: 211 64294 150
Width: 1767
GlyphClass: 2
Flags: W
HStem: 0 226<230.68 1474.5> 901 228<-84.7671 54.9891 133.781 1309.25>
VStem: 3 91<632.668 861.52> 1477 114<113.5 341.656>
AnchorPoint: "m2b-7b" 185 0 basechar 0
AnchorPoint: "m2b-9" 1076 0 basechar 0
AnchorPoint: "m2b-5b" 1076 0 basechar 0
AnchorPoint: "m2b-5a" 904 0 basechar 0
AnchorPoint: "m2b-8c" 1420 0 basechar 0
AnchorPoint: "m2b-8b" 101.616 -7 basechar 0
AnchorPoint: "m2b-8a" 926 0 basechar 0
AnchorPoint: "m2b-7a" 165 0 basechar 0
AnchorPoint: "m2b-4d" 904 0 basechar 0
AnchorPoint: "m2b-4c" 904 0 basechar 0
AnchorPoint: "m2b-4b" 904 0 basechar 0
AnchorPoint: "m2b-4a" 904 0 basechar 0
AnchorPoint: "m2b-2" 904 0 basechar 0
AnchorPoint: "m2b-1" 904 0 basechar 0
LayerCount: 2
Fore
SplineSet
1477 280 m 0
 1477 307 1466 367 1456 398 c 2
 1364 738 l 1
 1327 846 1315 897 1184 897 c 2
 190 901 l 1
 118 860 94 808 94 743 c 0
 94 713 99 681 107 646 c 0
 126 561 162 462 194 354 c 0
 231 230 276 226 315 226 c 2
 1394 222 l 2
 1452 222 1477 233 1477 280 c 0
55 886 m 0
 55 900 40 901 31 901 c 1
 25 901 20 901 14 901 c 0
 -36 901 -77 909 -87 952 c 2
 -116 1080 l 2
 -122 1106 -125 1127 -125 1144 c 0
 -125 1173 -118 1188 -109 1188 c 0
 -100 1188 -57 1129 41 1129 c 2
 1292 1124 l 2
 1337 1124 1408 1040 1442 894 c 1
 1587 214 l 2
 1590 197 1591 180 1591 165 c 0
 1591 62 1524 -4 1412 -4 c 2
 258 0 l 1
 202 5 164 5 136 125 c 2
 3 694 l 2
 2 699 3 705 3 710 c 0
 3 772 55 867 55 886 c 0
EndSplineSet
Validated: 1
MultipleSubs2: "Addhairspacebeforeletter-0 subtable" hairspace finalmem.wide
MultipleSubs2: "AddHairspaceAfterMark-0 subtable" finalmem.wide hairspace
MultipleSubs2: "Addhairspacebeforeletter subtable" hairspace finalmem.wide
MultipleSubs2: "Addthinspacebeforeletter subtable" thinspace finalmem.wide
MultipleSubs2: "AddHairspaceAfterMark subtable" finalmem.wide hairspace
MultipleSubs2: "AddThinspaceAfterMark subtable" finalmem.wide thinspace
EndChar

StartChar: resh.wide
Encoding: 212 64295 151
Width: 1749
GlyphClass: 2
Flags: W
HStem: -13 21G<1530.5 1547.5>
VStem: 1524 73<0.922119 105.349>
AnchorPoint: "m2b-v2left" 1550 0 basechar 0
AnchorPoint: "m2b-10" -330 0 basechar 0
AnchorPoint: "m2b-7c" -220 0 basechar 0
AnchorPoint: "m2b-7b" 168 0 basechar 0
AnchorPoint: "m2b-9" 1029 0 basechar 0
AnchorPoint: "m2b-5b" 1290 0 basechar 0
AnchorPoint: "m2b-5a" 1550 0 basechar 0
AnchorPoint: "m2b-8c" 1406 0 basechar 0
AnchorPoint: "m2b-8b" 100 0 basechar 0
AnchorPoint: "m2b-8a" 878.893 0 basechar 0
AnchorPoint: "m2b-7a" 148 0 basechar 0
AnchorPoint: "m2b-4d" 1450 0 basechar 0
AnchorPoint: "m2b-4c" 1462 0 basechar 0
AnchorPoint: "m2b-4b" 1550 0 basechar 0
AnchorPoint: "m2b-4a" 1550 0 basechar 0
AnchorPoint: "m2b-2" 858.893 0 basechar 0
AnchorPoint: "m2b-1" 878.893 0 basechar 0
LayerCount: 2
Fore
SplineSet
1431 815 m 0
 1435 796 1559 235 1597 70 c 0
 1597 69 1597 68 1597 67 c 0
 1597 44 1562 -13 1533 -13 c 0
 1528 -13 1527 -10 1524 0 c 0
 1450 218 1419 371 1362 586 c 0
 1317 755 1297 793 1151 809 c 9
 12 910 l 2
 -79 918 -96 917 -105 958 c 2
 -135 1086 l 2
 -140 1111 -143 1132 -143 1148 c 0
 -143 1178 -135 1194 -128 1194 c 0
 -118 1194 -78 1145 22 1134 c 1
 1134 1035 l 1
 1355 1012 1389 997 1431 815 c 0
EndSplineSet
Validated: 1
MultipleSubs2: "Addhairspacebeforeletter-0 subtable" hairspace resh.wide
MultipleSubs2: "AddHairspaceAfterMark-0 subtable" resh.wide hairspace
MultipleSubs2: "Addhairspacebeforeletter subtable" hairspace resh.wide
MultipleSubs2: "Addthinspacebeforeletter subtable" thinspace resh.wide
MultipleSubs2: "AddHairspaceAfterMark subtable" resh.wide hairspace
MultipleSubs2: "AddThinspaceAfterMark subtable" resh.wide thinspace
EndChar

StartChar: tav.wide
Encoding: 213 64296 152
Width: 1853
GlyphClass: 2
Flags: W
HStem: -8 21G<83 102.5 1656.5 1672.5> 903 225<257.002 1377.15>
VStem: 135 83<610.901 855.532> 226 205<155.5 352.5>
AnchorPoint: "m2b-10" -330 0 basechar 0
AnchorPoint: "m2b-7c" -220 0 basechar 0
AnchorPoint: "m2b-7b" 312 0 basechar 0
AnchorPoint: "m2b-3" 972 0 basechar 0
AnchorPoint: "m2b-9" 1122 0 basechar 0
AnchorPoint: "m2b-5b" 1189 0 basechar 0
AnchorPoint: "m2b-5a" 990 0 basechar 0
AnchorPoint: "m2b-8c" 1516 0 basechar 0
AnchorPoint: "m2b-8b" 200 0 basechar 0
AnchorPoint: "m2b-8a" 972 0 basechar 0
AnchorPoint: "m2b-7a" 292 0 basechar 0
AnchorPoint: "m2b-4d" 990 0 basechar 0
AnchorPoint: "m2b-4c" 1000 0 basechar 0
AnchorPoint: "m2b-4b" 990 0 basechar 0
AnchorPoint: "m2b-4a" 990 0 basechar 0
AnchorPoint: "m2b-2" 982 0 basechar 0
AnchorPoint: "m2b-1" 972 0 basechar 0
LayerCount: 2
Fore
SplineSet
226 311 m 0
 226 394 135 604 135 687 c 0
 135 725 146 769 168 853 c 1
 156 902 51 904 40 951 c 2
 11 1079 l 2
 5 1105 3 1126 3 1143 c 0
 3 1172 10 1187 18 1187 c 0
 27 1187 71 1128 169 1128 c 2
 1271 1128 l 1
 1420 1127 1457 1087 1499 920 c 2
 1718 47 l 1
 1716 24 1683 -8 1662 -8 c 0
 1651 -8 1643 -1 1641 8 c 2
 1440 704 l 1
 1396 837 1388 903 1264 903 c 0
 1147 903 496 903 379 903 c 0
 288 903 270 897 239 822 c 0
 225 787 218 766 218 745 c 0
 218 737 219 729 221 721 c 1
 221 721 306 455 417 244 c 0
 426 224 431 204 431 179 c 0
 431 132 408 85 356 67 c 2
 215 19 l 2
 201 14 107 -8 98 -8 c 0
 68 -8 64 17 56 54 c 2
 36 141 l 2
 35 147 34 153 34 159 c 0
 34 251 226 182 226 311 c 0
EndSplineSet
Validated: 1
MultipleSubs2: "Addhairspacebeforeletter-0 subtable" hairspace tav.wide
MultipleSubs2: "AddHairspaceAfterMark-0 subtable" tav.wide hairspace
MultipleSubs2: "Addhairspacebeforeletter subtable" hairspace tav.wide
MultipleSubs2: "Addthinspacebeforeletter subtable" thinspace tav.wide
MultipleSubs2: "AddHairspaceAfterMark subtable" tav.wide hairspace
MultipleSubs2: "AddThinspaceAfterMark subtable" tav.wide thinspace
EndChar

StartChar: hebrewplussign
Encoding: 214 64297 153
Width: 1156
VWidth: 1998
GlyphClass: 2
Flags: W
HStem: 427 119<16 414 546 969>
LayerCount: 2
Fore
SplineSet
969 546 m 1
 996 427 l 1
 16 427 l 1
 -11 546 l 1
 414 546 l 1
 319 959 l 1
 451 959 l 1
 546 546 l 1
 969 546 l 1
EndSplineSet
Validated: 1
EndChar

StartChar: aleflamed
Encoding: 247 64335 185
Width: 1208
GlyphClass: 3
Flags: W
HStem: 0 21G<1027 1039.5>
AnchorPoint: "m2b-1" 600 0 basechar 0
AnchorPoint: "m2b-8c" 976 0 basechar 0
AnchorPoint: "m2b-8b" -100 0 basechar 0
AnchorPoint: "m2b-8a" 584 0 basechar 0
AnchorPoint: "m2b-7a" -20 0 basechar 0
AnchorPoint: "m2b-4d" 580 0 basechar 0
AnchorPoint: "m2b-4c" 580 0 basechar 0
AnchorPoint: "m2b-4b" 580 0 basechar 0
AnchorPoint: "m2b-4a" 674 0 basechar 0
LayerCount: 2
Fore
SplineSet
-429 1933 m 0
 -429 1944 -421 1990 -408 1990 c 0
 -400 1990 -394 1962 -362 1936 c 10
 -221 1823 l 18
 -200 1806 -191 1787 -187 1771 c 2
 -77 1272 l 2
 -72 1250 -68 1232 -65 1215 c 0
 -36 1093 -17 1087 121 980 c 2
 469 708 l 9
 616 1133 l 18
 623 1151 631 1168 648 1168 c 0
 656 1168 667 1164 681 1153 c 10
 792 1066 l 2
 848 1023 858 1002 865 976 c 0
 867 967 871 955 873 941 c 2
 888 874 l 1
 890 861 891 849 891 839 c 0
 891 801 879 782 856 782 c 0
 843 782 827 788 805 800 c 2
 730 844 l 1
 702 863 683 873 669 873 c 0
 654 873 643 862 630 841 c 9
 568 709 l 17
 562 692 559 679 559 667 c 0
 559 636 580 619 616 593 c 1
 930 347 l 2
 1004 290 996 284 1011 222 c 2
 1056 25 l 2
 1057 22 1057 20 1057 18 c 0
 1057 3 1044 0 1035 0 c 0
 1032 0 1029 -1 1027 0 c 0
 1012 11 859 134 799 181 c 2
 22 800 l 2
 -3 820 -77 876 -92 938 c 2
 -240 1581 l 1
 -246 1598 -256 1618 -279 1637 c 10
 -337 1686 l 18
 -377 1720 -385 1725 -397 1774 c 10
 -423 1888 l 18
 -427 1907 -429 1920 -429 1933 c 0
EndSplineSet
Validated: 1
MultipleSubs2: "Addhairspacebeforeletter-0 subtable" hairspace aleflamed
MultipleSubs2: "Addhairspacebeforeletter subtable" hairspace aleflamed
MultipleSubs2: "Addthinspacebeforeletter subtable" thinspace aleflamed
Ligature2: "B6ccmpAlefLamedLigature subtable" alef zerojoin lamed
LCarets2: 2 4 0 
EndChar

StartChar: hatafsegol_meteg
Encoding: 248 -1 186
Width: 0
GlyphClass: 4
Flags: W
HStem: -533 157<-114.039 -9.4594 332.961 437.541> -289 157<-283.541 -179.682 -58.0189 47.3774 276.961 380.82>
VStem: -301 138<-274.156 -145.872> -131 139<-518.156 -390.844> -74 138<-274.429 -145.986> 260 138<-274.156 -146.844> 316 139<-518.156 -390.844>
AnchorPoint: "m2m-6d" 426.838 0.700195 basemark 0
AnchorPoint: "m2m-1" -430 0 basemark 0
AnchorPoint: "m2b-4d" -1.76758 0 mark 0
LayerCount: 2
Fore
SplineSet
265 -518 m 1xe0
 187 -518 l 1
 100 -144 l 1
 178 -144 l 1
 265 -518 l 1xe0
368 -376 m 256
 411 -376 455 -422 455 -478 c 0
 455 -512 435 -533 404 -533 c 256
 358 -533 316 -487 316 -431 c 0xe2
 316 -397 337 -376 368 -376 c 256
311 -132 m 256
 355 -132 398 -178 398 -234 c 0
 398 -268 378 -289 348 -289 c 256
 302 -289 260 -243 260 -187 c 0xe4
 260 -153 280 -132 311 -132 c 256
14 -289 m 256
 -32 -289 -74 -244 -74 -188 c 0
 -74 -153 -53 -132 -23 -132 c 256
 23 -132 64 -178 64 -234 c 0xe8
 64 -268 44 -289 14 -289 c 256
-43 -533 m 256
 -89 -533 -131 -487 -131 -431 c 0
 -131 -397 -110 -376 -79 -376 c 256
 -36 -376 8 -422 8 -478 c 0xf0
 8 -512 -12 -533 -43 -533 c 256
-214 -289 m 256
 -257 -289 -301 -243 -301 -187 c 0
 -301 -153 -281 -132 -251 -132 c 256
 -204 -132 -163 -178 -163 -234 c 0
 -163 -268 -183 -289 -214 -289 c 256
EndSplineSet
Validated: 1
MultipleSubs2: "AddHairspaceAfterMark-0 subtable" hatafsegol_meteg hairspace
MultipleSubs2: "AddHairspaceAfterMark subtable" hatafsegol_meteg hairspace
MultipleSubs2: "AddThinspaceAfterMark subtable" hatafsegol_meteg thinspace
Ligature2: "B1ccmpHatafMeteg subtable" hatafsegol zerojoin meteg
LCarets2: 2 0 0 
EndChar

StartChar: hatafpatah_meteg
Encoding: 249 -1 187
Width: 0
GlyphClass: 4
Flags: W
HStem: -533 157<332.961 437.541> -289 157<276.961 380.82> -247 113<-289 44>
VStem: 260 138<-274.156 -146.844> 316 139<-518.156 -390.844>
AnchorPoint: "m2m-6d" 426.838 0.700195 basemark 0
AnchorPoint: "m2m-1" -430 0 basemark 0
AnchorPoint: "m2b-4d" -2.52148 0.799805 mark 0
LayerCount: 2
Fore
SplineSet
70 -247 m 1xa0
 -289 -247 l 1
 -315 -134 l 1
 44 -134 l 1
 70 -247 l 1xa0
265 -518 m 1
 187 -518 l 1
 100 -144 l 1
 178 -144 l 1
 265 -518 l 1
368 -376 m 256
 411 -376 455 -422 455 -478 c 0
 455 -512 435 -533 404 -533 c 256
 358 -533 316 -487 316 -431 c 0x88
 316 -397 337 -376 368 -376 c 256
311 -132 m 256xd0
 355 -132 398 -178 398 -234 c 0
 398 -268 378 -289 348 -289 c 256
 302 -289 260 -243 260 -187 c 0
 260 -153 280 -132 311 -132 c 256xd0
EndSplineSet
Validated: 1
MultipleSubs2: "AddHairspaceAfterMark-0 subtable" hatafpatah_meteg hairspace
MultipleSubs2: "AddHairspaceAfterMark subtable" hatafpatah_meteg hairspace
MultipleSubs2: "AddThinspaceAfterMark subtable" hatafpatah_meteg thinspace
Ligature2: "B1ccmpHatafMeteg subtable" hatafpatah zerojoin meteg
LCarets2: 2 0 0 
EndChar

StartChar: hatafqamats_meteg
Encoding: 250 -1 188
Width: 0
GlyphClass: 4
Flags: W
HStem: -533 157<332.961 437.541> -289 157<276.961 380.82> -247 113<-290 -127.838 -85 40>
VStem: 260 138<-274.156 -146.844> 316 139<-518.156 -390.844>
AnchorPoint: "m2m-6d" 426.838 0.700195 basemark 0
AnchorPoint: "m2m-1" -429.77 -1 basemark 0
AnchorPoint: "m2b-4d" -1.76758 0 mark 0
LayerCount: 2
Fore
SplineSet
-119 -357 m 0xa0
 -119 -314 -128 -296 -139 -247 c 1
 -290 -247 l 1
 -316 -134 l 1
 -197 -134 -79 -134 40 -134 c 1
 66 -247 l 1
 -85 -247 l 1
 -68 -321 l 2
 -66 -331 -51 -371 -37 -384 c 9
 21 -454 l 17
 14 -479 1 -520 -42 -520 c 0
 -44 -520 -46 -520 -49 -520 c 1
 -58 -521 -67 -520 -76 -519 c 1
 -112 -502 -132 -478 -149 -454 c 9
 -123 -384 l 17
 -120 -378 -119 -369 -119 -357 c 0xa0
265 -518 m 1
 187 -518 l 1
 100 -144 l 1
 178 -144 l 1
 265 -518 l 1
368 -376 m 256
 411 -376 455 -422 455 -478 c 0
 455 -512 435 -533 404 -533 c 256
 358 -533 316 -487 316 -431 c 0x88
 316 -397 337 -376 368 -376 c 256
311 -132 m 256xd0
 355 -132 398 -178 398 -234 c 0
 398 -268 378 -289 348 -289 c 256
 302 -289 260 -243 260 -187 c 0
 260 -153 280 -132 311 -132 c 256xd0
EndSplineSet
Validated: 1
MultipleSubs2: "AddHairspaceAfterMark-0 subtable" hatafqamats_meteg hairspace
MultipleSubs2: "AddHairspaceAfterMark subtable" hatafqamats_meteg hairspace
MultipleSubs2: "AddThinspaceAfterMark subtable" hatafqamats_meteg thinspace
Ligature2: "B1ccmpHatafMeteg subtable" hatafqamats zerojoin meteg
LCarets2: 2 0 0 
EndChar

StartChar: underscore
Encoding: 64 95 189
Width: 877
VWidth: 1755
Flags: W
HStem: -235 106<54 908>
LayerCount: 2
Fore
SplineSet
30 -129 m 1
 908 -129 l 1
 932 -235 l 1
 54 -235 l 1
 30 -129 l 1
EndSplineSet
Validated: 1
EndChar

StartChar: grave
Encoding: 65 96 190
Width: 357
VWidth: 1755
Flags: W
HStem: 779 211<-92.6991 67.145>
VStem: -183 87<986.785 1153.44>
LayerCount: 2
Fore
SplineSet
9 779 m 0
 -93 779 -183 882 -183 1019 c 0
 -183 1116 -130 1203 -22 1291 c 1
 31 1243 l 1
 -56 1169 -96 1102 -96 1037 c 0
 -96 1019 -94 986 -77 986 c 1
 -77 986 -75 988 -72 990 c 1
 -41 990 l 1
 33 990 101 940 101 861 c 0
 101 812 65 779 9 779 c 0
EndSplineSet
Validated: 1
EndChar

StartChar: braceleft
Encoding: 92 123 191
Width: 583
VWidth: 1755
Flags: W
HStem: -106 59<427.059 532> 1290 60<133.746 209>
VStem: -20 133<975.68 1278.38> 67 131<674.762 977.266>
LayerCount: 2
Fore
SplineSet
-34 650 m 1xe0
 44 679 67 694 67 761 c 0xd0
 67 783 61 813 45 883 c 2
 0 1086 l 2
 -12 1137 -20 1178 -20 1211 c 0
 -20 1252 -10 1280 9 1302 c 0
 35 1330 99 1350 164 1350 c 2
 209 1350 l 1
 223 1290 l 1
 146 1290 113 1262 113 1194 c 0xe0
 113 1162 120 1122 132 1069 c 2
 185 841 l 2
 193 804 198 775 198 750 c 0xd0
 198 694 174 662 117 622 c 1
 226 564 258 524 286 403 c 2
 339 174 l 2
 378 5 416 -47 532 -47 c 1
 545 -106 l 1
 500 -106 l 2
 435 -106 362 -87 324 -59 c 0
 271 -20 240 41 213 157 c 2
 166 361 l 2
 139 477 131 496 103 529 c 1
 75 559 52 571 -20 594 c 1
 -34 650 l 1xe0
EndSplineSet
Validated: 1
EndChar

StartChar: bar
Encoding: 93 124 192
Width: 1063
VWidth: 1755
Flags: W
HStem: 0 21G<459.375 600>
VStem: 171 429
LayerCount: 2
Fore
SplineSet
307 1267 m 1
 600 0 l 1
 464 0 l 1
 171 1267 l 1
 307 1267 l 1
EndSplineSet
Validated: 1
EndChar

StartChar: braceright
Encoding: 94 125 193
Width: 583
VWidth: 1755
Flags: W
HStem: -106 59<87 161.254> 1290 60<-235 -131.268>
VStem: 98 130<266.203 568.241> 182 133<-36.2007 272.969>
LayerCount: 2
Fore
SplineSet
319 650 m 1xe0
 332 594 l 1
 263 569 243 554 232 515 c 0
 229 504 228 495 228 483 c 0xe0
 228 461 234 431 250 361 c 2
 297 157 l 2
 309 105 315 64 315 31 c 0
 315 -10 305 -38 286 -59 c 0
 260 -87 196 -106 131 -106 c 2
 87 -106 l 1
 74 -47 l 1
 150 -47 182 -19 182 50 c 0xd0
 182 81 176 122 164 174 c 2
 111 403 l 2
 102 441 98 470 98 495 c 0
 98 551 121 582 177 622 c 1
 69 680 38 720 10 841 c 2
 -43 1069 l 2
 -82 1238 -121 1290 -235 1290 c 1
 -249 1350 l 1
 -205 1350 l 2
 -140 1350 -67 1330 -29 1302 c 0
 24 1265 55 1202 82 1086 c 2
 129 883 l 2
 156 767 164 748 195 715 c 0
 222 685 245 673 319 650 c 1xe0
EndSplineSet
Validated: 1
EndChar

StartChar: asciitilde
Encoding: 95 126 194
Width: 1063
VWidth: 1755
Flags: W
HStem: 474 140<456.516 670.334> 618 140<108.823 319.263>
LayerCount: 2
Fore
SplineSet
67 504 m 1
 -43 570 l 1
 -4 684 76 758 160 758 c 0
 204 758 246 746 347 702 c 2
 437 663 l 2
 540 618 553 614 588 614 c 0
 637 614 683 656 713 728 c 1
 821 661 l 1
 783 547 703 474 619 474 c 0
 575 474 528 488 432 528 c 1
 343 569 l 1
 230 616 225 618 190 618 c 0
 141 618 97 576 67 504 c 1
EndSplineSet
Validated: 1
EndChar

StartChar: Euro
Encoding: 200 8364 195
Width: 1024
Flags: W
HStem: -18 110<506.619 819.697> 408 79<-35 69 282 625> 617 79<-83 32 214 626> 890 21G<632.5 691.5> 1086 71<288.259 510.874>
VStem: 30 165<696 977.196>
LayerCount: 2
Fore
SplineSet
395 1086 m 0
 243 1086 195 947 195 799 c 0
 195 766 197 731 201 696 c 1
 626 696 l 1
 645 617 l 1
 214 617 l 1
 221 586 l 2
 229 552 238 519 250 487 c 1
 625 487 l 1
 643 408 l 1
 282 408 l 1
 363 242 478 92 677 92 c 0
 774 92 840 122 908 160 c 1
 915 153 922 144 929 134 c 1
 935 108 l 1
 872 38 753 -18 621 -18 c 0
 564 -18 505 -8 446 17 c 0
 287 84 171 229 99 408 c 1
 -35 408 l 1
 -53 487 l 1
 69 487 l 1
 66 497 64 507 61 518 c 0
 54 551 46 584 39 617 c 1
 -83 617 l 1
 -102 696 l 1
 32 696 l 1
 31 717 30 737 30 757 c 0
 30 990 138 1157 388 1157 c 0
 542 1157 708 1105 738 976 c 0
 739 968 740 961 740 954 c 0
 740 915 712 890 671 890 c 0
 594 890 534 967 513 1057 c 1
 476 1076 434 1086 395 1086 c 0
EndSplineSet
Validated: 1
EndChar

StartChar: A
Encoding: 34 65 200
Width: 1370
VWidth: 1900
Flags: W
HStem: 0 89<-15 80.8053 284.528 467 800 964.97 1211.01 1368> 444 104<287 713> 1380 20G<312.721 407.767>
LayerCount: 2
Fore
SplineSet
247 233 m 0
 247 133 316 89 429 89 c 2
 467 89 l 1
 488 0 l 1
 -15 0 l 1
 -36 89 l 1
 -29 89 l 2
 22 89 71 112 93 148 c 1
 115 178 119 191 134 290 c 1
 316 1400 l 1
 395 1400 l 1
 1154 211 l 2
 1222 104 1247 89 1341 89 c 2
 1368 89 l 1
 1389 0 l 1
 800 0 l 1
 779 89 l 1
 858 89 l 2
 924 89 965 107 965 134 c 0
 965 151 957 159 938 191 c 2
 776 444 l 1
 274 444 l 1
 250 277 l 2
 248 261 247 247 247 233 c 0
375 1086 m 1
 287 548 l 1
 713 548 l 1
 375 1086 l 1
EndSplineSet
Validated: 1
EndChar

StartChar: B
Encoding: 35 66 201
Width: 1370
VWidth: 1900
Flags: W
HStem: 0 89<56 227.764 451.655 883.797> 665 90<321 693.696> 1282 90<-240 -27.2365 195.807 596.245>
VStem: 758 211<825.053 1106.85> 964 233<154.025 463.78>
LayerCount: 2
Fore
SplineSet
-261 1372 m 1xe8
 422 1372 l 2
 535 1372 633 1356 708 1326 c 0
 829 1278 936 1158 964 1037 c 0xe8
 969 1015 969 992 969 970 c 0xf0
 969 899 942 832 891 788 c 1
 851 752 814 735 727 717 c 1
 997 672 1144 560 1187 372 c 0
 1194 343 1197 316 1197 290 c 0
 1197 107 1034 -0 747 0 c 2
 56 0 l 1
 35 89 l 1
 70 89 l 2
 193 89 228 95 228 138 c 0
 228 149 225 163 222 179 c 0
 148 499 74 818 0 1138 c 2
 -12 1193 l 2
 -31 1273 -51 1282 -205 1282 c 2
 -240 1282 l 1
 -261 1372 l 1xe8
301 755 m 1
 470 755 l 2
 671 755 758 804 758 926 c 0xf0
 758 952 755 981 747 1013 c 0
 722 1120 667 1200 589 1242 c 1
 543 1269 469 1282 381 1282 c 2
 304 1282 l 2
 225 1282 195 1270 195 1227 c 0
 195 1216 197 1203 201 1188 c 2
 301 755 l 1
321 665 m 1
 427 209 l 2
 451 104 469 89 565 89 c 2
 644 89 l 2
 764 89 841 103 892 133 c 1
 940 159 964 211 964 283 c 0xe8
 964 312 960 344 952 379 c 0
 922 505 856 587 758 629 c 1
 696 654 609 665 488 665 c 2
 321 665 l 1
EndSplineSet
Validated: 1
EndChar

StartChar: C
Encoding: 36 67 202
Width: 1370
VWidth: 1900
Flags: W
HStem: -29 91<531.741 920.811> 1311 89<268.815 603.983>
VStem: -93 234<658.998 1090.68> 965 84<836 887.107> 1070 94<222.328 470>
LayerCount: 2
Fore
SplineSet
736 62 m 0
 950 62 1070 192 1070 425 c 0
 1070 444 1070 463 1070 484 c 1
 1160 470 l 1
 1163 443 1164 417 1164 392 c 0
 1164 122 1013 -29 735 -29 c 0
 361 -29 25 264 -69 672 c 0
 -85 739 -93 802 -93 862 c 0
 -93 976 -64 1077 -7 1172 c 0
 87 1326 222 1400 407 1400 c 0
 534 1400 615 1372 772 1273 c 1
 822 1385 l 1
 895 1385 l 1
 1049 836 l 1
 965 836 l 1
 888 982 843 1055 793 1118 c 1
 692 1239 558 1311 425 1311 c 0
 304 1311 201 1245 167 1138 c 1
 150 1087 141 1031 141 964 c 0
 141 882 155 784 182 665 c 0
 277 257 455 62 736 62 c 0
EndSplineSet
Validated: 1
EndChar

StartChar: D
Encoding: 37 68 203
Width: 1477
VWidth: 1900
Flags: W
HStem: 0 89<55 225.896 447.007 893.363> 1282 90<-241 -29.0846 192.018 624.418>
VStem: 1021 237<250.84 705.352>
LayerCount: 2
Fore
SplineSet
220 179 m 0
 146 499 74 818 0 1138 c 2
 -14 1193 l 2
 -33 1273 -52 1282 -205 1282 c 2
 -241 1282 l 1
 -262 1372 l 1
 342 1372 l 2
 559 1372 706 1341 827 1274 c 1
 1027 1160 1171 955 1231 694 c 0
 1249 616 1258 544 1258 477 c 0
 1258 298 1194 162 1073 83 c 0
 985 27 863 0 694 0 c 2
 55 0 l 1
 34 89 l 1
 70 89 l 2
 191 89 226 95 226 137 c 0
 226 149 224 162 220 179 c 0
560 89 m 2
 689 89 l 2
 915 89 1021 182 1021 402 c 0
 1021 480 1007 574 982 685 c 0
 885 1105 709 1282 384 1282 c 2
 285 1282 l 2
 217 1282 192 1276 192 1236 c 0
 192 1222 195 1202 201 1177 c 2
 428 194 l 2
 450 101 466 89 560 89 c 2
EndSplineSet
Validated: 1
EndChar

StartChar: E
Encoding: 38 69 204
Width: 1370
VWidth: 1900
Flags: W
HStem: 0 89<55 225.764 461.915 942.747> 665 90<319 511.613> 886 21G<903 1018> 1282 90<-241 -29.2365 192.077 684.134>
VStem: 551 89<952.076 1014> 694 90<392 453.924> 1060 83<415.814 508>
LayerCount: 2
Fore
SplineSet
715 89 m 2
 1000 89 1060 184 1060 459 c 0
 1060 475 1060 491 1060 508 c 1
 1143 508 l 1
 1222 0 l 1
 55 0 l 1
 34 89 l 1
 68 89 l 2
 191 89 226 95 226 138 c 0
 226 149 223 163 220 179 c 0
 146 499 74 818 0 1138 c 2
 -14 1193 l 2
 -33 1273 -53 1282 -207 1282 c 2
 -241 1282 l 1
 -262 1372 l 1
 879 1372 l 1
 1018 886 l 1
 937 886 l 1
 869 1057 799 1164 725 1213 c 1
 648 1266 562 1282 395 1282 c 2
 297 1282 l 2
 218 1282 192 1274 192 1235 c 0
 192 1223 194 1207 199 1188 c 2
 299 755 l 1
 345 755 l 2
 494 755 560 805 560 926 c 0
 560 952 557 981 551 1014 c 1
 640 1014 l 1
 784 392 l 1
 694 392 l 1
 665 505 631 565 570 614 c 1
 523 654 473 665 357 665 c 2
 319 665 l 1
 431 181 l 2
 440 141 445 129 461 118 c 1
 480 102 533 89 589 89 c 2
 715 89 l 2
EndSplineSet
Validated: 1
EndChar

StartChar: F
Encoding: 39 70 205
Width: 1266
VWidth: 1900
Flags: W
HStem: 0 89<55 225.764 447.781 686> 665 90<319 511.465> 886 21G<860 1008> 1282 90<-241 -29.2365 192.077 667.755>
VStem: 551 89<952.076 1014> 694 90<392 453.924>
LayerCount: 2
Fore
SplineSet
868 1372 m 1
 1008 886 l 1
 924 886 l 1
 796 1211 698 1282 384 1282 c 2
 297 1282 l 2
 218 1282 192 1274 192 1235 c 0
 192 1223 194 1207 199 1188 c 2
 299 755 l 1
 345 755 l 2
 494 755 560 805 560 926 c 0
 560 952 557 981 551 1014 c 1
 640 1014 l 1
 784 392 l 1
 694 392 l 1
 665 505 633 565 573 614 c 0
 524 654 475 665 357 665 c 2
 319 665 l 1
 357 503 394 341 432 179 c 0
 450 99 469 89 623 89 c 2
 686 89 l 1
 707 0 l 1
 55 0 l 1
 34 89 l 1
 68 89 l 2
 191 89 226 95 226 138 c 0
 226 149 223 163 220 179 c 0
 146 499 74 818 0 1138 c 2
 -14 1193 l 2
 -33 1273 -53 1282 -207 1282 c 2
 -241 1282 l 1
 -262 1372 l 1
 868 1372 l 1
EndSplineSet
Validated: 1
EndChar

StartChar: G
Encoding: 40 71 206
Width: 1477
VWidth: 1900
Flags: W
HStem: -29 91<540.11 891.876> 536 90<739 951.137 1157.04 1322> 1311 89<266.892 619.919>
VStem: -98 237<633.356 1089.74> 991 166<293.328 499.123>
LayerCount: 2
Fore
SplineSet
1314 536 m 2
 1207 536 1157 532 1157 494 c 0
 1157 482 1162 458 1178 392 c 2
 1275 -29 l 1
 1195 -29 l 1
 1084 145 l 1
 989 22 888 -29 729 -29 c 0
 546 -29 353 50 205 183 c 0
 66 306 -28 467 -73 661 c 0
 -90 735 -98 803 -98 866 c 0
 -98 1024 -45 1152 64 1261 c 1
 162 1357 270 1400 420 1400 c 0
 560 1400 650 1368 796 1269 c 1
 843 1385 l 1
 915 1385 l 1
 1064 852 l 1
 983 852 l 1
 835 1156 650 1311 433 1311 c 0
 239 1311 139 1188 139 954 c 0
 139 871 152 773 177 661 c 0
 224 457 286 324 380 219 c 1
 467 125 607 62 728 62 c 0
 851 62 957 126 983 219 c 0
 989 237 991 261 991 288 c 0
 991 327 986 374 975 422 c 0
 950 527 934 536 775 536 c 2
 739 536 l 1
 718 626 l 1
 1322 626 l 1
 1343 536 l 1
 1314 536 l 2
EndSplineSet
Validated: 1
EndChar

StartChar: H
Encoding: 41 72 207
Width: 1581
VWidth: 1900
Flags: W
HStem: 0 89<55 225.764 447.781 659 905 1074.76 1296.94 1507> 659 103<321 934> 1282 90<-241 -29.2365 191.104 363 616 819.903 1040.11 1211>
LayerCount: 2
Fore
SplineSet
958 659 m 1
 321 659 l 1
 358 499 395 339 432 179 c 0
 450 99 469 89 623 89 c 2
 659 89 l 1
 680 0 l 1
 55 0 l 1
 34 89 l 1
 68 89 l 2
 191 89 226 95 226 138 c 0
 226 149 223 163 220 179 c 0
 146 499 74 818 0 1138 c 2
 -14 1193 l 2
 -33 1273 -53 1282 -207 1282 c 2
 -241 1282 l 1
 -262 1372 l 1
 363 1372 l 1
 384 1282 l 1
 348 1282 l 2
 226 1282 191 1276 191 1234 c 0
 191 1223 194 1210 198 1193 c 0
 231 1049 264 906 297 762 c 1
 934 762 l 1
 901 906 868 1049 835 1193 c 0
 816 1273 797 1282 643 1282 c 2
 616 1282 l 1
 595 1372 l 1
 1211 1372 l 1
 1232 1282 l 1
 1198 1282 l 2
 1076 1282 1040 1276 1040 1234 c 0
 1040 1223 1043 1209 1047 1193 c 0
 1120 873 1194 554 1268 234 c 2
 1281 179 l 2
 1299 99 1319 89 1473 89 c 2
 1507 89 l 1
 1528 0 l 1
 905 0 l 1
 884 89 l 1
 918 89 l 2
 1040 89 1075 95 1075 138 c 0
 1075 149 1073 162 1069 179 c 0
 1032 339 995 499 958 659 c 1
EndSplineSet
Validated: 1
EndChar

StartChar: I
Encoding: 42 73 208
Width: 771
VWidth: 1900
Flags: W
HStem: 0 89<73 245.764 468.766 681> 1282 90<-223 -9.09744 212.104 385>
LayerCount: 2
Fore
SplineSet
219 1193 m 0
 292 873 366 554 440 234 c 2
 453 179 l 2
 471 99 490 89 643 89 c 2
 681 89 l 1
 702 0 l 1
 73 0 l 1
 52 89 l 1
 89 89 l 2
 211 89 246 95 246 138 c 0
 246 149 244 162 240 179 c 0
 166 499 92 818 18 1138 c 2
 6 1193 l 2
 -13 1273 -32 1282 -186 1282 c 2
 -223 1282 l 1
 -244 1372 l 1
 385 1372 l 1
 406 1282 l 1
 368 1282 l 2
 247 1282 212 1276 212 1234 c 0
 212 1223 215 1210 219 1193 c 0
EndSplineSet
Validated: 1
EndChar

StartChar: J
Encoding: 43 74 209
Width: 1055
VWidth: 1900
Flags: W
HStem: -29 91<175.948 469.784> 263 263<69.6685 194.783> 1282 90<101 312.054 532.104 704>
VStem: -66 322<264.43 465.962> 527 206<117.29 519.516>
LayerCount: 2
Fore
SplineSet
339 62 m 0
 456 62 527 127 527 252 c 0
 527 306 514 383 481 526 c 0
 429 748 378 971 327 1193 c 0
 308 1273 290 1282 137 1282 c 2
 101 1282 l 1
 80 1372 l 1
 704 1372 l 1
 725 1282 l 1
 688 1282 l 2
 567 1282 532 1276 532 1235 c 0
 532 1224 535 1210 539 1193 c 0
 591 965 644 737 696 509 c 0
 721 404 733 321 733 256 c 0
 733 206 726 166 712 133 c 0
 670 26 562 -29 395 -29 c 0
 279 -29 183 -2 108 53 c 1
 27 109 -37 203 -58 294 c 0
 -64 319 -66 342 -66 364 c 0
 -66 461 -12 526 78 526 c 0
 169 526 256 456 256 352 c 0
 256 293 221 252 165 252 c 0
 143 252 126 255 92 263 c 1
 85 263 l 2
 72 263 66 248 69 232 c 0
 75 209 97 172 126 145 c 0
 177 94 259 62 339 62 c 0
EndSplineSet
Validated: 1
EndChar

StartChar: K
Encoding: 44 75 210
Width: 1477
VWidth: 1900
Flags: W
HStem: 0 89<56 227.764 449.625 661 876 1033.97 1311.89 1505> 1282 90<-240 -27.2365 193.104 365 567 748.384 982.981 1132>
LayerCount: 2
Fore
SplineSet
752 1217 m 0
 752 1267 702 1282 614 1282 c 2
 567 1282 l 1
 546 1372 l 1
 1132 1372 l 1
 1153 1282 l 1
 1039 1282 934 1227 865 1131 c 1
 647 847 l 1
 1260 185 l 2
 1334 104 1364 89 1469 89 c 2
 1505 89 l 1
 1526 0 l 1
 876 0 l 1
 855 89 l 1
 914 89 l 2
 1000 89 1034 101 1034 126 c 0
 1034 152 1019 165 977 212 c 2
 535 697 l 1
 365 475 l 1
 388 376 411 278 434 179 c 0
 452 99 470 89 624 89 c 2
 661 89 l 1
 682 0 l 1
 56 0 l 1
 35 89 l 1
 70 89 l 2
 193 89 228 95 228 138 c 0
 228 149 225 163 222 179 c 0
 148 499 74 818 0 1138 c 2
 -12 1193 l 2
 -31 1273 -51 1282 -205 1282 c 2
 -240 1282 l 1
 -261 1372 l 1
 365 1372 l 1
 386 1282 l 1
 349 1282 l 2
 228 1282 193 1276 193 1235 c 0
 193 1224 196 1210 200 1193 c 0
 244 1002 288 812 332 621 c 1
 690 1089 l 2
 728 1138 752 1188 752 1217 c 0
EndSplineSet
Validated: 1
EndChar

StartChar: L
Encoding: 45 76 211
Width: 1266
VWidth: 1900
Flags: W
HStem: 0 89<67 236.764 473.915 912.645> 1282 90<-229 -18.0974 202.107 373>
VStem: 1024 84<440.266 521>
LayerCount: 2
Fore
SplineSet
681 89 m 2
 959 89 1027 178 1027 439 c 0
 1027 466 1024 493 1024 521 c 1
 1108 521 l 1
 1188 0 l 1
 67 0 l 1
 46 89 l 1
 80 89 l 2
 202 89 237 95 237 138 c 0
 237 149 235 162 231 179 c 0
 157 499 83 818 9 1138 c 2
 -3 1193 l 2
 -22 1273 -41 1282 -195 1282 c 2
 -229 1282 l 1
 -250 1372 l 1
 373 1372 l 1
 394 1282 l 1
 360 1282 l 2
 238 1282 202 1276 202 1234 c 0
 202 1223 205 1209 209 1193 c 0
 286 856 364 518 442 181 c 0
 451 141 457 129 473 118 c 1
 492 102 544 89 600 89 c 2
 681 89 l 2
EndSplineSet
Validated: 1
EndChar

StartChar: M
Encoding: 46 77 212
Width: 1792
VWidth: 1900
Flags: W
HStem: 0 89<42 170.207 392.09 563 1112 1280.9 1503.55 1713> 1282 90<-241 -27.2365 1248.1 1417>
LayerCount: 2
Fore
SplineSet
229 1372 m 1
 827 359 l 1
 941 1372 l 1
 1417 1372 l 1
 1438 1282 l 1
 1405 1282 l 2
 1283 1282 1248 1276 1248 1234 c 0
 1248 1223 1251 1210 1255 1193 c 0
 1328 873 1402 554 1476 234 c 2
 1489 179 l 2
 1507 98 1526 89 1680 89 c 2
 1713 89 l 1
 1734 0 l 1
 1112 0 l 1
 1091 89 l 1
 1124 89 l 2
 1246 89 1281 95 1281 137 c 0
 1281 148 1279 162 1275 179 c 0
 1192 536 1110 893 1027 1250 c 1
 893 0 l 1
 817 0 l 1
 76 1250 l 1
 270 410 l 2
 330 151 381 89 563 89 c 1
 584 0 l 1
 42 0 l 1
 21 89 l 1
 146 89 197 122 197 223 c 0
 197 269 187 330 168 410 c 0
 108 671 48 932 -12 1193 c 0
 -31 1273 -51 1282 -205 1282 c 2
 -241 1282 l 1
 -262 1372 l 1
 229 1372 l 1
EndSplineSet
Validated: 1
EndChar

StartChar: N
Encoding: 47 78 213
Width: 1548
VWidth: 1900
Flags: W
HStem: 0 89<38 168.283 388.09 559> 1282 90<-260 -42.6528 671 842.024 1061.66 1191>
LayerCount: 2
Fore
SplineSet
111 1372 m 1
 1101 363 l 1
 964 959 l 2
 903 1220 854 1282 671 1282 c 1
 650 1372 l 1
 1191 1372 l 1
 1212 1282 l 1
 1088 1282 1037 1249 1037 1148 c 0
 1037 1102 1048 1041 1067 959 c 2
 1294 -27 l 1
 1215 -27 l 1
 103 1117 l 1
 266 411 l 2
 326 150 377 89 559 89 c 1
 580 0 l 1
 38 0 l 1
 17 89 l 1
 142 89 193 121 193 223 c 0
 193 269 183 330 164 411 c 2
 -23 1220 l 1
 -69 1268 -117 1282 -213 1282 c 2
 -260 1282 l 1
 -281 1372 l 1
 111 1372 l 1
EndSplineSet
Validated: 1
EndChar

StartChar: O
Encoding: 48 79 214
Width: 1477
VWidth: 1900
Flags: W
HStem: -29 91<536.181 895.988> 1311 89<268.033 625.722>
VStem: -94 229<681.523 1109.17> 1026 230<268.61 690.386>
LayerCount: 2
Fore
SplineSet
424 1400 m 0
 789 1400 1141 1088 1234 685 c 0
 1249 620 1256 557 1256 498 c 0
 1256 188 1058 -29 746 -29 c 0
 376 -29 22 279 -72 684 c 0
 -86 747 -94 809 -94 869 c 0
 -94 1015 -51 1146 30 1241 c 0
 122 1348 255 1400 424 1400 c 0
725 62 m 0
 924 62 1026 189 1026 396 c 0
 1026 471 1012 561 984 685 c 0
 930 917 878 1035 782 1148 c 1
 690 1253 569 1311 442 1311 c 0
 236 1311 135 1187 135 976 c 0
 135 901 149 811 177 690 c 0
 231 454 280 340 379 224 c 0
 472 117 591 62 725 62 c 0
EndSplineSet
Validated: 1
EndChar

StartChar: P
Encoding: 49 80 215
Width: 1266
VWidth: 1900
Flags: W
HStem: 0 89<53 223.764 445.781 670> 610 89<330 719.78> 1282 90<-243 -31.0974 189.018 599.001>
VStem: 784 230<760.295 1082.56>
LayerCount: 2
Fore
SplineSet
330 610 m 1
 363 466 397 323 430 179 c 0
 448 99 467 89 621 89 c 2
 670 89 l 1
 691 0 l 1
 53 0 l 1
 32 89 l 1
 67 89 l 2
 189 89 224 95 224 138 c 0
 224 149 222 162 218 179 c 0
 144 499 70 818 -4 1138 c 2
 -16 1193 l 2
 -35 1273 -54 1282 -208 1282 c 2
 -243 1282 l 1
 -264 1372 l 1
 401 1372 l 2
 727 1372 946 1245 1003 995 c 0
 1011 963 1014 933 1014 904 c 0
 1014 797 964 710 870 659 c 0
 802 623 715 610 544 610 c 2
 330 610 l 1
310 699 m 1
 541 699 l 2
 704 699 784 758 784 886 c 0
 784 916 779 951 771 988 c 0
 724 1189 611 1282 413 1282 c 2
 291 1282 l 2
 214 1282 189 1277 189 1240 c 0
 189 1226 192 1208 197 1185 c 2
 310 699 l 1
EndSplineSet
Validated: 1
EndChar

StartChar: Q
Encoding: 50 81 216
Width: 1477
VWidth: 1900
Flags: W
HStem: -359 154<1232.66 1350.29> -29 91<564.83 885.623> 414 89<506.166 742.227> 1311 89<264.445 633.747>
VStem: -92 235<645.202 1095.94> 382 93<212.591 383.883> 1025 229<281.838 704.994> 1354 91<-203.684 -39.8955>
LayerCount: 2
Fore
SplineSet
1430 -38 m 1
 1439 -80 1445 -122 1445 -157 c 0
 1445 -285 1380 -359 1261 -359 c 0
 1105 -359 980 -228 919 0 c 1
 861 -22 822 -29 757 -29 c 0
 387 -29 20 287 -72 684 c 0
 -86 744 -92 802 -92 859 c 0
 -92 1009 -45 1144 44 1246 c 0
 136 1351 258 1400 414 1400 c 0
 780 1400 1142 1092 1232 702 c 0
 1247 638 1254 577 1254 518 c 0
 1254 350 1195 202 1076 81 c 1
 1189 -126 1252 -205 1307 -205 c 0
 1340 -205 1354 -184 1354 -133 c 0
 1354 -108 1351 -77 1345 -38 c 1
 1430 -38 l 1
397 211 m 1
 385 243 382 275 382 308 c 0
 382 426 468 503 604 503 c 0
 763 503 902 405 993 226 c 1
 1014 282 1025 339 1025 407 c 0
 1025 483 1012 572 985 690 c 0
 940 884 886 1016 807 1123 c 1
 721 1241 584 1311 439 1311 c 0
 299 1311 202 1251 169 1144 c 0
 151 1091 143 1029 143 960 c 0
 143 877 155 785 178 684 c 0
 229 463 298 312 397 211 c 1
475 280 m 0
 475 138 579 62 720 62 c 0
 795 62 837 73 888 103 c 1
 844 294 752 414 614 414 c 0
 527 414 475 362 475 280 c 0
EndSplineSet
Validated: 1
EndChar

StartChar: R
Encoding: 51 82 217
Width: 1370
VWidth: 1900
Flags: W
HStem: -29 145<1101.26 1211.25> 0 89<49 218.764 442.781 651> 665 90<314 606.088> 1282 90<-247 -36.0974 195.565 595.956>
VStem: 749 231<819.086 1120.71> 1215 86<118.699 301.686>
LayerCount: 2
Fore
SplineSet
314 665 m 1xbc
 352 503 389 341 427 179 c 0
 445 99 464 89 618 89 c 2
 651 89 l 1
 672 0 l 1
 49 0 l 1
 28 89 l 1
 62 89 l 2x7c
 184 89 219 95 219 138 c 0
 219 149 217 162 213 179 c 0
 139 499 65 818 -9 1138 c 2
 -21 1193 l 2
 -40 1273 -59 1282 -213 1282 c 2
 -247 1282 l 1
 -268 1372 l 1
 390 1372 l 2
 709 1372 921 1249 971 1032 c 0
 977 1004 980 977 980 953 c 0
 980 809 870 723 643 691 c 1
 800 653 893 572 975 398 c 1
 1035 279 l 1
 1097 148 1123 116 1166 116 c 0
 1200 116 1215 141 1215 196 c 0
 1215 224 1211 260 1204 304 c 1
 1284 304 l 1
 1295 249 1301 202 1301 161 c 0
 1301 32 1243 -29 1125 -29 c 0
 975 -29 885 60 813 274 c 2
 781 370 l 2
 738 496 694 564 629 607 c 1
 579 642 499 665 424 665 c 2
 314 665 l 1xbc
294 755 m 1
 503 755 l 2
 594 755 673 780 712 820 c 0
 737 845 749 885 749 934 c 0
 749 963 745 995 737 1030 c 0
 697 1202 594 1282 406 1282 c 2
 303 1282 l 2
 222 1282 207 1280 195 1269 c 0
 188 1262 184 1257 184 1244 c 0
 184 1232 188 1211 197 1172 c 2
 294 755 l 1
EndSplineSet
Validated: 1
EndChar

StartChar: S
Encoding: 52 83 218
Width: 1196
VWidth: 1900
Flags: W
HStem: -15 73<450.312 805.692> 889 21G<750.5 855> 1309 91<86.4161 439.626>
VStem: -115 135<1001.25 1246.19> -25 83<467.686 526> 774 81<889 940.423> 905 139<142.084 416.784>
LayerCount: 2
Fore
SplineSet
717 1384 m 1xf6
 855 889 l 1
 774 889 l 1
 727 985 674 1066 601 1144 c 0
 500 1252 379 1309 246 1309 c 0
 106 1309 20 1240 20 1135 c 0xf6
 20 1119 22 1103 27 1085 c 0
 53 969 150 895 329 852 c 2
 545 800 l 2
 707 762 788 729 850 680 c 0
 942 607 1004 508 1031 390 c 0
 1040 352 1044 315 1044 281 c 0
 1044 90 908 -29 671 -29 c 0
 505 -29 389 9 238 114 c 1
 182 -15 l 1
 108 -15 l 1
 -25 526 l 1
 58 526 l 1xee
 120 380 180 290 281 201 c 0
 392 102 504 58 645 58 c 0
 750 58 806 79 856 134 c 1
 888 171 905 215 905 266 c 0
 905 377 846 456 769 506 c 0
 722 536 707 540 558 576 c 2
 368 621 l 1
 72 694 -55 796 -103 1003 c 0
 -111 1039 -115 1073 -115 1105 c 0
 -115 1285 11 1400 223 1400 c 0
 357 1400 490 1355 599 1269 c 1
 647 1384 l 1
 717 1384 l 1xf6
EndSplineSet
Validated: 1
EndChar

StartChar: T
Encoding: 53 84 219
Width: 1266
VWidth: 1900
Flags: W
HStem: 0 89<309 492.764 716.453 938> 1282 90<0.368011 239.495 459.017 695.653>
VStem: -159 82<843 924.546> 955 81<843 893.558>
LayerCount: 2
Fore
SplineSet
955 843 m 1
 879 1049 767 1282 534 1282 c 0
 482 1282 459 1269 459 1237 c 0
 459 1230 460 1223 461 1215 c 2
 688 234 l 1
 701 179 l 2
 719 99 736 89 889 89 c 2
 938 89 l 1
 959 0 l 1
 309 0 l 1
 288 89 l 1
 336 89 l 2
 458 89 493 95 493 138 c 0
 493 149 491 162 487 179 c 2
 474 234 l 1
 247 1215 l 2
 236 1263 205 1282 142 1282 c 0
 13 1282 -62 1212 -78 1072 c 0
 -82 1044 -84 1013 -84 979 c 0
 -84 939 -77 894 -77 843 c 1
 -159 843 l 1
 -252 1372 l 1
 886 1372 l 1
 1036 843 l 1
 955 843 l 1
EndSplineSet
Validated: 1
EndChar

StartChar: U
Encoding: 54 85 220
Width: 1548
VWidth: 1900
Flags: W
HStem: -29 104<591.505 975.688> 1282 90<-264 -55.9455 164.107 337 681 852.024 1071.66 1201>
VStem: 1102 104<191.367 590.492>
LayerCount: 2
Fore
SplineSet
1077 959 m 2
 1176 528 l 2
 1196 443 1206 375 1206 318 c 0
 1206 261 1196 215 1176 171 c 1
 1115 37 981 -29 767 -29 c 0
 553 -29 369 41 251 167 c 0
 203 220 174 281 146 382 c 1
 88 634 29 886 -29 1138 c 2
 -41 1193 l 2
 -60 1273 -78 1282 -231 1282 c 2
 -264 1282 l 1
 -285 1372 l 1
 337 1372 l 1
 358 1282 l 1
 322 1282 l 2
 200 1282 164 1276 164 1234 c 0
 164 1223 167 1209 171 1193 c 0
 224 963 277 732 330 502 c 0
 371 326 393 279 460 209 c 0
 543 123 665 75 794 75 c 0
 948 75 1055 143 1090 261 c 0
 1098 287 1102 312 1102 342 c 0
 1102 389 1092 447 1070 540 c 2
 974 959 l 2
 913 1220 864 1282 681 1282 c 1
 660 1372 l 1
 1201 1372 l 1
 1222 1282 l 1
 1098 1282 1047 1249 1047 1148 c 0
 1047 1102 1058 1041 1077 959 c 2
EndSplineSet
Validated: 1
EndChar

StartChar: V
Encoding: 55 86 221
Width: 1370
VWidth: 1900
Flags: W
HStem: 1282 90<-311 -147.722 98.0228 261 578 759.494 955.687 1072>
LayerCount: 2
Fore
SplineSet
795 1135 m 0
 795 1237 732 1282 614 1282 c 2
 578 1282 l 1
 557 1372 l 1
 1072 1372 l 1
 1093 1282 l 1
 1075 1282 l 2
 967 1282 932 1245 910 1097 c 1
 732 -29 l 1
 657 -29 l 1
 -103 1177 l 2
 -159 1265 -187 1282 -273 1282 c 2
 -311 1282 l 1
 -332 1372 l 1
 261 1372 l 1
 282 1282 l 1
 206 1282 l 2
 129 1282 98 1272 98 1245 c 0
 98 1225 108 1205 126 1178 c 2
 679 294 l 1
 791 1077 l 2
 794 1095 795 1116 795 1135 c 0
EndSplineSet
Validated: 1
EndChar

StartChar: W
Encoding: 56 87 222
Width: 1863
VWidth: 1900
Flags: W
HStem: 1282 90<-285 -136.12 91.0154 231 375 542.02 786.933 903 1093 1264.6 1435.57 1538>
VStem: 635 89<346 916> 1298 106<346 1246.91>
LayerCount: 2
Fore
SplineSet
1298 1139 m 0
 1298 1243 1236 1282 1108 1282 c 2
 1093 1282 l 1
 1072 1372 l 1
 1538 1372 l 1
 1559 1282 l 1
 1551 1282 l 2
 1428 1282 1404 1216 1404 1086 c 1
 1404 -29 l 1
 1249 -29 l 1
 724 916 l 1
 724 -29 l 1
 579 -29 l 1
 -118 1209 l 2
 -157 1276 -168 1282 -248 1282 c 2
 -285 1282 l 1
 -306 1372 l 1
 231 1372 l 1
 252 1282 l 1
 166 1282 l 2
 112 1282 91 1275 91 1254 c 0
 91 1236 103 1216 114 1196 c 2
 635 346 l 1
 635 1075 l 1
 552 1223 l 2
 526 1268 497 1282 419 1282 c 2
 375 1282 l 1
 354 1372 l 1
 903 1372 l 1
 924 1282 l 1
 894 1282 l 2
 819 1282 806 1281 786 1273 c 1
 772 1265 765 1247 769 1231 c 0
 772 1218 775 1214 794 1178 c 2
 1298 346 l 1
 1298 1117 l 2
 1299 1124 1298 1132 1298 1139 c 0
EndSplineSet
Validated: 1
EndChar

StartChar: X
Encoding: 57 88 223
Width: 1335
VWidth: 1900
Flags: W
HStem: 0 89<-10 111.873 342.73 508 737 890.984 1148.95 1339> 1282 90<-307 -125.495 120.015 259 464 629.26 827.639 965>
LayerCount: 2
Fore
SplineSet
642 1189 m 0
 642 1258 587 1282 491 1282 c 2
 464 1282 l 1
 443 1372 l 1
 965 1372 l 1
 986 1282 l 1
 957 1282 l 2
 856 1282 811 1247 737 1104 c 1
 564 760 l 1
 1095 188 l 2
 1181 95 1196 89 1317 89 c 2
 1339 89 l 1
 1360 0 l 1
 737 0 l 1
 716 89 l 1
 769 89 l 1
 870 89 891 92 891 111 c 0
 891 137 874 156 851 183 c 1
 475 584 l 1
 329 264 l 1
 321 242 315 221 315 201 c 0
 315 129 383 89 462 89 c 2
 508 89 l 1
 529 0 l 1
 -10 0 l 1
 -31 89 l 1
 -21 89 l 2
 75 89 141 134 191 241 c 1
 400 669 l 1
 -98 1210 l 2
 -156 1273 -181 1282 -274 1282 c 2
 -307 1282 l 1
 -328 1372 l 1
 259 1372 l 1
 280 1282 l 1
 207 1282 l 2
 141 1282 120 1277 120 1263 c 0
 120 1248 135 1229 154 1210 c 2
 490 846 l 1
 628 1144 l 2
 638 1164 642 1176 642 1189 c 0
EndSplineSet
Validated: 1
EndChar

StartChar: Y
Encoding: 58 89 224
Width: 1335
VWidth: 1900
Flags: W
HStem: 0 89<361 545.764 767.99 992> 1282 90<-321 -145.844 109.016 269 519 712.458 910.326 1037>
LayerCount: 2
Fore
SplineSet
734 1166 m 0
 734 1254 679 1282 564 1282 c 2
 519 1282 l 1
 498 1372 l 1
 1037 1372 l 1
 1058 1282 l 1
 1043 1282 l 2
 980 1282 925 1258 891 1218 c 1
 868 1189 853 1154 828 1079 c 2
 664 567 l 1
 694 438 724 308 754 179 c 0
 772 98 787 89 941 89 c 2
 992 89 l 1
 1013 0 l 1
 361 0 l 1
 340 89 l 1
 389 89 l 2
 511 89 546 95 546 138 c 0
 546 149 544 162 540 179 c 0
 511 301 483 424 455 546 c 1
 -105 1195 l 2
 -164 1265 -199 1282 -280 1282 c 2
 -321 1282 l 1
 -342 1372 l 1
 269 1372 l 1
 290 1282 l 1
 177 1282 l 2
 131 1282 109 1273 109 1253 c 0
 109 1233 123 1218 145 1193 c 2
 582 678 l 1
 721 1099 l 2
 730 1124 734 1146 734 1166 c 0
EndSplineSet
Validated: 1
EndChar

StartChar: Z
Encoding: 59 90 225
Width: 1160
VWidth: 1900
Flags: W
HStem: 0 89<280 790.927> 892 21G<-108 -20> 1282 90<65.0795 527>
VStem: -105 85<892 959.014> 881 89<442.95 528>
LayerCount: 2
Fore
SplineSet
763 1372 m 1
 779 1303 l 1
 280 89 l 1
 595 89 l 2
 718 89 812 125 846 188 c 1
 874 237 887 300 887 398 c 0
 887 436 881 479 881 528 c 1
 970 528 l 1
 1059 0 l 1
 45 0 l 1
 29 68 l 1
 527 1282 l 1
 280 1282 l 2
 45 1282 -21 1220 -21 960 c 0
 -21 939 -20 916 -20 892 c 1
 -105 892 l 1
 -177 1372 l 1
 763 1372 l 1
EndSplineSet
Validated: 1
EndChar

StartChar: a
Encoding: 66 97 226
Width: 1055
VWidth: 1900
Flags: W
HStem: -29 102<288.787 537.832> -13 112<838.31 984.471> 468 81<386.245 553> 833 81<146.254 437.478>
VStem: -27 157<705.684 812.716> 32 187<145.136 367.529>
LayerCount: 2
Fore
SplineSet
116 559 m 0xb8
 40 559 -27 621 -27 715 c 0
 -27 831 103 914 295 914 c 0
 416 914 515 887 590 838 c 1
 655 793 691 732 719 612 c 2
 807 231 l 2
 828 137 855 99 908 99 c 0
 923 99 930 102 958 113 c 0
 970 118 977 120 985 120 c 0
 999 120 1011 103 1011 84 c 0
 1011 33 940 -13 860 -13 c 0x78
 771 -13 714 25 662 121 c 1
 603 25 497 -29 366 -29 c 0
 199 -29 69 60 38 194 c 0
 34 213 32 231 32 248 c 0xb4
 32 341 95 411 220 463 c 0
 305 499 362 514 553 549 c 1
 536 624 l 2
 516 710 493 755 450 785 c 1
 413 814 341 833 283 833 c 0
 197 833 130 802 130 765 c 0
 130 752 133 749 150 734 c 1
 179 702 199 676 199 634 c 0
 199 589 166 559 116 559 c 0xb8
408 73 m 0xb4
 505 73 613 145 613 256 c 0
 613 284 606 320 592 380 c 2
 572 468 l 1
 430 443 358 424 306 397 c 0
 248 365 219 323 219 267 c 0
 219 153 310 73 408 73 c 0xb4
EndSplineSet
Validated: 1
EndChar

